<svg width="160" height="80" viewBox="0 0 160 80" fill="none" xmlns="http://www.w3.org/2000/svg">
<path d="M51.7216 49V31.5455H63.0739V34.196H54.8835V38.9347H62.4858V41.5852H54.8835V46.3494H63.142V49H51.7216ZM66.1634 49V35.9091H69.2486V49H66.1634ZM67.7145 34.0511C67.2259 34.0511 66.8054 33.8892 66.4531 33.5653C66.1009 33.2358 65.9247 32.8409 65.9247 32.3807C65.9247 31.9148 66.1009 31.5199 66.4531 31.196C66.8054 30.8665 67.2259 30.7017 67.7145 30.7017C68.2088 30.7017 68.6293 30.8665 68.9759 31.196C69.3281 31.5199 69.5043 31.9148 69.5043 32.3807C69.5043 32.8409 69.3281 33.2358 68.9759 33.5653C68.6293 33.8892 68.2088 34.0511 67.7145 34.0511ZM78.1143 54.1818C77.0064 54.1818 76.0547 54.0313 75.2592 53.7301C74.4638 53.4347 73.8246 53.0369 73.3416 52.5369C72.8587 52.0369 72.5234 51.483 72.3359 50.875L75.1143 50.2017C75.2393 50.4574 75.4212 50.7102 75.6598 50.9602C75.8984 51.2159 76.2195 51.4261 76.6229 51.5909C77.032 51.7614 77.5462 51.8466 78.1655 51.8466C79.0405 51.8466 79.7649 51.6335 80.3388 51.2074C80.9126 50.7869 81.1996 50.0938 81.1996 49.1278V46.6477H81.0462C80.8871 46.9659 80.6541 47.2926 80.3473 47.6278C80.0462 47.9631 79.6456 48.2443 79.1456 48.4716C78.6513 48.6989 78.0291 48.8125 77.2791 48.8125C76.2734 48.8125 75.3615 48.5767 74.5433 48.1051C73.7308 47.6278 73.0831 46.9176 72.6001 45.9744C72.1229 45.0256 71.8842 43.8381 71.8842 42.4119C71.8842 40.9744 72.1229 39.7614 72.6001 38.7727C73.0831 37.7784 73.7337 37.0256 74.5518 36.5142C75.37 35.9972 76.282 35.7386 77.2876 35.7386C78.0547 35.7386 78.6854 35.8693 79.1797 36.1307C79.6797 36.3864 80.0774 36.696 80.3729 37.0597C80.6683 37.4176 80.8928 37.7557 81.0462 38.0739H81.2166V35.9091H84.2592V49.2131C84.2592 50.3324 83.9922 51.2585 83.4581 51.9915C82.924 52.7244 82.1939 53.2727 81.2678 53.6364C80.3416 54 79.2905 54.1818 78.1143 54.1818ZM78.1399 46.392C78.7933 46.392 79.3501 46.233 79.8104 45.9148C80.2706 45.5966 80.62 45.1392 80.8587 44.5426C81.0973 43.946 81.2166 43.2301 81.2166 42.3949C81.2166 41.571 81.0973 40.8494 80.8587 40.2301C80.6257 39.6108 80.2791 39.1307 79.8189 38.7898C79.3643 38.4432 78.8047 38.2699 78.1399 38.2699C77.4524 38.2699 76.8786 38.4489 76.4183 38.8068C75.9581 39.1648 75.6115 39.6562 75.3786 40.2812C75.1456 40.9006 75.0291 41.6051 75.0291 42.3949C75.0291 43.196 75.1456 43.8977 75.3786 44.5C75.6172 45.0966 75.9666 45.5625 76.4268 45.8977C76.8928 46.2273 77.4638 46.392 78.1399 46.392ZM93.2166 49.2557C91.9041 49.2557 90.7706 48.983 89.8161 48.4375C88.8672 47.8864 88.1371 47.108 87.6257 46.1023C87.1143 45.0909 86.8587 43.9006 86.8587 42.5312C86.8587 41.1847 87.1143 40.0028 87.6257 38.9858C88.1428 37.9631 88.8643 37.1676 89.7905 36.5994C90.7166 36.0256 91.8047 35.7386 93.0547 35.7386C93.8615 35.7386 94.6229 35.8693 95.3388 36.1307C96.0604 36.3864 96.6967 36.7841 97.2479 37.3239C97.8047 37.8636 98.2422 38.5511 98.5604 39.3864C98.8786 40.2159 99.0376 41.2045 99.0376 42.3523V43.2983H88.3075V41.2188H96.0803C96.0746 40.6278 95.9467 40.1023 95.6967 39.642C95.4467 39.1761 95.0973 38.8097 94.6484 38.5426C94.2053 38.2756 93.6882 38.142 93.0973 38.142C92.4666 38.142 91.9126 38.2955 91.4354 38.6023C90.9581 38.9034 90.5859 39.3011 90.3189 39.7955C90.0575 40.2841 89.924 40.821 89.9183 41.4062V43.2216C89.9183 43.983 90.0575 44.6364 90.3359 45.1818C90.6143 45.7216 91.0036 46.1364 91.5036 46.4261C92.0036 46.7102 92.5888 46.8523 93.2592 46.8523C93.7081 46.8523 94.1143 46.7898 94.478 46.6648C94.8416 46.5341 95.157 46.3438 95.424 46.0938C95.6911 45.8438 95.8928 45.5341 96.0291 45.1648L98.9098 45.4886C98.728 46.25 98.3814 46.9148 97.87 47.483C97.3643 48.0455 96.7166 48.483 95.9268 48.7955C95.1371 49.1023 94.2337 49.2557 93.2166 49.2557ZM104.733 41.3295V49H101.648V35.9091H104.597V38.1335H104.75C105.051 37.4006 105.531 36.8182 106.19 36.3864C106.855 35.9545 107.676 35.7386 108.653 35.7386C109.557 35.7386 110.344 35.9318 111.014 36.3182C111.69 36.7045 112.213 37.2642 112.582 37.9972C112.957 38.7301 113.142 39.6193 113.136 40.6648V49H110.051V41.142C110.051 40.267 109.824 39.5824 109.369 39.0881C108.92 38.5937 108.298 38.3466 107.503 38.3466C106.963 38.3466 106.483 38.4659 106.062 38.7045C105.648 38.9375 105.321 39.2756 105.082 39.7188C104.849 40.1619 104.733 40.6989 104.733 41.3295ZM122.81 35.9091V38.2955H115.284V35.9091H122.81ZM117.142 32.7727H120.227V45.0625C120.227 45.4773 120.29 45.7955 120.415 46.017C120.545 46.233 120.716 46.3807 120.926 46.4602C121.136 46.5398 121.369 46.5795 121.625 46.5795C121.818 46.5795 121.994 46.5653 122.153 46.5369C122.318 46.5085 122.443 46.483 122.528 46.4602L123.048 48.8722C122.884 48.929 122.648 48.9915 122.341 49.0597C122.04 49.1278 121.67 49.1676 121.233 49.179C120.46 49.2017 119.764 49.0852 119.145 48.8295C118.526 48.5682 118.034 48.1648 117.67 47.6193C117.313 47.0739 117.136 46.392 117.142 45.5739V32.7727ZM133.734 43.4943V35.9091H136.819V49H133.827V46.6733H133.691C133.396 47.4062 132.91 48.0057 132.234 48.4716C131.563 48.9375 130.737 49.1705 129.754 49.1705C128.896 49.1705 128.137 48.9801 127.478 48.5994C126.825 48.2131 126.313 47.6534 125.944 46.9205C125.575 46.1818 125.39 45.2898 125.39 44.2443V35.9091H128.475V43.767C128.475 44.5966 128.702 45.2557 129.157 45.7443C129.612 46.233 130.208 46.4773 130.947 46.4773C131.401 46.4773 131.842 46.3665 132.268 46.1449C132.694 45.9233 133.043 45.5938 133.316 45.1562C133.594 44.7131 133.734 44.1591 133.734 43.4943ZM139.991 49V35.9091H142.94V38.1335H143.094C143.366 37.3835 143.818 36.7983 144.449 36.3778C145.08 35.9517 145.832 35.7386 146.707 35.7386C147.594 35.7386 148.341 35.9545 148.949 36.3864C149.563 36.8125 149.994 37.3949 150.244 38.1335H150.381C150.67 37.4062 151.159 36.8267 151.847 36.3949C152.54 35.9574 153.361 35.7386 154.31 35.7386C155.514 35.7386 156.497 36.1193 157.259 36.8807C158.02 37.642 158.401 38.7528 158.401 40.2131V49H155.307V40.6903C155.307 39.8778 155.091 39.2841 154.659 38.9091C154.227 38.5284 153.699 38.3381 153.074 38.3381C152.33 38.3381 151.747 38.571 151.327 39.0369C150.912 39.4972 150.705 40.0966 150.705 40.8352V49H147.679V40.5625C147.679 39.8864 147.474 39.3466 147.065 38.9432C146.662 38.5398 146.134 38.3381 145.48 38.3381C145.037 38.3381 144.634 38.4517 144.27 38.679C143.906 38.9006 143.616 39.2159 143.401 39.625C143.185 40.0284 143.077 40.5 143.077 41.0398V49H139.991Z" fill="white"/>
<path d="M22.5357 44.791V47.5644H19.7613V44.791H22.5357Z" fill="white"/>
<path d="M22.5357 41.0801V43.8535H19.7613V41.0801H22.5357Z" fill="white"/>
<path d="M26.2607 44.791V47.5644H23.4868V44.791H26.2607Z" fill="white"/>
<path d="M26.2607 41.0801V43.8535H23.4868V41.0801H26.2607Z" fill="white"/>
<mask id="mask0_1366_19468" style="mask-type:luminance" maskUnits="userSpaceOnUse" x="4" y="17" width="38" height="24">
<path d="M4.10501 17.8359H41.917V40.3065H4.10501V17.8359Z" fill="white"/>
</mask>
<g mask="url(#mask0_1366_19468)">
<path d="M23.011 24.8725L38.3932 40.2514L41.9127 36.7333L23.011 17.8359L4.1098 36.7333L7.6288 40.2514L23.011 24.8725Z" fill="white"/>
</g>
<mask id="mask1_1366_19468" style="mask-type:luminance" maskUnits="userSpaceOnUse" x="6" y="42" width="34" height="21">
<path d="M6.25601 42.3916H39.744V62.1797H6.25601V42.3916Z" fill="white"/>
</mask>
<g mask="url(#mask1_1366_19468)">
<path d="M23.011 55.9826L36.559 42.4375L39.6583 45.5363L23.011 62.1801L6.36432 45.5363L9.46357 42.4375L23.011 55.9826Z" fill="white"/>
</g>
<path d="M33.8905 39.7702L23.011 28.8936L6.36429 45.5369L9.46354 48.6357L23.011 35.0911L30.7908 42.8694L33.8905 39.7702Z" fill="white"/>
</svg>
