<svg xmlns="http://www.w3.org/2000/svg" xmlns:xlink="http://www.w3.org/1999/xlink" width="1512" zoomAndPan="magnify" viewBox="0 0 1134 329.999987" height="440" preserveAspectRatio="xMidYMid meet" version="1.0"><defs><clipPath id="9afdda66b1"><path d="M 582 0 L 1133.382812 0 L 1133.382812 330 L 582 330 Z M 582 0 " clip-rule="nonzero"/></clipPath><clipPath id="216a31cf52"><path d="M 1133.382812 334.910156 L 641.507812 334.910156 L 582.007812 164.914062 L 641.507812 -4.90625 L 690.421875 -4.820312 L 999.9375 -4.472656 L 1133.382812 -4.90625 L 1133.382812 334.910156 " clip-rule="nonzero"/></clipPath><clipPath id="64491accc8"><path d="M 49.449219 133.738281 L 159.449219 133.738281 L 159.449219 139.398438 L 49.449219 139.398438 Z M 153.667969 139.398438 L 159.449219 139.398438 L 159.449219 228.671875 L 153.667969 228.671875 Z M 49.449219 139.398438 L 55.109375 139.398438 L 55.109375 228.671875 L 49.449219 228.671875 Z M 49.449219 228.671875 L 159.449219 228.671875 L 159.449219 234.453125 L 49.449219 234.453125 Z M 49.449219 228.671875 " clip-rule="nonzero"/></clipPath><clipPath id="a4adba451d"><path d="M 1047.96875 0 L 1053.75 0 L 1053.75 61.933594 L 1047.96875 61.933594 Z M 943.75 0 L 949.410156 0 L 949.410156 61.933594 L 943.75 61.933594 Z M 943.75 61.933594 L 1053.75 61.933594 L 1053.75 67.714844 L 943.75 67.714844 Z M 943.75 61.933594 " clip-rule="nonzero"/></clipPath><clipPath id="6ab28a8f23"><path d="M 0 95.546875 L 77.5 95.546875 L 77.5 99.757812 L 0 99.757812 Z M 73.199219 99.757812 L 77.5 99.757812 L 77.5 166.183594 L 73.199219 166.183594 Z M 0 166.183594 L 77.5 166.183594 L 77.5 170.484375 L 0 170.484375 Z M 0 166.183594 " clip-rule="nonzero"/></clipPath><clipPath id="197bfd4e01"><path d="M 1012.824219 30.246094 L 1094.675781 30.246094 L 1094.675781 34.457031 L 1012.824219 34.457031 Z M 1090.371094 34.457031 L 1094.675781 34.457031 L 1094.675781 100.882812 L 1090.371094 100.882812 Z M 1012.824219 34.457031 L 1017.039062 34.457031 L 1017.039062 100.882812 L 1012.824219 100.882812 Z M 1012.824219 100.882812 L 1094.675781 100.882812 L 1094.675781 105 L 1012.824219 105 Z M 1012.824219 100.882812 " clip-rule="nonzero"/></clipPath></defs><rect x="-113.4" width="1360.8" fill="#ffffff" y="-32.999999" height="395.999984" fill-opacity="1"/><rect x="-113.4" width="1360.8" fill="#ffffff" y="-32.999999" height="395.999984" fill-opacity="1"/><rect x="-113.4" width="1360.8" fill="#0080ff" y="-32.999999" height="395.999984" fill-opacity="1"/><g clip-path="url(#9afdda66b1)"><g clip-path="url(#216a31cf52)"><path fill="#0c40e8" d="M 1133.382812 -4.90625 L 1133.382812 335.085938 L 581.761719 335.085938 L 581.761719 -4.90625 Z M 1133.382812 -4.90625 " fill-opacity="1" fill-rule="nonzero"/></g></g><g clip-path="url(#64491accc8)"><path fill="#ffffff" d="M 49.449219 133.738281 L 159.652344 133.738281 L 159.652344 234.304688 L 49.449219 234.304688 Z M 49.449219 133.738281 " fill-opacity="1" fill-rule="nonzero"/></g><g clip-path="url(#a4adba451d)"><path fill="#0080ff" d="M 943.75 -113.785156 L 1053.949219 -113.785156 L 1053.949219 67.472656 L 943.75 67.472656 Z M 943.75 -113.785156 " fill-opacity="1" fill-rule="nonzero"/></g><g clip-path="url(#6ab28a8f23)"><path fill="#ffffff" d="M -4.347656 95.546875 L 77.5 95.546875 L 77.5 170.226562 L -4.347656 170.226562 Z M -4.347656 95.546875 " fill-opacity="1" fill-rule="nonzero"/></g><g clip-path="url(#197bfd4e01)"><path fill="#ffffff" d="M 1012.824219 30.246094 L 1094.675781 30.246094 L 1094.675781 104.925781 L 1012.824219 104.925781 Z M 1012.824219 30.246094 " fill-opacity="1" fill-rule="nonzero"/></g></svg>