<svg xmlns="http://www.w3.org/2000/svg" xmlns:xlink="http://www.w3.org/1999/xlink" width="1512" zoomAndPan="magnify" viewBox="0 0 1134 329.999987" height="440" preserveAspectRatio="xMidYMid meet" version="1.0"><defs><clipPath id="96f6c9a561"><path d="M 582 0 L 1133.382812 0 L 1133.382812 330 L 582 330 Z M 582 0 " clip-rule="nonzero"/></clipPath><clipPath id="e935640fec"><path d="M 1133.382812 334.910156 L 641.507812 334.910156 L 582.007812 164.914062 L 641.507812 -4.90625 L 690.421875 -4.820312 L 999.9375 -4.472656 L 1133.382812 -4.90625 L 1133.382812 334.910156 " clip-rule="nonzero"/></clipPath><clipPath id="6434187809"><path d="M 49.449219 133.738281 L 159.449219 133.738281 L 159.449219 139.398438 L 49.449219 139.398438 Z M 153.667969 139.398438 L 159.449219 139.398438 L 159.449219 228.671875 L 153.667969 228.671875 Z M 49.449219 139.398438 L 55.109375 139.398438 L 55.109375 228.671875 L 49.449219 228.671875 Z M 49.449219 228.671875 L 159.449219 228.671875 L 159.449219 234.453125 L 49.449219 234.453125 Z M 49.449219 228.671875 " clip-rule="nonzero"/></clipPath><clipPath id="7e52da069f"><path d="M 1047.96875 0 L 1053.75 0 L 1053.75 61.933594 L 1047.96875 61.933594 Z M 943.75 0 L 949.410156 0 L 949.410156 61.933594 L 943.75 61.933594 Z M 943.75 61.933594 L 1053.75 61.933594 L 1053.75 67.714844 L 943.75 67.714844 Z M 943.75 61.933594 " clip-rule="nonzero"/></clipPath><clipPath id="4062989ea0"><path d="M 0 95.546875 L 77.5 95.546875 L 77.5 99.757812 L 0 99.757812 Z M 73.199219 99.757812 L 77.5 99.757812 L 77.5 166.183594 L 73.199219 166.183594 Z M 0 166.183594 L 77.5 166.183594 L 77.5 170.484375 L 0 170.484375 Z M 0 166.183594 " clip-rule="nonzero"/></clipPath><clipPath id="abc64ed59f"><path d="M 1012.824219 30.246094 L 1094.675781 30.246094 L 1094.675781 34.457031 L 1012.824219 34.457031 Z M 1090.371094 34.457031 L 1094.675781 34.457031 L 1094.675781 100.882812 L 1090.371094 100.882812 Z M 1012.824219 34.457031 L 1017.039062 34.457031 L 1017.039062 100.882812 L 1012.824219 100.882812 Z M 1012.824219 100.882812 L 1094.675781 100.882812 L 1094.675781 105 L 1012.824219 105 Z M 1012.824219 100.882812 " clip-rule="nonzero"/></clipPath><clipPath id="fe58bf50b6"><path d="M 317.46875 0 L 323.25 0 L 323.25 80.460938 L 317.46875 80.460938 Z M 213.25 0 L 218.910156 0 L 218.910156 80.460938 L 213.25 80.460938 Z M 213.25 80.460938 L 323.25 80.460938 L 323.25 86.242188 L 213.25 86.242188 Z M 213.25 80.460938 " clip-rule="nonzero"/></clipPath><clipPath id="66033a7ad9"><path d="M 236.996094 0 L 241.300781 0 L 241.300781 17.972656 L 236.996094 17.972656 Z M 159.449219 0 L 163.660156 0 L 163.660156 17.972656 L 159.449219 17.972656 Z M 159.449219 17.972656 L 241.300781 17.972656 L 241.300781 22.273438 L 159.449219 22.273438 Z M 159.449219 17.972656 " clip-rule="nonzero"/></clipPath><clipPath id="9650a2ff00"><path d="M 247.960938 216.027344 L 357.960938 216.027344 L 357.960938 221.808594 L 247.960938 221.808594 Z M 352.300781 221.808594 L 357.960938 221.808594 L 357.960938 311.078125 L 352.300781 311.078125 Z M 247.960938 221.808594 L 253.742188 221.808594 L 253.742188 311.078125 L 247.960938 311.078125 Z M 247.960938 311.078125 L 357.960938 311.078125 L 357.960938 316.742188 L 247.960938 316.742188 Z M 247.960938 311.078125 " clip-rule="nonzero"/></clipPath><clipPath id="ae8d5c4ab8"><path d="M 329.914062 280 L 411.761719 280 L 411.761719 284.289062 L 329.914062 284.289062 Z M 407.550781 284.289062 L 411.761719 284.289062 L 411.761719 330 L 407.550781 330 Z M 329.914062 284.289062 L 334.214844 284.289062 L 334.214844 330 L 329.914062 330 Z M 329.914062 284.289062 " clip-rule="nonzero"/></clipPath></defs><rect x="-113.4" width="1360.8" fill="#ffffff" y="-32.999999" height="395.999984" fill-opacity="1"/><rect x="-113.4" width="1360.8" fill="#ffffff" y="-32.999999" height="395.999984" fill-opacity="1"/><rect x="-113.4" width="1360.8" fill="#0080ff" y="-32.999999" height="395.999984" fill-opacity="1"/><g clip-path="url(#96f6c9a561)"><g clip-path="url(#e935640fec)"><path fill="#0c40e8" d="M 1133.382812 -4.90625 L 1133.382812 335.085938 L 581.761719 335.085938 L 581.761719 -4.90625 Z M 1133.382812 -4.90625 " fill-opacity="1" fill-rule="nonzero"/></g></g><g clip-path="url(#6434187809)"><path fill="#ffffff" d="M 49.449219 133.738281 L 159.652344 133.738281 L 159.652344 234.304688 L 49.449219 234.304688 Z M 49.449219 133.738281 " fill-opacity="1" fill-rule="nonzero"/></g><g clip-path="url(#7e52da069f)"><path fill="#0080ff" d="M 943.75 -113.785156 L 1053.949219 -113.785156 L 1053.949219 67.472656 L 943.75 67.472656 Z M 943.75 -113.785156 " fill-opacity="1" fill-rule="nonzero"/></g><g clip-path="url(#4062989ea0)"><path fill="#0c40e8" d="M -4.347656 95.546875 L 77.5 95.546875 L 77.5 170.226562 L -4.347656 170.226562 Z M -4.347656 95.546875 " fill-opacity="1" fill-rule="nonzero"/></g><g clip-path="url(#abc64ed59f)"><path fill="#ffffff" d="M 1012.824219 30.246094 L 1094.675781 30.246094 L 1094.675781 104.925781 L 1012.824219 104.925781 Z M 1012.824219 30.246094 " fill-opacity="1" fill-rule="nonzero"/></g><g clip-path="url(#fe58bf50b6)"><path fill="#0c40e8" d="M 213.25 -14.472656 L 323.449219 -14.472656 L 323.449219 86.09375 L 213.25 86.09375 Z M 213.25 -14.472656 " fill-opacity="1" fill-rule="nonzero"/></g><g clip-path="url(#66033a7ad9)"><path fill="#ffffff" d="M 159.449219 -52.664062 L 241.300781 -52.664062 L 241.300781 22.015625 L 159.449219 22.015625 Z M 159.449219 -52.664062 " fill-opacity="1" fill-rule="nonzero"/></g><g clip-path="url(#9650a2ff00)"><path fill="#ffffff" d="M 357.960938 316.742188 L 247.761719 316.742188 L 247.761719 216.175781 L 357.960938 216.175781 Z M 357.960938 316.742188 " fill-opacity="1" fill-rule="nonzero"/></g><g clip-path="url(#ae8d5c4ab8)"><path fill="#0c40e8" d="M 411.761719 354.925781 L 329.914062 354.925781 L 329.914062 280.246094 L 411.761719 280.246094 Z M 411.761719 354.925781 " fill-opacity="1" fill-rule="nonzero"/></g></svg>