<svg width="39" height="39" viewBox="0 0 39 39" fill="none" xmlns="http://www.w3.org/2000/svg">
<rect opacity="0.25" x="0.5" y="0.5" width="38" height="38" rx="19" stroke="white"/>
<path fill-rule="evenodd" clip-rule="evenodd" d="M19.3122 16.9262L19.3404 17.402L18.8708 17.3437C17.1612 17.1204 15.6677 16.363 14.3996 15.091L13.7796 14.4599L13.62 14.926C13.2818 15.9649 13.4978 17.0621 14.2023 17.8001C14.5781 18.2079 14.4935 18.2661 13.8454 18.0234C13.62 17.9457 13.4227 17.8874 13.4039 17.9166C13.3382 17.9845 13.5636 18.8681 13.7421 19.2177C13.9863 19.7032 14.4841 20.179 15.0289 20.4605L15.4892 20.6839L14.9444 20.6936C14.4184 20.6936 14.3996 20.7033 14.4559 20.9072C14.6438 21.5383 15.3859 22.2083 16.2125 22.4996L16.7949 22.7035L16.2876 23.0142C15.5362 23.4609 14.6532 23.7133 13.7702 23.7328C13.3475 23.7425 13 23.7813 13 23.8104C13 23.9075 14.146 24.4513 14.8129 24.6649C16.8136 25.296 19.1901 25.0242 20.9748 23.9464C22.2429 23.1793 23.511 21.6549 24.1028 20.179C24.4222 19.3925 24.7415 17.9554 24.7415 17.266C24.7415 16.8194 24.7697 16.7611 25.2957 16.2271C25.6057 15.9164 25.8969 15.5765 25.9532 15.4794C26.0472 15.2949 26.0378 15.2949 25.5587 15.46C24.7603 15.7513 24.6476 15.7124 25.0421 15.2755C25.3333 14.9648 25.6808 14.4016 25.6808 14.2366C25.6808 14.2074 25.5399 14.256 25.3803 14.3434C25.2112 14.4405 24.8355 14.5861 24.5537 14.6735L24.0464 14.8386L23.5862 14.5181C23.3325 14.3434 22.9756 14.1492 22.7877 14.0909C22.3087 13.955 21.576 13.9744 21.1439 14.1297C19.9698 14.5667 19.2277 15.693 19.3122 16.9262Z" fill="white"/>
</svg>
