<svg width="39" height="39" viewBox="0 0 39 39" fill="none" xmlns="http://www.w3.org/2000/svg">
<rect opacity="0.25" x="0.5" y="0.5" width="38" height="38" rx="19" stroke="white"/>
<path fill-rule="evenodd" clip-rule="evenodd" d="M16 26H13V17H16V26V26Z" fill="white"/>
<path fill-rule="evenodd" clip-rule="evenodd" d="M14.4911 15H14.474C13.5788 15 13 14.333 13 13.4995C13 12.6483 13.5964 12 14.5087 12C15.4209 12 15.9827 12.6483 16 13.4995C16 14.333 15.4209 15 14.4911 15V15Z" fill="white"/>
<path fill-rule="evenodd" clip-rule="evenodd" d="M26.9999 25.9998H24.0519V21.2954C24.0519 20.1137 23.6253 19.3074 22.5581 19.3074C21.7437 19.3074 21.2586 19.851 21.0455 20.376C20.9675 20.5641 20.9484 20.8263 20.9484 21.0891V26H18C18 26 18.0389 18.0318 18 17.2067H20.9484V18.4522C21.3397 17.8535 22.0405 17 23.6057 17C25.5456 17 27 18.2571 27 20.958L26.9999 25.9998V25.9998Z" fill="white"/>
</svg>
