<svg width="28" height="19" viewBox="0 0 28 19" fill="none" xmlns="http://www.w3.org/2000/svg">
<path d="M0.5 1.34325C0.5 0.60075 1.1021 0 1.84325 0H12.6568C13.013 1.06171e-08 13.3547 0.14152 13.6066 0.393429C13.8585 0.645337 14 0.986998 14 1.34325C14 1.6995 13.8585 2.04116 13.6066 2.29307C13.3547 2.54498 13.013 2.6865 12.6568 2.6865H1.84325C1.487 2.6865 1.14534 2.54498 0.893429 2.29307C0.641521 2.04116 0.5 1.6995 0.5 1.34325ZM0.5 9.45C0.5 8.7075 1.1021 8.10675 1.84325 8.10675H26.1567C26.513 8.10675 26.8547 8.24827 27.1066 8.50018C27.3585 8.75209 27.5 9.09375 27.5 9.45C27.5 9.80625 27.3585 10.1479 27.1066 10.3998C26.8547 10.6517 26.513 10.7933 26.1567 10.7933H1.84325C1.487 10.7933 1.14534 10.6517 0.893429 10.3998C0.641521 10.1479 0.5 9.80625 0.5 9.45ZM1.84325 16.2135C1.487 16.2135 1.14534 16.355 0.893429 16.6069C0.641521 16.8588 0.5 17.2005 0.5 17.5567C0.5 17.913 0.641521 18.2547 0.893429 18.5066C1.14534 18.7585 1.487 18.9 1.84325 18.9H18.0568C18.413 18.9 18.7547 18.7585 19.0066 18.5066C19.2585 18.2547 19.4 17.913 19.4 17.5567C19.4 17.2005 19.2585 16.8588 19.0066 16.6069C18.7547 16.355 18.413 16.2135 18.0568 16.2135H1.84325Z" fill="white"/>
</svg>
