<svg width="23" height="22" viewBox="0 0 23 22" fill="none" xmlns="http://www.w3.org/2000/svg">
<path d="M7.77222 10.7556L4.80833 7.82222L6.09167 6.53889L7.74167 8.18889L10.7972 5.13333L12.0806 6.41667L7.77222 10.7556ZM20.7889 22L13.0889 14.3C12.4778 14.7889 11.775 15.1759 10.9806 15.4611C10.1861 15.7463 9.34074 15.8889 8.44444 15.8889C6.22407 15.8889 4.34511 15.1197 2.80756 13.5813C1.27 12.043 0.500815 10.164 0.5 7.94444C0.5 5.72407 1.26919 3.84511 2.80756 2.30756C4.34593 0.77 6.22489 0.000814815 8.44444 0C10.6648 0 12.5438 0.769185 14.0813 2.30756C15.6189 3.84593 16.3881 5.72489 16.3889 7.94444C16.3889 8.84074 16.2463 9.68611 15.9611 10.4806C15.6759 11.275 15.2889 11.9778 14.8 12.5889L22.5 20.2889L20.7889 22ZM8.44444 13.4444C9.97222 13.4444 11.271 12.9095 12.3409 11.8397C13.4107 10.7698 13.9453 9.47141 13.9444 7.94444C13.9444 6.41667 13.4095 5.11785 12.3397 4.048C11.2698 2.97815 9.97141 2.44363 8.44444 2.44444C6.91667 2.44444 5.61785 2.97937 4.548 4.04922C3.47815 5.11907 2.94363 6.41748 2.94444 7.94444C2.94444 9.47222 3.47937 10.771 4.54922 11.8409C5.61907 12.9107 6.91748 13.4453 8.44444 13.4444Z" fill="white"/>
</svg>
