<svg width="65" height="65" viewBox="0 0 65 65" fill="none" xmlns="http://www.w3.org/2000/svg">
<path d="M6.5 10.8333V8.66667C5.9993 8.66697 5.51416 8.84068 5.12706 9.15825C4.73996 9.47583 4.4748 9.91768 4.37667 10.4087L6.5 10.8333ZM58.5 10.8333L60.6233 10.4087C60.5252 9.91768 60.26 9.47583 59.8729 9.15825C59.4858 8.84068 59.0007 8.66697 58.5 8.66667V10.8333ZM62.8333 32.5V34.6667C63.1538 34.6665 63.4702 34.5952 63.7597 34.458C64.0493 34.3208 64.3048 34.1211 64.5079 33.8732C64.711 33.6254 64.8566 33.3356 64.9342 33.0247C65.0118 32.7138 65.0195 32.3896 64.9567 32.0753L62.8333 32.5ZM2.16667 32.5L0.0433333 32.0753C-0.0194712 32.3896 -0.0117995 32.7138 0.0657956 33.0247C0.143391 33.3356 0.288977 33.6254 0.492067 33.8732C0.695156 34.1211 0.950692 34.3208 1.24026 34.458C1.52984 34.5952 1.84624 34.6665 2.16667 34.6667V32.5ZM15.1667 45.5H13V47.6667H15.1667V45.5ZM49.8333 45.5V47.6667H52V45.5H49.8333ZM0 65H65V60.6667H0V65ZM4.33333 32.5V62.8333H8.66667V32.5H4.33333ZM56.3333 32.5V62.8333H60.6667V32.5H56.3333ZM6.5 13H58.5V8.66667H6.5V13ZM56.3767 11.258L60.71 32.9247L64.9567 32.0753L60.6233 10.4087L56.3767 11.258ZM62.8333 30.3333H2.16667V34.6667H62.8333V30.3333ZM4.29 32.9247L8.62333 11.258L4.37667 10.4087L0.0433333 32.0753L4.29 32.9247ZM4.33333 4.33333H60.6667V0H4.33333V4.33333ZM13 32.5V45.5H17.3333V32.5H13ZM15.1667 47.6667H49.8333V43.3333H15.1667V47.6667ZM52 45.5V32.5H47.6667V45.5H52Z" fill="#0C40E8"/>
<path d="M6.5 10.8333V8.66667C5.9993 8.66697 5.51416 8.84068 5.12706 9.15825C4.73996 9.47583 4.4748 9.91768 4.37667 10.4087L6.5 10.8333ZM58.5 10.8333L60.6233 10.4087C60.5252 9.91768 60.26 9.47583 59.8729 9.15825C59.4858 8.84068 59.0007 8.66697 58.5 8.66667V10.8333ZM62.8333 32.5V34.6667C63.1538 34.6665 63.4702 34.5952 63.7597 34.458C64.0493 34.3208 64.3048 34.1211 64.5079 33.8732C64.711 33.6254 64.8566 33.3356 64.9342 33.0247C65.0118 32.7138 65.0195 32.3896 64.9567 32.0753L62.8333 32.5ZM2.16667 32.5L0.0433333 32.0753C-0.0194712 32.3896 -0.0117995 32.7138 0.0657956 33.0247C0.143391 33.3356 0.288977 33.6254 0.492067 33.8732C0.695156 34.1211 0.950692 34.3208 1.24026 34.458C1.52984 34.5952 1.84624 34.6665 2.16667 34.6667V32.5ZM15.1667 45.5H13V47.6667H15.1667V45.5ZM49.8333 45.5V47.6667H52V45.5H49.8333ZM0 65H65V60.6667H0V65ZM4.33333 32.5V62.8333H8.66667V32.5H4.33333ZM56.3333 32.5V62.8333H60.6667V32.5H56.3333ZM6.5 13H58.5V8.66667H6.5V13ZM56.3767 11.258L60.71 32.9247L64.9567 32.0753L60.6233 10.4087L56.3767 11.258ZM62.8333 30.3333H2.16667V34.6667H62.8333V30.3333ZM4.29 32.9247L8.62333 11.258L4.37667 10.4087L0.0433333 32.0753L4.29 32.9247ZM4.33333 4.33333H60.6667V0H4.33333V4.33333ZM13 32.5V45.5H17.3333V32.5H13ZM15.1667 47.6667H49.8333V43.3333H15.1667V47.6667ZM52 45.5V32.5H47.6667V45.5H52Z" fill="#0C40E8"/>
</svg>
