<svg width="720" height="720" viewBox="0 0 720 720" fill="none" xmlns="http://www.w3.org/2000/svg">
<g clip-path="url(#clip0_672_48725)">
<path d="M792 -72H-72V792H792V-72Z" fill="white"/>
<path d="M792 -72H-72V792H792V-72Z" fill="white"/>
<mask id="mask0_672_48725" style="mask-type:luminance" maskUnits="userSpaceOnUse" x="360" y="0" width="360" height="720">
<path d="M360 0H720V720H360V0Z" fill="white"/>
</mask>
<g mask="url(#mask0_672_48725)">
<path d="M360 0H720V720H360V0Z" fill="#48C5B7"/>
</g>
<mask id="mask1_672_48725" style="mask-type:luminance" maskUnits="userSpaceOnUse" x="360" y="0" width="360" height="720">
<path d="M360 0H720V720H360V0Z" fill="white"/>
</mask>
<g mask="url(#mask1_672_48725)">
<mask id="mask2_672_48725" style="mask-type:luminance" maskUnits="userSpaceOnUse" x="360" y="0" width="360" height="720">
<path d="M720 720H360V0L720 720Z" fill="white"/>
</mask>
<g mask="url(#mask2_672_48725)">
<path d="M360 0H719.888V719.775H360V0Z" fill="#FFDF2B"/>
</g>
</g>
<mask id="mask3_672_48725" style="mask-type:luminance" maskUnits="userSpaceOnUse" x="0" y="0" width="360" height="720">
<path d="M0 0H360V720H0V0Z" fill="white"/>
</mask>
<g mask="url(#mask3_672_48725)">
<path d="M0 0H360V720H0V0Z" fill="#1740C7"/>
</g>
<path d="M77.842 253.64H86.392C90.4795 253.64 93.9295 255.065 96.742 257.84C99.6295 260.652 101.092 264.14 101.092 268.34C101.092 272.54 99.6295 276.065 96.742 278.84C93.9295 281.652 90.4795 283.04 86.392 283.04H77.842V253.64ZM84.592 277.04H85.642C88.042 277.04 89.992 276.252 91.492 274.64C93.067 272.952 93.892 270.852 93.892 268.34C93.892 265.865 93.067 263.802 91.492 262.19C89.992 260.502 88.042 259.64 85.642 259.64H84.592V277.04Z" fill="#ECEBEB"/>
<path d="M122.506 274.79H109.306C109.306 276.103 109.681 277.04 110.506 277.64C111.406 278.24 112.306 278.54 113.206 278.54C114.293 278.54 115.081 278.465 115.606 278.24C116.206 277.94 116.881 277.415 117.706 276.59L122.206 278.84C120.293 282.065 117.143 283.64 112.756 283.64C110.056 283.64 107.693 282.703 105.706 280.79C103.681 278.915 102.706 276.665 102.706 274.04C102.706 271.34 103.681 269.053 105.706 267.14C107.693 265.265 110.056 264.29 112.756 264.29C115.643 264.29 118.006 265.153 119.806 266.84C121.606 268.453 122.506 270.815 122.506 273.89C122.506 274.415 122.506 274.715 122.506 274.79ZM109.456 271.34H116.356C116.243 270.365 115.906 269.615 115.306 269.09C114.706 268.603 113.881 268.34 112.906 268.34C111.893 268.34 111.106 268.64 110.506 269.24C109.906 269.765 109.531 270.44 109.456 271.34Z" fill="#ECEBEB"/>
<path d="M126.525 264.74V257.99H132.825V264.74H136.725V269.54H132.825V275.39C132.825 277.115 133.312 277.94 134.325 277.94C134.512 277.94 134.7 277.902 134.925 277.79C135.225 277.715 135.45 277.602 135.675 277.49L135.825 277.34L137.475 282.44C136.05 283.227 134.512 283.64 132.825 283.64C131.625 283.64 130.575 283.415 129.675 283.04C128.85 282.552 128.212 281.952 127.725 281.24C127.312 280.565 127.012 279.852 126.825 279.14C126.6 278.352 126.525 277.49 126.525 276.59V269.54H123.975V264.74H126.525Z" fill="#ECEBEB"/>
<path d="M140.705 280.79C138.98 278.915 138.155 276.59 138.155 273.89C138.155 271.19 138.98 268.94 140.705 267.14C142.505 265.265 144.68 264.29 147.305 264.29C149.705 264.29 151.693 265.04 153.305 266.54V264.74H159.605V283.04H153.305V280.94C151.693 282.74 149.705 283.64 147.305 283.64C144.68 283.64 142.505 282.703 140.705 280.79ZM146.105 270.89C145.28 271.715 144.905 272.765 144.905 274.04C144.905 275.24 145.28 276.253 146.105 277.04C146.893 277.865 147.905 278.24 149.105 278.24C150.38 278.24 151.43 277.865 152.255 277.04C153.043 276.253 153.455 275.203 153.455 273.89C153.455 272.69 153.005 271.715 152.105 270.89C151.28 270.103 150.305 269.69 149.105 269.69C147.905 269.69 146.893 270.103 146.105 270.89Z" fill="#ECEBEB"/>
<path d="M164.366 254.69C165.153 253.902 166.053 253.49 167.066 253.49C168.041 253.49 168.903 253.902 169.616 254.69C170.403 255.402 170.816 256.265 170.816 257.24C170.816 258.252 170.403 259.152 169.616 259.94C168.903 260.652 168.041 260.99 167.066 260.99C166.053 260.99 165.153 260.652 164.366 259.94C163.653 259.152 163.316 258.252 163.316 257.24C163.316 256.265 163.653 255.402 164.366 254.69ZM163.766 264.74V283.04H170.066V264.74H163.766Z" fill="#ECEBEB"/>
<path d="M174.493 283.04V252.44H180.793V283.04H174.493Z" fill="#ECEBEB"/>
<path d="M96.592 308.58C98.2795 310.38 99.142 312.63 99.142 315.33C99.142 318.03 98.2795 320.355 96.592 322.23C94.867 324.142 92.7295 325.08 90.142 325.08C87.742 325.08 85.717 324.292 84.142 322.68V333.78H77.842V306.18H84.142V308.28C85.717 306.592 87.742 305.73 90.142 305.73C92.7295 305.73 94.867 306.705 96.592 308.58ZM91.342 318.48C92.1295 317.692 92.542 316.68 92.542 315.48C92.542 314.205 92.1295 313.155 91.342 312.33C90.517 311.542 89.467 311.13 88.192 311.13C86.992 311.13 85.9795 311.542 85.192 312.33C84.367 313.155 83.992 314.13 83.992 315.33C83.992 316.642 84.367 317.692 85.192 318.48C86.092 319.305 87.067 319.68 88.192 319.68C89.467 319.68 90.517 319.305 91.342 318.48Z" fill="#ECEBEB"/>
<path d="M102.102 324.48V306.18H108.402V308.88H108.552C108.552 308.805 108.59 308.692 108.702 308.58C108.777 308.392 109.002 308.13 109.302 307.83C109.677 307.455 110.09 307.08 110.502 306.78C110.877 306.48 111.402 306.255 112.002 306.03C112.677 305.842 113.39 305.73 114.102 305.73C114.777 305.73 115.452 305.842 116.052 306.03C116.727 306.255 117.252 306.442 117.552 306.63L118.002 306.78L115.452 312.18C114.627 311.505 113.54 311.13 112.152 311.13C111.327 311.13 110.69 311.355 110.202 311.73C109.677 312.03 109.302 312.442 109.002 312.93C108.777 313.342 108.627 313.755 108.552 314.13C108.44 314.43 108.402 314.692 108.402 314.88V324.48H102.102Z" fill="#ECEBEB"/>
<path d="M121.441 322.38C119.416 320.58 118.441 318.292 118.441 315.48C118.441 312.592 119.491 310.23 121.591 308.43C123.766 306.63 126.429 305.73 129.541 305.73C132.541 305.73 135.091 306.63 137.191 308.43C139.291 310.23 140.341 312.555 140.341 315.33C140.341 318.142 139.291 320.505 137.191 322.38C135.166 324.18 132.616 325.08 129.541 325.08C126.241 325.08 123.541 324.18 121.441 322.38ZM126.391 312.33C125.566 313.155 125.191 314.205 125.191 315.48C125.191 316.68 125.566 317.692 126.391 318.48C127.179 319.305 128.191 319.68 129.391 319.68C130.666 319.68 131.716 319.305 132.541 318.48C133.329 317.692 133.741 316.642 133.741 315.33C133.741 314.13 133.291 313.155 132.391 312.33C131.566 311.542 130.591 311.13 129.391 311.13C128.191 311.13 127.179 311.542 126.391 312.33Z" fill="#ECEBEB"/>
<path d="M162.02 308.58C163.708 310.38 164.57 312.63 164.57 315.33C164.57 318.03 163.708 320.355 162.02 322.23C160.295 324.142 158.158 325.08 155.57 325.08C153.17 325.08 151.145 324.292 149.57 322.68V333.78H143.27V306.18H149.57V308.28C151.145 306.592 153.17 305.73 155.57 305.73C158.158 305.73 160.295 306.705 162.02 308.58ZM156.77 318.48C157.558 317.692 157.97 316.68 157.97 315.48C157.97 314.205 157.558 313.155 156.77 312.33C155.945 311.542 154.895 311.13 153.62 311.13C152.42 311.13 151.408 311.542 150.62 312.33C149.795 313.155 149.42 314.13 149.42 315.33C149.42 316.642 149.795 317.692 150.62 318.48C151.52 319.305 152.495 319.68 153.62 319.68C154.895 319.68 155.945 319.305 156.77 318.48Z" fill="#ECEBEB"/>
<path d="M185.981 316.23H172.781C172.781 317.542 173.156 318.48 173.981 319.08C174.881 319.68 175.781 319.98 176.681 319.98C177.768 319.98 178.556 319.905 179.081 319.68C179.681 319.38 180.356 318.855 181.181 318.03L185.681 320.28C183.768 323.505 180.618 325.08 176.231 325.08C173.531 325.08 171.168 324.142 169.181 322.23C167.156 320.355 166.181 318.105 166.181 315.48C166.181 312.78 167.156 310.492 169.181 308.58C171.168 306.705 173.531 305.73 176.231 305.73C179.118 305.73 181.481 306.592 183.281 308.28C185.081 309.892 185.981 312.255 185.981 315.33C185.981 315.855 185.981 316.155 185.981 316.23ZM172.931 312.78H179.831C179.718 311.805 179.381 311.055 178.781 310.53C178.181 310.042 177.356 309.78 176.381 309.78C175.368 309.78 174.581 310.08 173.981 310.68C173.381 311.205 173.006 311.88 172.931 312.78Z" fill="#ECEBEB"/>
<path d="M188.949 324.48V306.18H195.249V308.88H195.399C195.399 308.805 195.437 308.692 195.549 308.58C195.624 308.392 195.849 308.13 196.149 307.83C196.524 307.455 196.937 307.08 197.349 306.78C197.724 306.48 198.249 306.255 198.849 306.03C199.524 305.842 200.237 305.73 200.949 305.73C201.624 305.73 202.299 305.842 202.899 306.03C203.574 306.255 204.099 306.442 204.399 306.63L204.849 306.78L202.299 312.18C201.474 311.505 200.387 311.13 198.999 311.13C198.174 311.13 197.537 311.355 197.049 311.73C196.524 312.03 196.149 312.442 195.849 312.93C195.624 313.342 195.474 313.755 195.399 314.13C195.287 314.43 195.249 314.692 195.249 314.88V324.48H188.949Z" fill="#ECEBEB"/>
<path d="M207.688 306.18V299.43H213.988V306.18H217.888V310.98H213.988V316.83C213.988 318.555 214.476 319.38 215.488 319.38C215.676 319.38 215.863 319.342 216.088 319.23C216.388 319.155 216.613 319.042 216.838 318.93L216.988 318.78L218.638 323.88C217.213 324.667 215.676 325.08 213.988 325.08C212.788 325.08 211.738 324.855 210.838 324.48C210.013 323.992 209.376 323.392 208.888 322.68C208.476 322.005 208.176 321.292 207.988 320.58C207.763 319.792 207.688 318.93 207.688 318.03V310.98H205.138V306.18H207.688Z" fill="#ECEBEB"/>
<path d="M221.269 296.13C222.056 295.342 222.956 294.93 223.969 294.93C224.944 294.93 225.806 295.342 226.519 296.13C227.306 296.842 227.719 297.705 227.719 298.68C227.719 299.692 227.306 300.592 226.519 301.38C225.806 302.092 224.944 302.43 223.969 302.43C222.956 302.43 222.056 302.092 221.269 301.38C220.556 300.592 220.219 299.692 220.219 298.68C220.219 297.705 220.556 296.842 221.269 296.13ZM220.669 306.18V324.48H226.969V306.18H220.669Z" fill="#ECEBEB"/>
<path d="M91.642 347.62H98.992L84.592 375.22H77.392L83.692 363.07L74.992 347.62H82.342L87.292 357.07L91.642 347.62Z" fill="#ECEBEB"/>
<path d="M101.526 363.67C99.8013 361.795 98.9763 359.47 98.9763 356.77C98.9763 354.07 99.8013 351.82 101.526 350.02C103.326 348.145 105.501 347.17 108.126 347.17C110.526 347.17 112.514 347.92 114.126 349.42V347.62H120.426V365.92H114.126V363.82C112.514 365.62 110.526 366.52 108.126 366.52C105.501 366.52 103.326 365.582 101.526 363.67ZM106.926 353.77C106.101 354.595 105.726 355.645 105.726 356.92C105.726 358.12 106.101 359.132 106.926 359.92C107.714 360.745 108.726 361.12 109.926 361.12C111.201 361.12 112.251 360.745 113.076 359.92C113.864 359.132 114.276 358.082 114.276 356.77C114.276 355.57 113.826 354.595 112.926 353.77C112.101 352.982 111.126 352.57 109.926 352.57C108.726 352.57 107.714 352.982 106.926 353.77Z" fill="#ECEBEB"/>
<path d="M124.587 365.92V347.62H130.887V349.57H131.037C132.612 347.995 134.337 347.17 136.137 347.17C137.037 347.17 137.937 347.32 138.837 347.62C139.737 347.845 140.562 348.182 141.387 348.67C142.287 349.195 142.962 349.87 143.487 350.77C143.974 351.67 144.237 352.72 144.237 353.92V365.92H137.937V355.57C137.937 354.67 137.637 353.882 137.037 353.17C136.437 352.495 135.612 352.12 134.637 352.12C133.737 352.12 132.874 352.495 132.087 353.17C131.262 353.882 130.887 354.67 130.887 355.57V365.92H124.587Z" fill="#ECEBEB"/>
<path d="M147.316 370.42L152.416 367.87C153.391 369.445 155.041 370.27 157.366 370.27C158.453 370.27 159.466 369.895 160.366 369.22C161.341 368.507 161.866 367.42 161.866 365.92V364.57C160.741 365.882 158.753 366.52 155.866 366.52C153.241 366.52 151.066 365.582 149.266 363.67C147.541 361.795 146.716 359.47 146.716 356.77C146.716 354.07 147.541 351.82 149.266 350.02C151.066 348.145 153.241 347.17 155.866 347.17C158.153 347.17 160.103 347.882 161.716 349.27H161.866V347.62H168.166V366.37C168.166 369.37 167.153 371.657 165.166 373.27C163.141 374.845 160.553 375.67 157.366 375.67C152.153 375.67 148.816 373.907 147.316 370.42ZM154.666 353.77C153.841 354.595 153.466 355.645 153.466 356.92C153.466 358.12 153.841 359.132 154.666 359.92C155.453 360.745 156.466 361.12 157.666 361.12C158.941 361.12 159.991 360.745 160.816 359.92C161.603 359.132 162.016 358.082 162.016 356.77C162.016 355.57 161.566 354.595 160.666 353.77C159.841 352.982 158.866 352.57 157.666 352.57C156.466 352.57 155.453 352.982 154.666 353.77Z" fill="#ECEBEB"/>
<path d="M77.842 417.36V386.76H84.142V417.36H77.842Z" fill="#ECEBEB"/>
<path d="M106.842 409.11H93.6416C93.6416 410.422 94.0166 411.36 94.8416 411.96C95.7416 412.56 96.6416 412.86 97.5416 412.86C98.6291 412.86 99.4166 412.785 99.9416 412.56C100.542 412.26 101.217 411.735 102.042 410.91L106.542 413.16C104.629 416.385 101.479 417.96 97.0916 417.96C94.3916 417.96 92.0291 417.022 90.0416 415.11C88.0166 413.235 87.0416 410.985 87.0416 408.36C87.0416 405.66 88.0166 403.372 90.0416 401.46C92.0291 399.585 94.3916 398.61 97.0916 398.61C99.9791 398.61 102.342 399.472 104.142 401.16C105.942 402.772 106.842 405.135 106.842 408.21C106.842 408.735 106.842 409.035 106.842 409.11ZM93.7916 405.66H100.692C100.579 404.685 100.242 403.935 99.6416 403.41C99.0416 402.922 98.2166 402.66 97.2416 402.66C96.2291 402.66 95.4416 402.96 94.8416 403.56C94.2416 404.085 93.8666 404.76 93.7916 405.66Z" fill="#ECEBEB"/>
<path d="M109.81 417.36V399.06H116.11V401.01H116.26C117.835 399.435 119.56 398.61 121.36 398.61C122.26 398.61 123.16 398.76 124.06 399.06C124.96 399.285 125.785 399.622 126.61 400.11C127.51 400.635 128.185 401.31 128.71 402.21C129.198 403.11 129.46 404.16 129.46 405.36V417.36H123.16V407.01C123.16 406.11 122.86 405.322 122.26 404.61C121.66 403.935 120.835 403.56 119.86 403.56C118.96 403.56 118.098 403.935 117.31 404.61C116.485 405.322 116.11 406.11 116.11 407.01V417.36H109.81Z" fill="#ECEBEB"/>
<path d="M132.539 421.86L137.639 419.31C138.614 420.885 140.264 421.71 142.589 421.71C143.677 421.71 144.689 421.335 145.589 420.66C146.564 419.947 147.089 418.86 147.089 417.36V416.01C145.964 417.322 143.977 417.96 141.089 417.96C138.464 417.96 136.289 417.022 134.489 415.11C132.764 413.235 131.939 410.91 131.939 408.21C131.939 405.51 132.764 403.26 134.489 401.46C136.289 399.585 138.464 398.61 141.089 398.61C143.377 398.61 145.327 399.322 146.939 400.71H147.089V399.06H153.389V417.81C153.389 420.81 152.377 423.097 150.389 424.71C148.364 426.285 145.777 427.11 142.589 427.11C137.377 427.11 134.039 425.347 132.539 421.86ZM139.889 405.21C139.064 406.035 138.689 407.085 138.689 408.36C138.689 409.56 139.064 410.572 139.889 411.36C140.677 412.185 141.689 412.56 142.889 412.56C144.164 412.56 145.214 412.185 146.039 411.36C146.827 410.572 147.239 409.522 147.239 408.21C147.239 407.01 146.789 406.035 145.889 405.21C145.064 404.422 144.089 404.01 142.889 404.01C141.689 404.01 140.677 404.422 139.889 405.21Z" fill="#ECEBEB"/>
<path d="M178.4 399.06L169.699 407.76L179.3 417.36H171.2L163.849 410.01V417.36H157.549V386.76H163.849V405.51L170.3 399.06H178.4Z" fill="#ECEBEB"/>
<path d="M181.696 415.11C179.971 413.235 179.146 410.91 179.146 408.21C179.146 405.51 179.971 403.26 181.696 401.46C183.496 399.585 185.671 398.61 188.296 398.61C190.696 398.61 192.683 399.36 194.296 400.86V399.06H200.596V417.36H194.296V415.26C192.683 417.06 190.696 417.96 188.296 417.96C185.671 417.96 183.496 417.022 181.696 415.11ZM187.096 405.21C186.271 406.035 185.896 407.085 185.896 408.36C185.896 409.56 186.271 410.572 187.096 411.36C187.883 412.185 188.896 412.56 190.096 412.56C191.371 412.56 192.421 412.185 193.246 411.36C194.033 410.572 194.446 409.522 194.446 408.21C194.446 407.01 193.996 406.035 193.096 405.21C192.271 404.422 191.296 404.01 190.096 404.01C188.896 404.01 187.883 404.422 187.096 405.21Z" fill="#ECEBEB"/>
<path d="M223.506 401.46C225.193 403.26 226.056 405.51 226.056 408.21C226.056 410.91 225.193 413.235 223.506 415.11C221.781 417.022 219.643 417.96 217.056 417.96C214.656 417.96 212.631 417.172 211.056 415.56V426.66H204.756V399.06H211.056V401.16C212.631 399.472 214.656 398.61 217.056 398.61C219.643 398.61 221.781 399.585 223.506 401.46ZM218.256 411.36C219.043 410.572 219.456 409.56 219.456 408.36C219.456 407.085 219.043 406.035 218.256 405.21C217.431 404.422 216.381 404.01 215.106 404.01C213.906 404.01 212.893 404.422 212.106 405.21C211.281 406.035 210.906 407.01 210.906 408.21C210.906 409.522 211.281 410.572 212.106 411.36C213.006 412.185 213.981 412.56 215.106 412.56C216.381 412.56 217.431 412.185 218.256 411.36Z" fill="#ECEBEB"/>
<path d="M79.042 456.55C77.317 454.675 76.492 452.35 76.492 449.65C76.492 446.95 77.317 444.7 79.042 442.9C80.842 441.025 83.017 440.05 85.642 440.05C88.042 440.05 90.0295 440.8 91.642 442.3V428.2H97.942V458.8H91.642V456.7C90.0295 458.5 88.042 459.4 85.642 459.4C83.017 459.4 80.842 458.462 79.042 456.55ZM84.442 446.65C83.617 447.475 83.242 448.525 83.242 449.8C83.242 451 83.617 452.012 84.442 452.8C85.2295 453.625 86.242 454 87.442 454C88.717 454 89.767 453.625 90.592 452.8C91.3795 452.012 91.792 450.962 91.792 449.65C91.792 448.45 91.342 447.475 90.442 446.65C89.617 445.862 88.642 445.45 87.442 445.45C86.242 445.45 85.2295 445.862 84.442 446.65Z" fill="#ECEBEB"/>
<path d="M103.302 456.55C101.577 454.675 100.752 452.35 100.752 449.65C100.752 446.95 101.577 444.7 103.302 442.9C105.102 441.025 107.277 440.05 109.902 440.05C112.302 440.05 114.29 440.8 115.902 442.3V440.5H122.202V458.8H115.902V456.7C114.29 458.5 112.302 459.4 109.902 459.4C107.277 459.4 105.102 458.463 103.302 456.55ZM108.702 446.65C107.877 447.475 107.502 448.525 107.502 449.8C107.502 451 107.877 452.013 108.702 452.8C109.49 453.625 110.502 454 111.702 454C112.977 454 114.027 453.625 114.852 452.8C115.64 452.013 116.052 450.963 116.052 449.65C116.052 448.45 115.602 447.475 114.702 446.65C113.877 445.863 112.902 445.45 111.702 445.45C110.502 445.45 109.49 445.863 108.702 446.65Z" fill="#ECEBEB"/>
<path d="M126.363 458.8V440.5H132.663V442.45H132.813C134.388 440.875 136.113 440.05 137.913 440.05C138.813 440.05 139.713 440.2 140.613 440.5C141.513 440.725 142.338 441.063 143.163 441.55C144.063 442.075 144.738 442.75 145.263 443.65C145.75 444.55 146.013 445.6 146.013 446.8V458.8H139.713V448.45C139.713 447.55 139.413 446.763 138.813 446.05C138.213 445.375 137.388 445 136.413 445C135.513 445 134.65 445.375 133.863 446.05C133.038 446.763 132.663 447.55 132.663 448.45V458.8H126.363Z" fill="#ECEBEB"/>
<path d="M160.739 456.55C159.014 454.675 158.189 452.35 158.189 449.65C158.189 446.95 159.014 444.7 160.739 442.9C162.539 441.025 164.714 440.05 167.339 440.05C169.739 440.05 171.726 440.8 173.339 442.3V440.5H179.639V458.8H173.339V456.7C171.726 458.5 169.739 459.4 167.339 459.4C164.714 459.4 162.539 458.463 160.739 456.55ZM166.139 446.65C165.314 447.475 164.939 448.525 164.939 449.8C164.939 451 165.314 452.013 166.139 452.8C166.926 453.625 167.939 454 169.139 454C170.414 454 171.464 453.625 172.289 452.8C173.076 452.013 173.489 450.963 173.489 449.65C173.489 448.45 173.039 447.475 172.139 446.65C171.314 445.863 170.339 445.45 169.139 445.45C167.939 445.45 166.926 445.863 166.139 446.65Z" fill="#ECEBEB"/>
<path d="M204.649 440.5L195.949 449.2L205.549 458.8H197.449L190.099 451.45V458.8H183.799V428.2H190.099V446.95L196.549 440.5H204.649Z" fill="#ECEBEB"/>
<path d="M212.745 440.5V449.2C212.745 451 212.97 452.313 213.495 453.1C214.095 453.813 215.033 454.15 216.345 454.15C217.62 454.15 218.52 453.813 219.045 453.1C219.645 452.313 219.945 451 219.945 449.2V440.5H226.245V450.7C226.245 453.813 225.42 456.063 223.845 457.45C222.233 458.762 219.683 459.4 216.195 459.4C212.783 459.4 210.27 458.762 208.695 457.45C207.195 456.063 206.445 453.813 206.445 450.7V440.5H212.745Z" fill="#ECEBEB"/>
<path d="M230.046 458.8V440.5H236.346V443.2H236.496C236.496 443.125 236.534 443.013 236.646 442.9C236.721 442.713 236.946 442.45 237.246 442.15C237.621 441.775 238.034 441.4 238.446 441.1C238.821 440.8 239.346 440.575 239.946 440.35C240.621 440.163 241.334 440.05 242.046 440.05C242.721 440.05 243.396 440.163 243.996 440.35C244.671 440.575 245.196 440.763 245.496 440.95L245.946 441.1L243.396 446.5C242.571 445.825 241.484 445.45 240.096 445.45C239.271 445.45 238.634 445.675 238.146 446.05C237.621 446.35 237.246 446.763 236.946 447.25C236.721 447.663 236.571 448.075 236.496 448.45C236.384 448.75 236.346 449.013 236.346 449.2V458.8H230.046Z" fill="#ECEBEB"/>
<path d="M248.935 456.55C247.21 454.675 246.385 452.35 246.385 449.65C246.385 446.95 247.21 444.7 248.935 442.9C250.735 441.025 252.91 440.05 255.535 440.05C257.935 440.05 259.923 440.8 261.535 442.3V440.5H267.835V458.8H261.535V456.7C259.923 458.5 257.935 459.4 255.535 459.4C252.91 459.4 250.735 458.463 248.935 456.55ZM254.335 446.65C253.51 447.475 253.135 448.525 253.135 449.8C253.135 451 253.51 452.013 254.335 452.8C255.123 453.625 256.135 454 257.335 454C258.61 454 259.66 453.625 260.485 452.8C261.273 452.013 261.685 450.963 261.685 449.65C261.685 448.45 261.235 447.475 260.335 446.65C259.51 445.863 258.535 445.45 257.335 445.45C256.135 445.45 255.123 445.863 254.335 446.65Z" fill="#ECEBEB"/>
<path d="M273.046 440.5V433.75H279.346V440.5H283.246V445.3H279.346V451.15C279.346 452.875 279.833 453.7 280.846 453.7C281.033 453.7 281.221 453.663 281.446 453.55C281.746 453.475 281.971 453.363 282.196 453.25L282.346 453.1L283.996 458.2C282.571 458.987 281.033 459.4 279.346 459.4C278.146 459.4 277.096 459.175 276.196 458.8C275.371 458.312 274.733 457.713 274.246 457C273.833 456.325 273.533 455.613 273.346 454.9C273.121 454.113 273.046 453.25 273.046 452.35V445.3H270.496V440.5H273.046Z" fill="#ECEBEB"/>
</g>
<defs>
<clipPath id="clip0_672_48725">
<rect width="720" height="720" rx="60" fill="white"/>
</clipPath>
</defs>
</svg>
