<svg width="720" height="720" viewBox="0 0 720 720" fill="none" xmlns="http://www.w3.org/2000/svg">
<g clip-path="url(#clip0_672_48332)">
<path d="M792 -72H-72V792H792V-72Z" fill="white"/>
<path d="M792 -72H-72V792H792V-72Z" fill="white"/>
<path d="M792 -72H-72V792H792V-72Z" fill="#1740C7"/>
<mask id="mask0_672_48332" style="mask-type:luminance" maskUnits="userSpaceOnUse" x="180" y="0" width="361" height="360">
<path d="M180.525 0H540.525V360H180.525V0Z" fill="white"/>
</mask>
<g mask="url(#mask0_672_48332)">
<mask id="mask1_672_48332" style="mask-type:luminance" maskUnits="userSpaceOnUse" x="180" y="0" width="361" height="360">
<path d="M360.525 0C261.113 0 180.525 80.5875 180.525 180C180.525 279.413 261.113 360 360.525 360C459.938 360 540.525 279.413 540.525 180C540.525 80.5875 459.938 0 360.525 0Z" fill="white"/>
</mask>
<g mask="url(#mask1_672_48332)">
<path d="M180.525 0H540.525V360H180.525V0Z" fill="#48C5B7"/>
</g>
</g>
<mask id="mask2_672_48332" style="mask-type:luminance" maskUnits="userSpaceOnUse" x="0" y="0" width="359" height="360">
<path d="M0 0H359V360H0V0Z" fill="white"/>
</mask>
<g mask="url(#mask2_672_48332)">
<path d="M0 0H359V360H0V0Z" fill="#1740C7"/>
</g>
<mask id="mask3_672_48332" style="mask-type:luminance" maskUnits="userSpaceOnUse" x="359" y="360" width="361" height="360">
<path d="M359.213 360H719.213V720H359.213V360Z" fill="white"/>
</mask>
<g mask="url(#mask3_672_48332)">
<path d="M359.213 360H719.213V720H359.213V360Z" fill="#1740C7"/>
</g>
<mask id="mask4_672_48332" style="mask-type:luminance" maskUnits="userSpaceOnUse" x="0" y="0" width="359" height="360">
<path d="M0 0H359V360H0V0Z" fill="white"/>
</mask>
<g mask="url(#mask4_672_48332)">
<path d="M362.625 151.27V-18.375C152.206 -18.375 -18.375 152.206 -18.375 362.625H151.27C151.27 245.921 245.921 151.27 362.625 151.27Z" fill="#F08B33"/>
</g>
<mask id="mask5_672_48332" style="mask-type:luminance" maskUnits="userSpaceOnUse" x="118" y="118" width="241" height="242">
<path d="M118 118.95H359V360H118V118.95Z" fill="white"/>
</mask>
<g mask="url(#mask5_672_48332)">
<path d="M359 226.339V119C225.91 119 118 226.91 118 360H225.301C225.301 286.171 285.171 226.339 359 226.339Z" fill="#FFDF2B"/>
</g>
<path d="M54.1968 439.45V433.15H76.5468V439.45H68.8968V464.8H61.6968V439.45H54.1968Z" fill="#ECEBEB"/>
<path d="M98.9834 455.95H84.7333C84.7333 457.262 85.1833 458.275 86.0833 458.95C86.9833 459.662 87.9208 460 88.9334 460C90.0208 460 90.8834 459.85 91.4834 459.55C92.1583 459.25 92.9084 458.65 93.7334 457.75L98.6834 460.3C96.6583 463.712 93.2834 465.4 88.4834 465.4C85.4833 465.4 82.9333 464.425 80.8333 462.4C78.7333 460.3 77.6833 457.862 77.6833 455.05C77.6833 452.162 78.7333 449.725 80.8333 447.7C82.9333 445.6 85.4833 444.55 88.4834 444.55C91.5583 444.55 94.0708 445.45 95.9834 447.25C97.9708 449.05 98.9834 451.6 98.9834 454.9C98.9834 455.425 98.9834 455.762 98.9834 455.95ZM84.8833 452.2H92.3834C92.2708 451.112 91.8583 450.325 91.1834 449.8C90.5834 449.2 89.7208 448.9 88.6334 448.9C87.5084 448.9 86.6084 449.2 85.9333 449.8C85.3333 450.4 84.9583 451.225 84.8833 452.2Z" fill="#ECEBEB"/>
<path d="M102.189 464.8V445.15H109.089V447.1C110.889 445.412 112.764 444.55 114.789 444.55C116.176 444.55 117.489 444.85 118.689 445.45C119.964 446.05 120.976 446.95 121.689 448.15C123.676 445.75 125.814 444.55 128.139 444.55C130.239 444.55 132.039 445.15 133.539 446.35C135.039 447.475 135.789 449.275 135.789 451.75V464.8H129.039V453.7C129.039 452.612 128.739 451.712 128.139 451C127.614 450.325 126.789 449.95 125.589 449.95C124.576 449.95 123.826 450.25 123.339 450.85C122.814 451.45 122.514 452.2 122.439 453.1V464.8H115.689V453.7C115.689 452.612 115.389 451.712 114.789 451C114.189 450.325 113.326 449.95 112.239 449.95C111.114 449.95 110.326 450.325 109.839 451C109.314 451.6 109.089 452.35 109.089 453.25V464.8H102.189Z" fill="#ECEBEB"/>
<path d="M146.463 445.15V454.45C146.463 456.475 146.763 457.862 147.363 458.65C147.963 459.475 148.938 459.85 150.363 459.85C151.751 459.85 152.763 459.475 153.363 458.65C153.963 457.862 154.263 456.475 154.263 454.45V445.15H161.013V456.1C161.013 459.4 160.151 461.8 158.463 463.3C156.738 464.725 154.038 465.4 150.363 465.4C146.651 465.4 143.951 464.725 142.263 463.3C140.538 461.8 139.713 459.4 139.713 456.1V445.15H146.463Z" fill="#ECEBEB"/>
<path d="M187.704 445.15L178.404 454.45L188.754 464.8H179.904L172.104 457V464.8H165.204V431.8H172.104V451.9L178.854 445.15H187.704Z" fill="#ECEBEB"/>
<path d="M191.36 462.4C189.56 460.412 188.66 457.975 188.66 455.05C188.66 452.05 189.56 449.575 191.36 447.55C193.235 445.562 195.598 444.55 198.41 444.55C200.998 444.55 203.135 445.375 204.86 446.95V445.15H211.61V464.8H205.01V462.55H204.86C203.135 464.462 200.998 465.4 198.41 465.4C195.598 465.4 193.235 464.425 191.36 462.4ZM197.21 451.6C196.31 452.5 195.86 453.662 195.86 455.05C195.86 456.362 196.235 457.45 197.06 458.35C197.96 459.175 199.085 459.55 200.51 459.55C201.785 459.55 202.835 459.175 203.66 458.35C204.56 457.45 205.01 456.325 205.01 454.9C205.01 453.625 204.56 452.5 203.66 451.6C202.835 450.7 201.785 450.25 200.51 450.25C199.198 450.25 198.11 450.7 197.21 451.6Z" fill="#ECEBEB"/>
<path d="M216.238 464.8V445.15H223.138V447.1C224.938 445.412 226.813 444.55 228.838 444.55C229.813 444.55 230.788 444.7 231.688 445C232.663 445.225 233.563 445.6 234.388 446.2C235.288 446.725 235.963 447.475 236.488 448.45C237.088 449.35 237.388 450.475 237.388 451.75V464.8H230.638V453.7C230.638 452.725 230.263 451.825 229.588 451C228.988 450.212 228.163 449.8 227.188 449.8C226.063 449.8 225.125 450.212 224.338 451C223.513 451.825 223.138 452.725 223.138 453.7V464.8H216.238Z" fill="#ECEBEB"/>
<path d="M76.3969 489.15C78.2718 491.175 79.2469 493.612 79.2469 496.5C79.2469 499.425 78.2718 501.9 76.3969 504C74.5969 506.025 72.2718 507 69.4969 507C66.8718 507 64.7343 506.175 63.0469 504.45V516.45H56.1469V486.75H62.8969V489H63.0469C64.7343 487.125 66.8718 486.15 69.4969 486.15C72.2718 486.15 74.5969 487.162 76.3969 489.15ZM70.6969 499.95C71.5969 499.05 72.0469 497.962 72.0469 496.65C72.0469 495.262 71.5969 494.1 70.6969 493.2C69.8718 492.3 68.7843 491.85 67.3969 491.85C66.0843 491.85 64.9969 492.3 64.0969 493.2C63.2718 494.1 62.8969 495.225 62.8969 496.5C62.8969 497.925 63.2718 499.05 64.0969 499.95C64.9969 500.775 66.0843 501.15 67.3969 501.15C68.6718 501.15 69.7969 500.775 70.6969 499.95Z" fill="#ECEBEB"/>
<path d="M82.3743 506.4V486.75H89.2743V489.6C89.3493 489.525 89.4618 489.412 89.5743 489.3C89.6493 489.112 89.9118 488.812 90.3243 488.4C90.6993 488.025 91.1118 487.65 91.5243 487.35C91.8993 487.05 92.4618 486.825 93.1743 486.6C93.8493 486.3 94.5618 486.15 95.2743 486.15C96.0618 486.15 96.8118 486.262 97.5243 486.45C98.1993 486.675 98.7243 486.862 99.0243 487.05L99.6243 487.35L96.7743 493.05C95.9493 492.375 94.8243 492 93.3243 492C92.4243 492 91.6743 492.225 91.0743 492.6C90.5493 492.9 90.1743 493.35 89.8743 493.95C89.6493 494.475 89.4993 494.925 89.4243 495.3C89.3118 495.6 89.2743 495.862 89.2743 496.05V506.4H82.3743Z" fill="#ECEBEB"/>
<path d="M103.448 504.15C101.235 502.162 100.148 499.65 100.148 496.65C100.148 493.575 101.235 491.062 103.448 489.15C105.735 487.162 108.585 486.15 111.998 486.15C115.298 486.15 118.035 487.162 120.248 489.15C122.535 491.062 123.698 493.575 123.698 496.65C123.698 499.65 122.573 502.162 120.398 504.15C118.185 506.062 115.373 507 111.998 507C108.473 507 105.623 506.062 103.448 504.15ZM108.698 493.2C107.798 494.1 107.348 495.262 107.348 496.65C107.348 497.962 107.723 499.05 108.548 499.95C109.448 500.775 110.573 501.15 111.998 501.15C113.273 501.15 114.323 500.775 115.148 499.95C116.048 499.05 116.498 497.925 116.498 496.5C116.498 495.225 116.048 494.1 115.148 493.2C114.323 492.3 113.273 491.85 111.998 491.85C110.685 491.85 109.598 492.3 108.698 493.2Z" fill="#ECEBEB"/>
<path d="M147.13 489.15C149.005 491.175 149.98 493.612 149.98 496.5C149.98 499.425 149.005 501.9 147.13 504C145.33 506.025 143.005 507 140.23 507C137.605 507 135.468 506.175 133.78 504.45V516.45H126.88V486.75H133.63V489H133.78C135.468 487.125 137.605 486.15 140.23 486.15C143.005 486.15 145.33 487.162 147.13 489.15ZM141.43 499.95C142.33 499.05 142.78 497.962 142.78 496.65C142.78 495.262 142.33 494.1 141.43 493.2C140.605 492.3 139.518 491.85 138.13 491.85C136.818 491.85 135.73 492.3 134.83 493.2C134.005 494.1 133.63 495.225 133.63 496.5C133.63 497.925 134.005 499.05 134.83 499.95C135.73 500.775 136.818 501.15 138.13 501.15C139.405 501.15 140.53 500.775 141.43 499.95Z" fill="#ECEBEB"/>
<path d="M173.058 497.55H158.808C158.808 498.862 159.258 499.875 160.158 500.55C161.058 501.262 161.995 501.6 163.008 501.6C164.095 501.6 164.958 501.45 165.558 501.15C166.233 500.85 166.983 500.25 167.808 499.35L172.758 501.9C170.733 505.312 167.358 507 162.558 507C159.558 507 157.008 506.025 154.908 504C152.808 501.9 151.758 499.462 151.758 496.65C151.758 493.762 152.808 491.325 154.908 489.3C157.008 487.2 159.558 486.15 162.558 486.15C165.633 486.15 168.145 487.05 170.058 488.85C172.045 490.65 173.058 493.2 173.058 496.5C173.058 497.025 173.058 497.362 173.058 497.55ZM158.958 493.8H166.458C166.345 492.712 165.933 491.925 165.258 491.4C164.658 490.8 163.795 490.5 162.708 490.5C161.583 490.5 160.683 490.8 160.008 491.4C159.408 492 159.033 492.825 158.958 493.8Z" fill="#ECEBEB"/>
<path d="M176.263 506.4V486.75H183.163V489.6C183.238 489.525 183.35 489.412 183.463 489.3C183.538 489.112 183.8 488.812 184.213 488.4C184.588 488.025 185 487.65 185.413 487.35C185.788 487.05 186.35 486.825 187.063 486.6C187.738 486.3 188.45 486.15 189.163 486.15C189.95 486.15 190.7 486.262 191.413 486.45C192.088 486.675 192.613 486.862 192.913 487.05L193.513 487.35L190.663 493.05C189.838 492.375 188.713 492 187.213 492C186.313 492 185.563 492.225 184.963 492.6C184.438 492.9 184.063 493.35 183.763 493.95C183.538 494.475 183.388 494.925 183.313 495.3C183.2 495.6 183.163 495.862 183.163 496.05V506.4H176.263Z" fill="#ECEBEB"/>
<path d="M196.586 486.75V479.4H203.336V486.75H207.536V491.85H203.336V498.15C203.336 499.95 203.861 500.85 204.986 500.85C205.174 500.85 205.436 500.812 205.736 500.7C206.036 500.625 206.224 500.512 206.336 500.4L206.636 500.25L208.286 505.8C206.861 506.587 205.211 507 203.336 507C202.024 507 200.936 506.775 200.036 506.4C199.136 505.912 198.424 505.312 197.936 504.6C197.411 503.812 197.074 503.025 196.886 502.2C196.661 501.3 196.586 500.4 196.586 499.5V491.85H193.736V486.75H196.586Z" fill="#ECEBEB"/>
<path d="M211.304 475.8C212.092 475.012 213.029 474.6 214.154 474.6C215.242 474.6 216.179 475.012 217.004 475.8C217.792 476.512 218.204 477.412 218.204 478.5C218.204 479.625 217.792 480.562 217.004 481.35C216.179 482.175 215.242 482.55 214.154 482.55C213.029 482.55 212.092 482.175 211.304 481.35C210.479 480.562 210.104 479.625 210.104 478.5C210.104 477.412 210.479 476.512 211.304 475.8ZM210.554 486.75V506.4H217.454V486.75H210.554Z" fill="#ECEBEB"/>
<path d="M56.8968 527.4C57.6843 526.612 58.6218 526.2 59.7468 526.2C60.8343 526.2 61.7718 526.612 62.5968 527.4C63.3843 528.112 63.7968 529.012 63.7968 530.1C63.7968 531.225 63.3843 532.162 62.5968 532.95C61.7718 533.775 60.8343 534.15 59.7468 534.15C58.6218 534.15 57.6843 533.775 56.8968 532.95C56.0718 532.162 55.6968 531.225 55.6968 530.1C55.6968 529.012 56.0718 528.112 56.8968 527.4ZM56.1468 538.35V558H63.0468V538.35H56.1468Z" fill="#ECEBEB"/>
<path d="M67.7437 558V538.35H74.6437V540.3C76.4437 538.613 78.3187 537.75 80.3437 537.75C81.7312 537.75 83.0437 538.05 84.2437 538.65C85.5187 539.25 86.5312 540.15 87.2437 541.35C89.2312 538.95 91.3686 537.75 93.6937 537.75C95.7937 537.75 97.5937 538.35 99.0937 539.55C100.594 540.675 101.344 542.475 101.344 544.95V558H94.5937V546.9C94.5937 545.813 94.2937 544.913 93.6937 544.2C93.1686 543.525 92.3437 543.15 91.1437 543.15C90.1312 543.15 89.3812 543.45 88.8937 544.05C88.3686 544.65 88.0686 545.4 87.9937 546.3V558H81.2437V546.9C81.2437 545.813 80.9437 544.913 80.3437 544.2C79.7437 543.525 78.8812 543.15 77.7937 543.15C76.6686 543.15 75.8812 543.525 75.3937 544.2C74.8686 544.8 74.6437 545.55 74.6437 546.45V558H67.7437Z" fill="#ECEBEB"/>
<path d="M125.818 540.75C127.693 542.775 128.668 545.213 128.668 548.1C128.668 551.025 127.693 553.5 125.818 555.6C124.018 557.625 121.693 558.6 118.918 558.6C116.293 558.6 114.155 557.775 112.468 556.05V568.05H105.568V538.35H112.318V540.6H112.468C114.155 538.725 116.293 537.75 118.918 537.75C121.693 537.75 124.018 538.763 125.818 540.75ZM120.118 551.55C121.018 550.65 121.468 549.563 121.468 548.25C121.468 546.863 121.018 545.7 120.118 544.8C119.293 543.9 118.205 543.45 116.818 543.45C115.505 543.45 114.418 543.9 113.518 544.8C112.693 545.7 112.318 546.825 112.318 548.1C112.318 549.525 112.693 550.65 113.518 551.55C114.418 552.375 115.505 552.75 116.818 552.75C118.093 552.75 119.218 552.375 120.118 551.55Z" fill="#ECEBEB"/>
<path d="M132.545 527.4C133.333 526.612 134.27 526.2 135.395 526.2C136.483 526.2 137.42 526.612 138.245 527.4C139.033 528.112 139.445 529.012 139.445 530.1C139.445 531.225 139.033 532.162 138.245 532.95C137.42 533.775 136.483 534.15 135.395 534.15C134.27 534.15 133.333 533.775 132.545 532.95C131.72 532.162 131.345 531.225 131.345 530.1C131.345 529.012 131.72 528.112 132.545 527.4ZM131.795 538.35V558H138.695V538.35H131.795Z" fill="#ECEBEB"/>
<path d="M144.742 555.6C142.942 553.613 142.042 551.175 142.042 548.25C142.042 545.25 142.942 542.775 144.742 540.75C146.617 538.763 148.98 537.75 151.792 537.75C154.38 537.75 156.517 538.575 158.242 540.15V538.35H164.992V558H158.392V555.75H158.242C156.517 557.663 154.38 558.6 151.792 558.6C148.98 558.6 146.617 557.625 144.742 555.6ZM150.592 544.8C149.692 545.7 149.242 546.863 149.242 548.25C149.242 549.563 149.617 550.65 150.442 551.55C151.342 552.375 152.467 552.75 153.892 552.75C155.167 552.75 156.217 552.375 157.042 551.55C157.942 550.65 158.392 549.525 158.392 548.1C158.392 546.825 157.942 545.7 157.042 544.8C156.217 543.9 155.167 543.45 153.892 543.45C152.58 543.45 151.492 543.9 150.592 544.8Z" fill="#ECEBEB"/>
<path d="M169.62 558V538.35H176.52V540.3C178.32 538.613 180.195 537.75 182.22 537.75C183.195 537.75 184.17 537.9 185.07 538.2C186.045 538.425 186.945 538.8 187.77 539.4C188.67 539.925 189.345 540.675 189.87 541.65C190.47 542.55 190.77 543.675 190.77 544.95V558H184.02V546.9C184.02 545.925 183.645 545.025 182.97 544.2C182.37 543.413 181.545 543 180.57 543C179.445 543 178.507 543.413 177.72 544.2C176.895 545.025 176.52 545.925 176.52 546.9V558H169.62Z" fill="#ECEBEB"/>
<path d="M195.002 558V538.35H201.902V540.3C203.702 538.613 205.577 537.75 207.602 537.75C208.99 537.75 210.302 538.05 211.502 538.65C212.777 539.25 213.79 540.15 214.502 541.35C216.49 538.95 218.627 537.75 220.952 537.75C223.052 537.75 224.852 538.35 226.352 539.55C227.852 540.675 228.602 542.475 228.602 544.95V558H221.852V546.9C221.852 545.813 221.552 544.913 220.952 544.2C220.427 543.525 219.602 543.15 218.402 543.15C217.39 543.15 216.64 543.45 216.152 544.05C215.627 544.65 215.327 545.4 215.252 546.3V558H208.502V546.9C208.502 545.813 208.202 544.913 207.602 544.2C207.002 543.525 206.14 543.15 205.052 543.15C203.927 543.15 203.14 543.525 202.652 544.2C202.127 544.8 201.902 545.55 201.902 546.45V558H195.002Z" fill="#ECEBEB"/>
<path d="M239.277 538.35V547.65C239.277 549.675 239.577 551.063 240.177 551.85C240.777 552.675 241.752 553.05 243.177 553.05C244.564 553.05 245.577 552.675 246.177 551.85C246.777 551.063 247.077 549.675 247.077 547.65V538.35H253.827V549.3C253.827 552.6 252.964 555 251.277 556.5C249.552 557.925 246.852 558.6 243.177 558.6C239.464 558.6 236.764 557.925 235.077 556.5C233.352 555 232.527 552.6 232.527 549.3V538.35H239.277Z" fill="#ECEBEB"/>
<path d="M57.4968 597.2C55.6968 595.213 54.7968 592.775 54.7968 589.85C54.7968 586.85 55.6968 584.375 57.4968 582.35C59.3717 580.363 61.7343 579.35 64.5468 579.35C67.1343 579.35 69.2717 580.175 70.9968 581.75V566.6H77.7468V599.6H71.1468V597.35H70.9968C69.2717 599.263 67.1343 600.2 64.5468 600.2C61.7343 600.2 59.3717 599.225 57.4968 597.2ZM63.3468 586.4C62.4468 587.3 61.9968 588.463 61.9968 589.85C61.9968 591.163 62.3717 592.25 63.1968 593.15C64.0968 593.975 65.2218 594.35 66.6468 594.35C67.9218 594.35 68.9717 593.975 69.7968 593.15C70.6968 592.25 71.1468 591.125 71.1468 589.7C71.1468 588.425 70.6968 587.3 69.7968 586.4C68.9717 585.5 67.9218 585.05 66.6468 585.05C65.3343 585.05 64.2468 585.5 63.3468 586.4Z" fill="#ECEBEB"/>
<path d="M102.324 590.75H88.0742C88.0742 592.063 88.5242 593.075 89.4242 593.75C90.3242 594.463 91.2617 594.8 92.2742 594.8C93.3617 594.8 94.2242 594.65 94.8242 594.35C95.4992 594.05 96.2492 593.45 97.0742 592.55L102.024 595.1C99.9992 598.513 96.6242 600.2 91.8242 600.2C88.8242 600.2 86.2742 599.225 84.1742 597.2C82.0742 595.1 81.0242 592.663 81.0242 589.85C81.0242 586.963 82.0742 584.525 84.1742 582.5C86.2742 580.4 88.8242 579.35 91.8242 579.35C94.8992 579.35 97.4117 580.25 99.3242 582.05C101.312 583.85 102.324 586.4 102.324 589.7C102.324 590.225 102.324 590.563 102.324 590.75ZM88.2242 587H95.7242C95.6117 585.913 95.1992 585.125 94.5242 584.6C93.9242 584 93.0617 583.7 91.9742 583.7C90.8492 583.7 89.9492 584 89.2742 584.6C88.6742 585.2 88.2992 586.025 88.2242 587Z" fill="#ECEBEB"/>
<path d="M105.53 599.6V579.95H112.43V581.9C114.23 580.213 116.105 579.35 118.13 579.35C119.105 579.35 120.08 579.5 120.98 579.8C121.955 580.025 122.855 580.4 123.68 581C124.58 581.525 125.255 582.275 125.78 583.25C126.38 584.15 126.68 585.275 126.68 586.55V599.6H119.93V588.5C119.93 587.525 119.555 586.625 118.88 585.8C118.28 585.013 117.455 584.6 116.48 584.6C115.355 584.6 114.417 585.013 113.63 585.8C112.805 586.625 112.43 587.525 112.43 588.5V599.6H105.53Z" fill="#ECEBEB"/>
<path d="M130.012 604.4L135.712 601.7C136.687 603.388 138.45 604.25 140.962 604.25C142.162 604.25 143.25 603.838 144.262 603.05C145.237 602.338 145.762 601.175 145.762 599.6V598.25C144.562 599.563 142.387 600.2 139.312 600.2C136.5 600.2 134.137 599.225 132.262 597.2C130.462 595.213 129.562 592.775 129.562 589.85C129.562 586.85 130.462 584.375 132.262 582.35C134.137 580.363 136.5 579.35 139.312 579.35C141.9 579.35 144 580.1 145.612 581.6H145.762V579.95H152.512V600.2C152.512 603.388 151.462 605.825 149.362 607.55C147.262 609.238 144.45 610.1 140.962 610.1C135.337 610.1 131.7 608.188 130.012 604.4ZM138.112 586.4C137.212 587.3 136.762 588.463 136.762 589.85C136.762 591.163 137.137 592.25 137.962 593.15C138.862 593.975 139.987 594.35 141.412 594.35C142.687 594.35 143.737 593.975 144.562 593.15C145.462 592.25 145.912 591.125 145.912 589.7C145.912 588.425 145.462 587.3 144.562 586.4C143.737 585.5 142.687 585.05 141.412 585.05C140.1 585.05 139.012 585.5 138.112 586.4Z" fill="#ECEBEB"/>
<path d="M158.49 597.2C156.69 595.213 155.79 592.775 155.79 589.85C155.79 586.85 156.69 584.375 158.49 582.35C160.365 580.363 162.727 579.35 165.54 579.35C168.127 579.35 170.265 580.175 171.99 581.75V579.95H178.74V599.6H172.14V597.35H171.99C170.265 599.263 168.127 600.2 165.54 600.2C162.727 600.2 160.365 599.225 158.49 597.2ZM164.34 586.4C163.44 587.3 162.99 588.463 162.99 589.85C162.99 591.163 163.365 592.25 164.19 593.15C165.09 593.975 166.215 594.35 167.64 594.35C168.915 594.35 169.965 593.975 170.79 593.15C171.69 592.25 172.14 591.125 172.14 589.7C172.14 588.425 171.69 587.3 170.79 586.4C169.965 585.5 168.915 585.05 167.64 585.05C166.327 585.05 165.24 585.5 164.34 586.4Z" fill="#ECEBEB"/>
<path d="M183.367 599.6V579.95H190.267V581.9C192.067 580.213 193.942 579.35 195.967 579.35C196.942 579.35 197.917 579.5 198.817 579.8C199.792 580.025 200.692 580.4 201.517 581C202.417 581.525 203.092 582.275 203.617 583.25C204.217 584.15 204.517 585.275 204.517 586.55V599.6H197.767V588.5C197.767 587.525 197.392 586.625 196.717 585.8C196.117 585.013 195.292 584.6 194.317 584.6C193.192 584.6 192.255 585.013 191.467 585.8C190.642 586.625 190.267 587.525 190.267 588.5V599.6H183.367Z" fill="#ECEBEB"/>
<path d="M56.1469 651.2V631.55H63.0469V633.5C64.8469 631.812 66.7219 630.95 68.7469 630.95C70.1343 630.95 71.4469 631.25 72.6469 631.85C73.9219 632.45 74.9343 633.35 75.6469 634.55C77.6343 632.15 79.7718 630.95 82.0969 630.95C84.1969 630.95 85.9969 631.55 87.4969 632.75C88.9969 633.875 89.7469 635.675 89.7469 638.15V651.2H82.9969V640.1C82.9969 639.012 82.6969 638.112 82.0969 637.4C81.5718 636.725 80.7469 636.35 79.5469 636.35C78.5343 636.35 77.7843 636.65 77.2969 637.25C76.7718 637.85 76.4718 638.6 76.3969 639.5V651.2H69.6469V640.1C69.6469 639.012 69.3469 638.112 68.7469 637.4C68.1469 636.725 67.2843 636.35 66.1969 636.35C65.0718 636.35 64.2843 636.725 63.7969 637.4C63.2718 638 63.0469 638.75 63.0469 639.65V651.2H56.1469Z" fill="#ECEBEB"/>
<path d="M100.421 631.55V640.85C100.421 642.875 100.721 644.263 101.321 645.05C101.921 645.875 102.896 646.25 104.321 646.25C105.709 646.25 106.721 645.875 107.321 645.05C107.921 644.263 108.221 642.875 108.221 640.85V631.55H114.971V642.5C114.971 645.8 114.109 648.2 112.421 649.7C110.696 651.125 107.996 651.8 104.321 651.8C100.609 651.8 97.9086 651.125 96.2211 649.7C94.4961 648.2 93.6711 645.8 93.6711 642.5V631.55H100.421Z" fill="#ECEBEB"/>
<path d="M120.512 648.8C118.712 646.812 117.812 644.375 117.812 641.45C117.812 638.45 118.712 635.975 120.512 633.95C122.387 631.962 124.749 630.95 127.562 630.95C130.149 630.95 132.287 631.775 134.012 633.35V618.2H140.762V651.2H134.162V648.95H134.012C132.287 650.862 130.149 651.8 127.562 651.8C124.749 651.8 122.387 650.825 120.512 648.8ZM126.362 638C125.462 638.9 125.012 640.062 125.012 641.45C125.012 642.762 125.387 643.85 126.212 644.75C127.112 645.575 128.237 645.95 129.662 645.95C130.937 645.95 131.987 645.575 132.812 644.75C133.712 643.85 134.162 642.725 134.162 641.3C134.162 640.025 133.712 638.9 132.812 638C131.987 637.1 130.937 636.65 129.662 636.65C128.349 636.65 127.262 637.1 126.362 638Z" fill="#ECEBEB"/>
<path d="M146.739 648.8C144.939 646.812 144.039 644.375 144.039 641.45C144.039 638.45 144.939 635.975 146.739 633.95C148.614 631.962 150.977 630.95 153.789 630.95C156.377 630.95 158.514 631.775 160.239 633.35V631.55H166.989V651.2H160.389V648.95H160.239C158.514 650.862 156.377 651.8 153.789 651.8C150.977 651.8 148.614 650.825 146.739 648.8ZM152.589 638C151.689 638.9 151.239 640.062 151.239 641.45C151.239 642.762 151.614 643.85 152.439 644.75C153.339 645.575 154.464 645.95 155.889 645.95C157.164 645.95 158.214 645.575 159.039 644.75C159.939 643.85 160.389 642.725 160.389 641.3C160.389 640.025 159.939 638.9 159.039 638C158.214 637.1 157.164 636.65 155.889 636.65C154.577 636.65 153.489 637.1 152.589 638Z" fill="#ECEBEB"/>
<path d="M171.617 651.2V618.2H178.517V633.5C180.317 631.812 182.192 630.95 184.217 630.95C185.192 630.95 186.167 631.1 187.067 631.4C188.042 631.625 188.942 632 189.767 632.6C190.667 633.125 191.342 633.875 191.867 634.85C192.467 635.75 192.767 636.875 192.767 638.15V651.2H186.017V640.1C186.017 639.125 185.642 638.225 184.967 637.4C184.367 636.612 183.542 636.2 182.567 636.2C181.442 636.2 180.504 636.612 179.717 637.4C178.892 638.225 178.517 639.125 178.517 640.1V651.2H171.617Z" fill="#ECEBEB"/>
<mask id="mask6_672_48332" style="mask-type:luminance" maskUnits="userSpaceOnUse" x="359" y="360" width="123" height="123">
<path d="M359 360H481.4V482.4H359V360Z" fill="white"/>
</mask>
<g mask="url(#mask6_672_48332)">
<path d="M359 360H481V482H359V360Z" fill="#F08B33"/>
</g>
<mask id="mask7_672_48332" style="mask-type:luminance" maskUnits="userSpaceOnUse" x="600" y="600" width="120" height="120">
<path d="M600.938 600H720V720H600.938V600Z" fill="white"/>
</mask>
<g mask="url(#mask7_672_48332)">
<path d="M600.938 600H723.338V722.4H600.938V600Z" fill="#F08B33"/>
</g>
<mask id="mask8_672_48332" style="mask-type:luminance" maskUnits="userSpaceOnUse" x="480" y="480" width="123" height="123">
<path d="M480.075 480H602.475V602.4H480.075V480Z" fill="white"/>
</mask>
<g mask="url(#mask8_672_48332)">
<path d="M480.075 480H602.475V602.4H480.075V480Z" fill="#48C5B7"/>
</g>
<mask id="mask9_672_48332" style="mask-type:luminance" maskUnits="userSpaceOnUse" x="359" y="600" width="123" height="120">
<path d="M359.213 600H481.613V720H359.213V600Z" fill="white"/>
</mask>
<g mask="url(#mask9_672_48332)">
<path d="M359.213 600H481.613V722.4H359.213V600Z" fill="#48C5B7"/>
</g>
<mask id="mask10_672_48332" style="mask-type:luminance" maskUnits="userSpaceOnUse" x="540" y="0" width="180" height="361">
<path d="M540 0H720V361H540V0Z" fill="white"/>
</mask>
<g mask="url(#mask10_672_48332)">
<mask id="mask11_672_48332" style="mask-type:luminance" maskUnits="userSpaceOnUse" x="540" y="0" width="360" height="360">
<path d="M719.85 359.651C620.85 359.651 540 278.88 540 179.676C540 80.7717 620.85 0 719.85 0C819.15 0 899.738 80.7717 899.738 179.676C900 278.88 819.15 359.651 719.85 359.651ZM719.85 98.9416C675.45 98.9416 639.038 135.319 639.038 179.676C639.038 224.07 675.45 260.447 719.85 260.447C764.288 260.447 800.7 224.07 800.7 179.676C800.7 135.319 764.55 98.9416 719.85 98.9416Z" fill="white"/>
</mask>
<g mask="url(#mask11_672_48332)">
<path d="M540 0H901.35V361H540V0Z" fill="#FFDF2B"/>
</g>
</g>
</g>
<defs>
<clipPath id="clip0_672_48332">
<rect width="720" height="720" rx="60" fill="white"/>
</clipPath>
</defs>
</svg>
