<svg width="71" height="71" viewBox="0 0 71 71" fill="none" xmlns="http://www.w3.org/2000/svg">
<path d="M0 71V15.7778H15.7778V0H55.2222V31.5556H71V71H39.4444V55.2222H31.5556V71H0ZM7.88889 63.1111H15.7778V55.2222H7.88889V63.1111ZM7.88889 47.3333H15.7778V39.4444H7.88889V47.3333ZM7.88889 31.5556H15.7778V23.6667H7.88889V31.5556ZM23.6667 47.3333H31.5556V39.4444H23.6667V47.3333ZM23.6667 31.5556H31.5556V23.6667H23.6667V31.5556ZM23.6667 15.7778H31.5556V7.88889H23.6667V15.7778ZM39.4444 47.3333H47.3333V39.4444H39.4444V47.3333ZM39.4444 31.5556H47.3333V23.6667H39.4444V31.5556ZM39.4444 15.7778H47.3333V7.88889H39.4444V15.7778ZM55.2222 63.1111H63.1111V55.2222H55.2222V63.1111ZM55.2222 47.3333H63.1111V39.4444H55.2222V47.3333Z" fill="#0C40E8"/>
</svg>
