<svg width="91" height="91" viewBox="0 0 91 91" fill="none" xmlns="http://www.w3.org/2000/svg">
<path d="M77.254 70.9613C79.2178 67.8818 80.3335 64.1775 80.3335 60.2501C80.3335 49.0927 71.4076 40.1667 60.2501 40.1667C49.0927 40.1667 40.1667 49.0927 40.1667 60.2501C40.1667 71.4076 49.0927 80.3335 60.2501 80.3335C64.1329 80.3335 67.7925 79.2178 70.872 77.2987L84.7965 91L91 84.7965L77.254 70.9613ZM60.2501 71.4076C57.291 71.4076 54.4531 70.232 52.3606 68.1396C50.2682 66.0472 49.0927 63.2093 49.0927 60.2501C49.0927 57.291 50.2682 54.4531 52.3606 52.3606C54.4531 50.2682 57.291 49.0927 60.2501 49.0927C63.2093 49.0927 66.0472 50.2682 68.1396 52.3606C70.232 54.4531 71.4076 57.291 71.4076 60.2501C71.4076 63.2093 70.232 66.0472 68.1396 68.1396C66.0472 70.232 63.2093 71.4076 60.2501 71.4076ZM13.3889 75.8705V40.1667H0L44.6297 0L89.2594 40.1667H81.1368C77.2923 36.1422 72.362 33.3204 66.9446 32.0441L44.6297 12.0054L22.3149 32.0888V66.9446H32.0441C32.8028 70.1579 34.0971 73.1481 35.8377 75.8705H13.3889Z" fill="#0C40E8"/>
</svg>
