<svg width="34" height="33" viewBox="0 0 34 33" fill="none" xmlns="http://www.w3.org/2000/svg">
<path d="M30.9542 13.2773H22.7042C22.5624 13.2773 22.4464 13.3934 22.4464 13.5352V15.082C22.4464 15.2238 22.5624 15.3398 22.7042 15.3398H30.9542C31.096 15.3398 31.212 15.2238 31.212 15.082V13.5352C31.212 13.3934 31.096 13.2773 30.9542 13.2773ZM26.6358 17.6602H22.7042C22.5624 17.6602 22.4464 17.7762 22.4464 17.918V19.4648C22.4464 19.6066 22.5624 19.7227 22.7042 19.7227H26.6358C26.7776 19.7227 26.8937 19.6066 26.8937 19.4648V17.918C26.8937 17.7762 26.7776 17.6602 26.6358 17.6602ZM15.8818 10.3931H14.4864C14.2866 10.3931 14.1255 10.5542 14.1255 10.754V18.7462C14.1255 18.8622 14.1803 18.9686 14.2737 19.0362L19.0723 22.536C19.2334 22.6521 19.459 22.6198 19.575 22.4587L20.4032 21.3275V21.3243C20.5192 21.1632 20.4838 20.9376 20.3227 20.8216L16.2396 17.8696V10.754C16.2428 10.5542 16.0784 10.3931 15.8818 10.3931Z" fill="white"/>
<path d="M26.436 21.7177H24.5733C24.3928 21.7177 24.222 21.8111 24.1253 21.9658C23.716 22.6136 23.2391 23.213 22.6912 23.7608C21.747 24.7051 20.6481 25.4463 19.4267 25.9619C18.1602 26.4969 16.8163 26.7676 15.4306 26.7676C14.0416 26.7676 12.6978 26.4969 11.4345 25.9619C10.2131 25.4463 9.11418 24.7051 8.16994 23.7608C7.22571 22.8166 6.48449 21.7177 5.96887 20.4963C5.43391 19.233 5.16321 17.8892 5.16321 16.5002C5.16321 15.1112 5.43391 13.7706 5.96887 12.5041C6.48449 11.2827 7.22571 10.1838 8.16994 9.23956C9.11418 8.29532 10.2131 7.55411 11.4345 7.03848C12.6978 6.50352 14.0448 6.23282 15.4306 6.23282C16.8196 6.23282 18.1634 6.50352 19.4267 7.03848C20.6481 7.55411 21.747 8.29532 22.6912 9.23956C23.2391 9.78741 23.716 10.3868 24.1253 11.0346C24.222 11.1893 24.3928 11.2827 24.5733 11.2827H26.436C26.6583 11.2827 26.8001 11.0507 26.7002 10.8541C24.599 6.67432 20.3387 3.95762 15.5821 3.90284C8.61789 3.81583 2.83323 9.51671 2.82033 16.4744C2.80744 23.445 8.45676 29.1008 15.4274 29.1008C20.2452 29.1008 24.5765 26.3744 26.7002 22.1463C26.8001 21.9497 26.6551 21.7177 26.436 21.7177Z" fill="white"/>
</svg>
