<svg width="720" height="720" fill="none" xmlns="http://www.w3.org/2000/svg"><g clip-path="url(#a)"><path d="M792-72H-72v864h864V-72z" fill="#fff"/><path d="M792-72H-72v864h864V-72z" fill="#fff"/><mask id="b" style="mask-type:luminance" maskUnits="userSpaceOnUse" x="0" y="0" width="360" height="720"><path d="M0 0h360v720H0V0z" fill="#fff"/></mask><g mask="url(#b)"><path d="M0 0h360v720H0V0z" fill="#1740C7"/></g><mask id="c" style="mask-type:luminance" maskUnits="userSpaceOnUse" x="0" y="0" width="275" height="541"><path d="M0 0h274.65v540.6H0V0z" fill="#fff"/></mask><g mask="url(#c)"><mask id="d" style="mask-type:luminance" maskUnits="userSpaceOnUse" x="-273" y="-7" width="546" height="546"><path d="M-.187 538.575c-150 0-272.438-122.437-272.438-272.813 0-150 122.438-272.437 272.438-272.437 150.375 0 272.4 122.437 272.4 272.437.412 150.376-122.025 272.813-272.4 272.813zm0-395.25c-67.313 0-122.438 55.125-122.438 122.437 0 67.275 55.125 122.401 122.438 122.401 67.275 0 122.4-55.126 122.4-122.401 0-67.312-54.713-122.437-122.4-122.437z" fill="#fff"/></mask><g mask="url(#d)"><path d="M-272.625-6.675H274.65V540.6h-547.275V-6.675z" fill="#FFDF2B"/></g></g><mask id="e" style="mask-type:luminance" maskUnits="userSpaceOnUse" x="360" y="0" width="360" height="720"><path d="M360 0h360v720H360V0z" fill="#fff"/></mask><g mask="url(#e)"><path d="M358 0h362v720H358V0z" fill="#1740C7"/></g><mask id="f" style="mask-type:luminance" maskUnits="userSpaceOnUse" x="236" y="596" width="248" height="124"><path d="M236.888 596.887h246.225V720H236.888V596.887z" fill="#fff"/></mask><g mask="url(#f)"><mask id="g" style="mask-type:luminance" maskUnits="userSpaceOnUse" x="236" y="596" width="248" height="248"><path d="M360 596.887c-67.987 0-123.112 55.125-123.112 123.113 0 67.987 55.125 123.112 123.112 123.112 67.988 0 123.113-55.125 123.113-123.112 0-67.988-55.125-123.113-123.113-123.113z" fill="#fff"/></mask><g mask="url(#g)"><path d="M236.888 596.887h246.225v246.225H236.888V596.887z" fill="#F08B33"/></g></g><path d="M443.051 253.64h8.55c4.088 0 7.538 1.425 10.35 4.2 2.888 2.812 4.35 6.3 4.35 10.5s-1.462 7.725-4.35 10.5c-2.812 2.812-6.262 4.2-10.35 4.2h-8.55v-29.4zm6.75 23.4h1.05c2.4 0 4.35-.788 5.85-2.4 1.575-1.688 2.4-3.788 2.4-6.3 0-2.475-.825-4.538-2.4-6.15-1.5-1.688-3.45-2.55-5.85-2.55h-1.05v17.4zm20.664 3.75c-1.725-1.875-2.55-4.2-2.55-6.9s.825-4.95 2.55-6.75c1.8-1.875 3.975-2.85 6.6-2.85 2.4 0 4.388.75 6 2.25v-1.8h6.3v18.3h-6.3v-2.1c-1.612 1.8-3.6 2.7-6 2.7-2.625 0-4.8-.937-6.6-2.85zm5.4-9.9c-.825.825-1.2 1.875-1.2 3.15 0 1.2.375 2.213 1.2 3 .788.825 1.8 1.2 3 1.2 1.275 0 2.325-.375 3.15-1.2.788-.787 1.2-1.837 1.2-3.15 0-1.2-.45-2.175-1.35-3-.825-.787-1.8-1.2-3-1.2s-2.212.413-3 1.2zm36.41-3.75c1.688 1.8 2.55 4.05 2.55 6.75s-.862 5.025-2.55 6.9c-1.725 1.913-3.862 2.85-6.45 2.85-2.4 0-4.425-.787-6-2.4v11.1h-6.3v-27.6h6.3v2.1c1.575-1.687 3.6-2.55 6-2.55 2.588 0 4.725.975 6.45 2.85zm-5.25 9.9c.788-.787 1.2-1.8 1.2-3 0-1.275-.412-2.325-1.2-3.15-.825-.787-1.875-1.2-3.15-1.2-1.2 0-2.212.413-3 1.2-.825.825-1.2 1.8-1.2 3 0 1.313.375 2.363 1.2 3.15.9.825 1.875 1.2 3 1.2 1.275 0 2.325-.375 3.15-1.2zm11.961 3.75c-1.725-1.875-2.55-4.2-2.55-6.9s.825-4.95 2.55-6.75c1.8-1.875 3.975-2.85 6.6-2.85 2.4 0 4.387.75 6 2.25v-1.8h6.3v18.3h-6.3v-2.1c-1.613 1.8-3.6 2.7-6 2.7-2.625 0-4.8-.937-6.6-2.85zm5.4-9.9c-.825.825-1.2 1.875-1.2 3.15 0 1.2.375 2.213 1.2 3 .787.825 1.8 1.2 3 1.2 1.275 0 2.325-.375 3.15-1.2.787-.787 1.2-1.837 1.2-3.15 0-1.2-.45-2.175-1.35-3-.825-.787-1.8-1.2-3-1.2s-2.213.413-3 1.2zm18.71-6.15v-6.75h6.3v6.75h3.9v4.8h-3.9v5.85c0 1.725.487 2.55 1.5 2.55.187 0 .375-.038.6-.15.3-.075.525-.188.75-.3l.15-.15 1.65 5.1a9.444 9.444 0 0 1-4.65 1.2c-1.2 0-2.25-.225-3.15-.6a6.03 6.03 0 0 1-1.95-1.8 7.866 7.866 0 0 1-.9-2.1c-.225-.788-.3-1.65-.3-2.55v-7.05h-2.55v-4.8h2.55zm33.831 0-8.7 8.7 9.6 9.6h-8.1l-7.35-7.35v7.35h-6.3v-30.6h6.3v18.75l6.45-6.45h8.1zm3.296 16.05c-1.725-1.875-2.55-4.2-2.55-6.9s.825-4.95 2.55-6.75c1.8-1.875 3.975-2.85 6.6-2.85 2.4 0 4.387.75 6 2.25v-1.8h6.3v18.3h-6.3v-2.1c-1.613 1.8-3.6 2.7-6 2.7-2.625 0-4.8-.937-6.6-2.85zm5.4-9.9c-.825.825-1.2 1.875-1.2 3.15 0 1.2.375 2.213 1.2 3 .787.825 1.8 1.2 3 1.2 1.275 0 2.325-.375 3.15-1.2.787-.787 1.2-1.837 1.2-3.15 0-1.2-.45-2.175-1.35-3-.825-.787-1.8-1.2-3-1.2s-2.213.413-3 1.2zm17.66 12.15v-18.3h6.3v1.95h.15c1.575-1.575 3.3-2.4 5.1-2.4.9 0 1.8.15 2.7.45a9.41 9.41 0 0 1 2.55 1.05c.9.525 1.575 1.2 2.1 2.1.487.9.75 1.95.75 3.15v12h-6.3v-10.35c0-.9-.3-1.687-.9-2.4-.6-.675-1.425-1.05-2.4-1.05-.9 0-1.763.375-2.55 1.05-.825.713-1.2 1.5-1.2 2.4v10.35h-6.3zm-159.032 39.19c-1.725-1.875-2.55-4.2-2.55-6.9s.825-4.95 2.55-6.75c1.8-1.875 3.975-2.85 6.6-2.85 2.4 0 4.388.75 6 2.25v-1.8h6.3v18.3h-6.3v-2.1c-1.612 1.8-3.6 2.7-6 2.7-2.625 0-4.8-.938-6.6-2.85zm5.4-9.9c-.825.825-1.2 1.875-1.2 3.15 0 1.2.375 2.212 1.2 3 .788.825 1.8 1.2 3 1.2 1.275 0 2.325-.375 3.15-1.2.788-.788 1.2-1.838 1.2-3.15 0-1.2-.45-2.175-1.35-3-.825-.788-1.8-1.2-3-1.2s-2.212.412-3 1.2zm38.51-6.15-8.7 8.7 9.6 9.6h-8.1l-7.35-7.35v7.35h-6.3v-30.6h6.3v18.75l6.45-6.45h8.1z" fill="#ECEBEB"/><path d="M498.207 305.73c.975 0 1.988.15 3 .45 1.088.225 1.875.412 2.4.6l.75.3-2.1 4.2c-1.425-.788-2.775-1.2-4.05-1.2-.712 0-1.2.112-1.5.3-.3.112-.45.412-.45.9v.3c.075 0 .15.075.15.15.075.112.15.225.15.3.075 0 .188.075.3.15.188.112.338.15.45.15.075 0 .188.075.3.15.188.112.338.225.45.3.075 0 .225.075.45.15h.6c.675.225 1.275.45 1.8.75.6.3 1.2.712 1.8 1.2.6.412 1.05.975 1.35 1.65.375.6.6 1.35.6 2.25 0 4.2-2.925 6.3-8.7 6.3-1.312 0-2.55-.225-3.75-.6-1.125-.488-1.912-.938-2.4-1.35l-.9-.6 2.7-4.2c.075.112.3.3.6.6.375.225.975.525 1.8.9.788.412 1.5.6 2.1.6 1.275 0 1.95-.45 1.95-1.35 0-.375-.225-.675-.6-.9-.3-.3-.862-.525-1.65-.75-.825-.3-1.425-.6-1.8-.9-1.2-.6-2.175-1.238-2.85-1.95-.6-.788-.9-1.8-.9-3 0-1.875.675-3.338 2.1-4.35 1.5-.975 3.45-1.5 5.85-1.5zm27.976 10.5h-13.2c0 1.312.375 2.25 1.2 2.85.9.6 1.8.9 2.7.9 1.088 0 1.875-.075 2.4-.3.6-.3 1.275-.825 2.1-1.65l4.5 2.25c-1.912 3.225-5.062 4.8-9.45 4.8-2.7 0-5.062-.938-7.05-2.85-2.025-1.875-3-4.125-3-6.75 0-2.7.975-4.988 3-6.9 1.988-1.875 4.35-2.85 7.05-2.85 2.888 0 5.25.862 7.05 2.55 1.8 1.612 2.7 3.975 2.7 7.05v.9zm-13.05-3.45h6.9c-.112-.975-.45-1.725-1.05-2.25-.6-.488-1.425-.75-2.4-.75-1.012 0-1.8.3-2.4.9-.6.525-.975 1.2-1.05 2.1zm23.969-7.05c.975 0 1.988.15 3 .45 1.088.225 1.875.412 2.4.6l.75.3-2.1 4.2c-1.425-.788-2.775-1.2-4.05-1.2-.712 0-1.2.112-1.5.3-.3.112-.45.412-.45.9v.3c.075 0 .15.075.15.15.075.112.15.225.15.3.075 0 .188.075.3.15.188.112.338.15.45.15.075 0 .188.075.3.15.188.112.338.225.45.3.075 0 .225.075.45.15h.6c.675.225 1.275.45 1.8.75.6.3 1.2.712 1.8 1.2.6.412 1.05.975 1.35 1.65.375.6.6 1.35.6 2.25 0 4.2-2.925 6.3-8.7 6.3-1.312 0-2.55-.225-3.75-.6-1.125-.488-1.912-.938-2.4-1.35l-.9-.6 2.7-4.2c.075.112.3.3.6.6.375.225.975.525 1.8.9.788.412 1.5.6 2.1.6 1.275 0 1.95-.45 1.95-1.35 0-.375-.225-.675-.6-.9-.3-.3-.862-.525-1.65-.75-.825-.3-1.425-.6-1.8-.9-1.2-.6-2.175-1.238-2.85-1.95-.6-.788-.9-1.8-.9-3 0-1.875.675-3.338 2.1-4.35 1.5-.975 3.45-1.5 5.85-1.5zm40.073.45-8.7 8.7 9.6 9.6h-8.1l-7.35-7.35v7.35h-6.3v-30.6h6.3v18.75l6.45-6.45h8.1zm20.546 10.05h-13.2c0 1.312.375 2.25 1.2 2.85.9.6 1.8.9 2.7.9 1.088 0 1.875-.075 2.4-.3.6-.3 1.275-.825 2.1-1.65l4.5 2.25c-1.912 3.225-5.062 4.8-9.45 4.8-2.7 0-5.062-.938-7.05-2.85-2.025-1.875-3-4.125-3-6.75 0-2.7.975-4.988 3-6.9 1.988-1.875 4.35-2.85 7.05-2.85 2.888 0 5.25.862 7.05 2.55 1.8 1.612 2.7 3.975 2.7 7.05v.9zm-13.05-3.45h6.9c-.112-.975-.45-1.725-1.05-2.25-.6-.488-1.425-.75-2.4-.75-1.012 0-1.8.3-2.4.9-.6.525-.975 1.2-1.05 2.1zm-122.87 37.24c1.688 1.8 2.55 4.05 2.55 6.75s-.862 5.025-2.55 6.9c-1.725 1.913-3.862 2.85-6.45 2.85-2.4 0-4.425-.9-6-2.7v2.1h-6.3v-30.6h6.3v14.1c1.575-1.5 3.6-2.25 6-2.25 2.588 0 4.725.975 6.45 2.85zm-5.25 9.9c.788-.787 1.2-1.8 1.2-3 0-1.275-.412-2.325-1.2-3.15-.825-.787-1.875-1.2-3.15-1.2-1.125 0-2.1.413-3 1.2-.825.825-1.2 1.8-1.2 3 0 1.313.375 2.363 1.2 3.15.788.825 1.8 1.2 3 1.2 1.275 0 2.325-.375 3.15-1.2zm29.21-2.25h-13.2c0 1.312.375 2.25 1.2 2.85.9.6 1.8.9 2.7.9 1.088 0 1.875-.075 2.4-.3.6-.3 1.275-.825 2.1-1.65l4.5 2.25c-1.912 3.225-5.062 4.8-9.45 4.8-2.7 0-5.062-.938-7.05-2.85-2.025-1.875-3-4.125-3-6.75 0-2.7.975-4.988 3-6.9 1.988-1.875 4.35-2.85 7.05-2.85 2.888 0 5.25.862 7.05 2.55 1.8 1.612 2.7 3.975 2.7 7.05v.9zm-13.05-3.45h6.9c-.112-.975-.45-1.725-1.05-2.25-.6-.488-1.425-.75-2.4-.75-1.012 0-1.8.3-2.4.9-.6.525-.975 1.2-1.05 2.1zm16.019 11.7v-18.3h6.3v2.7h.15c0-.075.038-.188.15-.3.075-.188.3-.45.6-.75.375-.375.788-.75 1.2-1.05.375-.3.9-.525 1.5-.75a7.875 7.875 0 0 1 2.1-.3c.675 0 1.35.112 1.95.3.675.225 1.2.412 1.5.6l.45.15-2.55 5.4c-.825-.675-1.912-1.05-3.3-1.05-.825 0-1.462.225-1.95.6-.525.3-.9.712-1.2 1.2a4.308 4.308 0 0 0-.45 1.2 2.2 2.2 0 0 0-.15.75v9.6h-6.3zm18.889-2.25c-1.725-1.875-2.55-4.2-2.55-6.9s.825-4.95 2.55-6.75c1.8-1.875 3.975-2.85 6.6-2.85 2.4 0 4.388.75 6 2.25v-1.8h6.3v18.3h-6.3v-2.1c-1.612 1.8-3.6 2.7-6 2.7-2.625 0-4.8-.938-6.6-2.85zm5.4-9.9c-.825.825-1.2 1.875-1.2 3.15 0 1.2.375 2.212 1.2 3 .788.825 1.8 1.2 3 1.2 1.275 0 2.325-.375 3.15-1.2.788-.788 1.2-1.838 1.2-3.15 0-1.2-.45-2.175-1.35-3-.825-.788-1.8-1.2-3-1.2s-2.212.412-3 1.2zm16.911 16.65 5.1-2.55c.975 1.575 2.625 2.4 4.95 2.4 1.087 0 2.1-.375 3-1.05.975-.713 1.5-1.8 1.5-3.3v-1.35c-1.125 1.312-3.113 1.95-6 1.95-2.625 0-4.8-.938-6.6-2.85-1.725-1.875-2.55-4.2-2.55-6.9s.825-4.95 2.55-6.75c1.8-1.875 3.975-2.85 6.6-2.85 2.287 0 4.237.712 5.85 2.1h.15v-1.65h6.3v18.75c0 3-1.013 5.287-3 6.9-2.025 1.575-4.613 2.4-7.8 2.4-5.213 0-8.55-1.763-10.05-5.25zm7.35-16.65c-.825.825-1.2 1.875-1.2 3.15 0 1.2.375 2.212 1.2 3 .787.825 1.8 1.2 3 1.2 1.275 0 2.325-.375 3.15-1.2.787-.788 1.2-1.838 1.2-3.15 0-1.2-.45-2.175-1.35-3-.825-.788-1.8-1.2-3-1.2s-2.213.412-3 1.2zm18.86 9.9c-1.725-1.875-2.55-4.2-2.55-6.9s.825-4.95 2.55-6.75c1.8-1.875 3.975-2.85 6.6-2.85 2.4 0 4.387.75 6 2.25v-1.8h6.3v18.3h-6.3v-2.1c-1.613 1.8-3.6 2.7-6 2.7-2.625 0-4.8-.938-6.6-2.85zm5.4-9.9c-.825.825-1.2 1.875-1.2 3.15 0 1.2.375 2.212 1.2 3 .787.825 1.8 1.2 3 1.2 1.275 0 2.325-.375 3.15-1.2.787-.788 1.2-1.838 1.2-3.15 0-1.2-.45-2.175-1.35-3-.825-.788-1.8-1.2-3-1.2s-2.213.412-3 1.2zm17.66 12.15v-18.3h6.3v1.95h.15c1.575-1.575 3.3-2.4 5.1-2.4 1.388 0 2.625.3 3.75.9 1.2.525 2.1 1.312 2.7 2.4 1.8-2.175 3.788-3.3 6-3.3 1.988 0 3.675.562 5.1 1.65 1.388 1.125 2.1 2.812 2.1 5.1v12h-6.3v-10.35c0-.9-.3-1.65-.9-2.25-.525-.675-1.312-1.05-2.4-1.05-.9 0-1.612.3-2.1.9a2.438 2.438 0 0 0-.75 1.8v10.95h-6.3v-10.35c0-.9-.3-1.65-.9-2.25-.525-.675-1.275-1.05-2.25-1.05-1.012 0-1.762.3-2.25.9-.525.6-.75 1.312-.75 2.1v10.65h-6.3zm-117.399 25.54c1.688 1.8 2.55 4.05 2.55 6.75s-.862 5.025-2.55 6.9c-1.725 1.912-3.862 2.85-6.45 2.85-2.4 0-4.425-.788-6-2.4v11.1h-6.3v-27.6h6.3v2.1c1.575-1.688 3.6-2.55 6-2.55 2.588 0 4.725.975 6.45 2.85zm-5.25 9.9c.788-.788 1.2-1.8 1.2-3 0-1.275-.412-2.325-1.2-3.15-.825-.788-1.875-1.2-3.15-1.2-1.2 0-2.212.412-3 1.2-.825.825-1.2 1.8-1.2 3 0 1.312.375 2.362 1.2 3.15.9.825 1.875 1.2 3 1.2 1.275 0 2.325-.375 3.15-1.2zm11.36-22.35c.788-.787 1.688-1.2 2.7-1.2.975 0 1.838.413 2.55 1.2.788.713 1.2 1.575 1.2 2.55 0 1.013-.412 1.913-1.2 2.7-.712.713-1.575 1.05-2.55 1.05-1.012 0-1.912-.337-2.7-1.05-.712-.787-1.05-1.687-1.05-2.7 0-.975.338-1.837 1.05-2.55zm-.6 10.05v18.3h6.3v-18.3h-6.3zm10.727 18.3v-30.6h6.3v30.6h-6.3zm11.15-28.35c.787-.787 1.687-1.2 2.7-1.2.975 0 1.837.413 2.55 1.2.787.713 1.2 1.575 1.2 2.55 0 1.013-.413 1.913-1.2 2.7-.713.713-1.575 1.05-2.55 1.05-1.013 0-1.913-.337-2.7-1.05-.713-.787-1.05-1.687-1.05-2.7 0-.975.337-1.837 1.05-2.55zm-.6 10.05v18.3h6.3v-18.3h-6.3zm10.727 18.3v-30.6h6.3v14.25h.15c1.575-1.575 3.3-2.4 5.1-2.4.9 0 1.8.15 2.7.45a9.41 9.41 0 0 1 2.55 1.05c.9.525 1.575 1.2 2.1 2.1.488.9.75 1.95.75 3.15v12h-6.3v-10.35c0-.9-.3-1.687-.9-2.4-.6-.675-1.425-1.05-2.4-1.05-.9 0-1.762.375-2.55 1.05-.825.713-1.2 1.5-1.2 2.4v10.35h-6.3zm24.679-2.25c-1.725-1.875-2.55-4.2-2.55-6.9s.825-4.95 2.55-6.75c1.8-1.875 3.975-2.85 6.6-2.85 2.4 0 4.387.75 6 2.25v-1.8h6.3v18.3h-6.3v-2.1c-1.613 1.8-3.6 2.7-6 2.7-2.625 0-4.8-.938-6.6-2.85zm5.4-9.9c-.825.825-1.2 1.875-1.2 3.15 0 1.2.375 2.212 1.2 3 .787.825 1.8 1.2 3 1.2 1.275 0 2.325-.375 3.15-1.2.787-.788 1.2-1.838 1.2-3.15 0-1.2-.45-2.175-1.35-3-.825-.788-1.8-1.2-3-1.2s-2.213.412-3 1.2zm17.66 12.15v-18.3h6.3v1.95h.15c1.575-1.575 3.3-2.4 5.1-2.4.9 0 1.8.15 2.7.45.9.225 1.725.562 2.55 1.05.9.525 1.575 1.2 2.1 2.1.488.9.75 1.95.75 3.15v12h-6.3v-10.35c0-.9-.3-1.688-.9-2.4-.6-.675-1.425-1.05-2.4-1.05-.9 0-1.762.375-2.55 1.05-.825.712-1.2 1.5-1.2 2.4v10.35h-6.3zm-85.253 25.54c1.688 1.8 2.55 4.05 2.55 6.75s-.862 5.025-2.55 6.9c-1.725 1.913-3.862 2.85-6.45 2.85-2.4 0-4.425-.787-6-2.4v11.1h-6.3v-27.6h6.3v2.1c1.575-1.687 3.6-2.55 6-2.55 2.588 0 4.725.975 6.45 2.85zm-5.25 9.9c.788-.787 1.2-1.8 1.2-3 0-1.275-.412-2.325-1.2-3.15-.825-.787-1.875-1.2-3.15-1.2-1.2 0-2.212.413-3 1.2-.825.825-1.2 1.8-1.2 3 0 1.313.375 2.363 1.2 3.15.9.825 1.875 1.2 3 1.2 1.275 0 2.325-.375 3.15-1.2zm10.76 6v-18.3h6.3v2.7h.15c0-.075.038-.187.15-.3.075-.187.3-.45.6-.75.375-.375.788-.75 1.2-1.05.375-.3.9-.525 1.5-.75a7.916 7.916 0 0 1 2.1-.3c.675 0 1.35.113 1.95.3.675.225 1.2.413 1.5.6l.45.15-2.55 5.4c-.825-.675-1.912-1.05-3.3-1.05-.825 0-1.462.225-1.95.6-.525.3-.9.713-1.2 1.2a4.32 4.32 0 0 0-.45 1.2c-.112.3-.15.563-.15.75v9.6h-6.3zm19.339-2.1c-2.025-1.8-3-4.087-3-6.9 0-2.887 1.05-5.25 3.15-7.05 2.175-1.8 4.838-2.7 7.95-2.7 3 0 5.55.9 7.65 2.7 2.1 1.8 3.15 4.125 3.15 6.9 0 2.813-1.05 5.175-3.15 7.05-2.025 1.8-4.575 2.7-7.65 2.7-3.3 0-6-.9-8.1-2.7zm4.95-10.05c-.825.825-1.2 1.875-1.2 3.15 0 1.2.375 2.213 1.2 3 .788.825 1.8 1.2 3 1.2 1.275 0 2.325-.375 3.15-1.2.788-.787 1.2-1.837 1.2-3.15 0-1.2-.45-2.175-1.35-3-.825-.787-1.8-1.2-3-1.2s-2.212.413-3 1.2zm35.629-3.75c1.688 1.8 2.55 4.05 2.55 6.75s-.862 5.025-2.55 6.9c-1.725 1.913-3.862 2.85-6.45 2.85-2.4 0-4.425-.787-6-2.4v11.1h-6.3v-27.6h6.3v2.1c1.575-1.687 3.6-2.55 6-2.55 2.588 0 4.725.975 6.45 2.85zm-5.25 9.9c.788-.787 1.2-1.8 1.2-3 0-1.275-.412-2.325-1.2-3.15-.825-.787-1.875-1.2-3.15-1.2-1.2 0-2.212.413-3 1.2-.825.825-1.2 1.8-1.2 3 0 1.313.375 2.363 1.2 3.15.9.825 1.875 1.2 3 1.2 1.275 0 2.325-.375 3.15-1.2zm29.211-2.25h-13.2c0 1.313.375 2.25 1.2 2.85.9.6 1.8.9 2.7.9 1.087 0 1.875-.075 2.4-.3.6-.3 1.275-.825 2.1-1.65l4.5 2.25c-1.913 3.225-5.063 4.8-9.45 4.8-2.7 0-5.063-.937-7.05-2.85-2.025-1.875-3-4.125-3-6.75 0-2.7.975-4.987 3-6.9 1.987-1.875 4.35-2.85 7.05-2.85 2.887 0 5.25.863 7.05 2.55 1.8 1.613 2.7 3.975 2.7 7.05v.9zm-13.05-3.45h6.9c-.113-.975-.45-1.725-1.05-2.25-.6-.487-1.425-.75-2.4-.75-1.013 0-1.8.3-2.4.9-.6.525-.975 1.2-1.05 2.1zm16.018 11.7v-18.3h6.3v2.7h.15c0-.075.038-.187.15-.3.075-.187.3-.45.6-.75.375-.375.788-.75 1.2-1.05.375-.3.9-.525 1.5-.75a7.916 7.916 0 0 1 2.1-.3c.675 0 1.35.113 1.95.3.675.225 1.2.413 1.5.6l.45.15-2.55 5.4c-.825-.675-1.912-1.05-3.3-1.05-.825 0-1.462.225-1.95.6-.525.3-.9.713-1.2 1.2a4.32 4.32 0 0 0-.45 1.2c-.112.3-.15.563-.15.75v9.6h-6.3zm18.739-18.3v-6.75h6.3v6.75h3.9v4.8h-3.9v5.85c0 1.725.488 2.55 1.5 2.55.188 0 .375-.037.6-.15.3-.075.525-.187.75-.3l.15-.15 1.65 5.1a9.442 9.442 0 0 1-4.65 1.2c-1.2 0-2.25-.225-3.15-.6a6.03 6.03 0 0 1-1.95-1.8 7.917 7.917 0 0 1-.9-2.1c-.225-.787-.3-1.65-.3-2.55v-7.05h-2.55v-4.8h2.55zm13.581-10.05c.787-.787 1.687-1.2 2.7-1.2.975 0 1.837.413 2.55 1.2.787.713 1.2 1.575 1.2 2.55 0 1.013-.413 1.913-1.2 2.7-.713.713-1.575 1.05-2.55 1.05-1.013 0-1.913-.337-2.7-1.05-.713-.787-1.05-1.687-1.05-2.7 0-.975.337-1.837 1.05-2.55zm-.6 10.05v18.3h6.3v-18.3h-6.3z" fill="#ECEBEB"/></g><defs><clipPath id="a"><rect width="720" height="720" rx="60" fill="#fff"/></clipPath></defs></svg>