<svg width="720" height="720" viewBox="0 0 720 720" fill="none" xmlns="http://www.w3.org/2000/svg">
<g clip-path="url(#clip0_672_48538)">
<path d="M792 -72H-72V792H792V-72Z" fill="white"/>
<path d="M792 -72H-72V792H792V-72Z" fill="white"/>
<mask id="mask0_672_48538" style="mask-type:luminance" maskUnits="userSpaceOnUse" x="0" y="0" width="360" height="720">
<path d="M0 0H360V720H0V0Z" fill="white"/>
</mask>
<g mask="url(#mask0_672_48538)">
<path d="M0 0H360V720H0V0Z" fill="#1740C7"/>
</g>
<mask id="mask1_672_48538" style="mask-type:luminance" maskUnits="userSpaceOnUse" x="0" y="0" width="275" height="541">
<path d="M0 0H274.65V540.6H0V0Z" fill="white"/>
</mask>
<g mask="url(#mask1_672_48538)">
<mask id="mask2_672_48538" style="mask-type:luminance" maskUnits="userSpaceOnUse" x="-273" y="-7" width="546" height="546">
<path d="M-0.187489 538.575C-150.187 538.575 -272.625 416.138 -272.625 265.762C-272.625 115.762 -150.187 -6.67505 -0.187489 -6.67505C150.188 -6.67505 272.213 115.762 272.213 265.762C272.625 416.138 150.188 538.575 -0.187489 538.575ZM-0.187489 143.325C-67.5 143.325 -122.625 198.45 -122.625 265.762C-122.625 333.037 -67.5 388.163 -0.187489 388.163C67.0875 388.163 122.213 333.037 122.213 265.762C122.213 198.45 67.5 143.325 -0.187489 143.325Z" fill="white"/>
</mask>
<g mask="url(#mask2_672_48538)">
<path d="M-272.625 -6.67505H274.65V540.6H-272.625V-6.67505Z" fill="#FFDF2B"/>
</g>
</g>
<mask id="mask3_672_48538" style="mask-type:luminance" maskUnits="userSpaceOnUse" x="360" y="0" width="360" height="720">
<path d="M360 0H720V720H360V0Z" fill="white"/>
</mask>
<g mask="url(#mask3_672_48538)">
<path d="M358 0H720V720H358V0Z" fill="#1740C7"/>
</g>
<mask id="mask4_672_48538" style="mask-type:luminance" maskUnits="userSpaceOnUse" x="236" y="596" width="248" height="124">
<path d="M236.888 596.887H483.113V720H236.888V596.887Z" fill="white"/>
</mask>
<g mask="url(#mask4_672_48538)">
<mask id="mask5_672_48538" style="mask-type:luminance" maskUnits="userSpaceOnUse" x="236" y="596" width="248" height="248">
<path d="M360 596.887C292.013 596.887 236.888 652.012 236.888 720C236.888 787.987 292.013 843.112 360 843.112C427.988 843.112 483.113 787.987 483.113 720C483.113 652.012 427.988 596.887 360 596.887Z" fill="white"/>
</mask>
<g mask="url(#mask5_672_48538)">
<path d="M236.888 596.887H483.113V843.112H236.888V596.887Z" fill="#F08B33"/>
</g>
</g>
<path d="M443.051 253.64H451.601C455.689 253.64 459.139 255.065 461.951 257.84C464.839 260.652 466.301 264.14 466.301 268.34C466.301 272.54 464.839 276.065 461.951 278.84C459.139 281.652 455.689 283.04 451.601 283.04H443.051V253.64ZM449.801 277.04H450.851C453.251 277.04 455.201 276.252 456.701 274.64C458.276 272.952 459.101 270.852 459.101 268.34C459.101 265.865 458.276 263.802 456.701 262.19C455.201 260.502 453.251 259.64 450.851 259.64H449.801V277.04Z" fill="#ECEBEB"/>
<path d="M470.465 280.79C468.74 278.915 467.915 276.59 467.915 273.89C467.915 271.19 468.74 268.94 470.465 267.14C472.265 265.265 474.44 264.29 477.065 264.29C479.465 264.29 481.453 265.04 483.065 266.54V264.74H489.365V283.04H483.065V280.94C481.453 282.74 479.465 283.64 477.065 283.64C474.44 283.64 472.265 282.703 470.465 280.79ZM475.865 270.89C475.04 271.715 474.665 272.765 474.665 274.04C474.665 275.24 475.04 276.253 475.865 277.04C476.653 277.865 477.665 278.24 478.865 278.24C480.14 278.24 481.19 277.865 482.015 277.04C482.803 276.253 483.215 275.203 483.215 273.89C483.215 272.69 482.765 271.715 481.865 270.89C481.04 270.103 480.065 269.69 478.865 269.69C477.665 269.69 476.653 270.103 475.865 270.89Z" fill="#ECEBEB"/>
<path d="M512.275 267.14C513.963 268.94 514.825 271.19 514.825 273.89C514.825 276.59 513.963 278.915 512.275 280.79C510.55 282.703 508.413 283.64 505.825 283.64C503.425 283.64 501.4 282.853 499.825 281.24V292.34H493.525V264.74H499.825V266.84C501.4 265.153 503.425 264.29 505.825 264.29C508.413 264.29 510.55 265.265 512.275 267.14ZM507.025 277.04C507.813 276.253 508.225 275.24 508.225 274.04C508.225 272.765 507.813 271.715 507.025 270.89C506.2 270.103 505.15 269.69 503.875 269.69C502.675 269.69 501.663 270.103 500.875 270.89C500.05 271.715 499.675 272.69 499.675 273.89C499.675 275.203 500.05 276.253 500.875 277.04C501.775 277.865 502.75 278.24 503.875 278.24C505.15 278.24 506.2 277.865 507.025 277.04Z" fill="#ECEBEB"/>
<path d="M518.986 280.79C517.261 278.915 516.436 276.59 516.436 273.89C516.436 271.19 517.261 268.94 518.986 267.14C520.786 265.265 522.961 264.29 525.586 264.29C527.986 264.29 529.973 265.04 531.586 266.54V264.74H537.886V283.04H531.586V280.94C529.973 282.74 527.986 283.64 525.586 283.64C522.961 283.64 520.786 282.703 518.986 280.79ZM524.386 270.89C523.561 271.715 523.186 272.765 523.186 274.04C523.186 275.24 523.561 276.253 524.386 277.04C525.173 277.865 526.186 278.24 527.386 278.24C528.661 278.24 529.711 277.865 530.536 277.04C531.323 276.253 531.736 275.203 531.736 273.89C531.736 272.69 531.286 271.715 530.386 270.89C529.561 270.103 528.586 269.69 527.386 269.69C526.186 269.69 525.173 270.103 524.386 270.89Z" fill="#ECEBEB"/>
<path d="M543.096 264.74V257.99H549.396V264.74H553.296V269.54H549.396V275.39C549.396 277.115 549.883 277.94 550.896 277.94C551.083 277.94 551.271 277.902 551.496 277.79C551.796 277.715 552.021 277.602 552.246 277.49L552.396 277.34L554.046 282.44C552.621 283.227 551.083 283.64 549.396 283.64C548.196 283.64 547.146 283.415 546.246 283.04C545.421 282.552 544.783 281.952 544.296 281.24C543.883 280.565 543.583 279.852 543.396 279.14C543.171 278.352 543.096 277.49 543.096 276.59V269.54H540.546V264.74H543.096Z" fill="#ECEBEB"/>
<path d="M576.927 264.74L568.227 273.44L577.827 283.04H569.727L562.377 275.69V283.04H556.077V252.44H562.377V271.19L568.827 264.74H576.927Z" fill="#ECEBEB"/>
<path d="M580.223 280.79C578.498 278.915 577.673 276.59 577.673 273.89C577.673 271.19 578.498 268.94 580.223 267.14C582.023 265.265 584.198 264.29 586.823 264.29C589.223 264.29 591.21 265.04 592.823 266.54V264.74H599.123V283.04H592.823V280.94C591.21 282.74 589.223 283.64 586.823 283.64C584.198 283.64 582.023 282.703 580.223 280.79ZM585.623 270.89C584.798 271.715 584.423 272.765 584.423 274.04C584.423 275.24 584.798 276.253 585.623 277.04C586.41 277.865 587.423 278.24 588.623 278.24C589.898 278.24 590.948 277.865 591.773 277.04C592.56 276.253 592.973 275.203 592.973 273.89C592.973 272.69 592.523 271.715 591.623 270.89C590.798 270.103 589.823 269.69 588.623 269.69C587.423 269.69 586.41 270.103 585.623 270.89Z" fill="#ECEBEB"/>
<path d="M603.283 283.04V264.74H609.583V266.69H609.733C611.308 265.115 613.033 264.29 614.833 264.29C615.733 264.29 616.633 264.44 617.533 264.74C618.433 264.965 619.258 265.303 620.083 265.79C620.983 266.315 621.658 266.99 622.183 267.89C622.67 268.79 622.933 269.84 622.933 271.04V283.04H616.633V272.69C616.633 271.79 616.333 271.003 615.733 270.29C615.133 269.615 614.308 269.24 613.333 269.24C612.433 269.24 611.57 269.615 610.783 270.29C609.958 271.003 609.583 271.79 609.583 272.69V283.04H603.283Z" fill="#ECEBEB"/>
<path d="M444.251 322.23C442.526 320.355 441.701 318.03 441.701 315.33C441.701 312.63 442.526 310.38 444.251 308.58C446.051 306.705 448.226 305.73 450.851 305.73C453.251 305.73 455.239 306.48 456.851 307.98V306.18H463.151V324.48H456.851V322.38C455.239 324.18 453.251 325.08 450.851 325.08C448.226 325.08 446.051 324.142 444.251 322.23ZM449.651 312.33C448.826 313.155 448.451 314.205 448.451 315.48C448.451 316.68 448.826 317.692 449.651 318.48C450.439 319.305 451.451 319.68 452.651 319.68C453.926 319.68 454.976 319.305 455.801 318.48C456.589 317.692 457.001 316.642 457.001 315.33C457.001 314.13 456.551 313.155 455.651 312.33C454.826 311.542 453.851 311.13 452.651 311.13C451.451 311.13 450.439 311.542 449.651 312.33Z" fill="#ECEBEB"/>
<path d="M488.161 306.18L479.461 314.88L489.061 324.48H480.961L473.611 317.13V324.48H467.311V293.88H473.611V312.63L480.061 306.18H488.161Z" fill="#ECEBEB"/>
<path d="M498.207 305.73C499.182 305.73 500.195 305.88 501.207 306.18C502.295 306.405 503.082 306.592 503.607 306.78L504.357 307.08L502.257 311.28C500.832 310.492 499.482 310.08 498.207 310.08C497.495 310.08 497.007 310.192 496.707 310.38C496.407 310.492 496.257 310.792 496.257 311.28C496.257 311.392 496.257 311.505 496.257 311.58C496.332 311.58 496.407 311.655 496.407 311.73C496.482 311.842 496.557 311.955 496.557 312.03C496.632 312.03 496.745 312.105 496.857 312.18C497.045 312.292 497.195 312.33 497.307 312.33C497.382 312.33 497.495 312.405 497.607 312.48C497.795 312.592 497.945 312.705 498.057 312.78C498.132 312.78 498.282 312.855 498.507 312.93C498.807 312.93 498.995 312.93 499.107 312.93C499.782 313.155 500.382 313.38 500.907 313.68C501.507 313.98 502.107 314.392 502.707 314.88C503.307 315.292 503.757 315.855 504.057 316.53C504.432 317.13 504.657 317.88 504.657 318.78C504.657 322.98 501.732 325.08 495.957 325.08C494.645 325.08 493.407 324.855 492.207 324.48C491.082 323.992 490.295 323.542 489.807 323.13L488.907 322.53L491.607 318.33C491.682 318.442 491.907 318.63 492.207 318.93C492.582 319.155 493.182 319.455 494.007 319.83C494.795 320.242 495.507 320.43 496.107 320.43C497.382 320.43 498.057 319.98 498.057 319.08C498.057 318.705 497.832 318.405 497.457 318.18C497.157 317.88 496.595 317.655 495.807 317.43C494.982 317.13 494.382 316.83 494.007 316.53C492.807 315.93 491.832 315.292 491.157 314.58C490.557 313.792 490.257 312.78 490.257 311.58C490.257 309.705 490.932 308.242 492.357 307.23C493.857 306.255 495.807 305.73 498.207 305.73Z" fill="#ECEBEB"/>
<path d="M526.183 316.23H512.983C512.983 317.542 513.358 318.48 514.183 319.08C515.083 319.68 515.983 319.98 516.883 319.98C517.971 319.98 518.758 319.905 519.283 319.68C519.883 319.38 520.558 318.855 521.383 318.03L525.883 320.28C523.971 323.505 520.821 325.08 516.433 325.08C513.733 325.08 511.371 324.142 509.383 322.23C507.358 320.355 506.383 318.105 506.383 315.48C506.383 312.78 507.358 310.492 509.383 308.58C511.371 306.705 513.733 305.73 516.433 305.73C519.321 305.73 521.683 306.592 523.483 308.28C525.283 309.892 526.183 312.255 526.183 315.33C526.183 315.855 526.183 316.155 526.183 316.23ZM513.133 312.78H520.033C519.921 311.805 519.583 311.055 518.983 310.53C518.383 310.042 517.558 309.78 516.583 309.78C515.571 309.78 514.783 310.08 514.183 310.68C513.583 311.205 513.208 311.88 513.133 312.78Z" fill="#ECEBEB"/>
<path d="M537.102 305.73C538.077 305.73 539.09 305.88 540.102 306.18C541.19 306.405 541.977 306.592 542.502 306.78L543.252 307.08L541.152 311.28C539.727 310.492 538.377 310.08 537.102 310.08C536.39 310.08 535.902 310.192 535.602 310.38C535.302 310.492 535.152 310.792 535.152 311.28C535.152 311.392 535.152 311.505 535.152 311.58C535.227 311.58 535.302 311.655 535.302 311.73C535.377 311.842 535.452 311.955 535.452 312.03C535.527 312.03 535.64 312.105 535.752 312.18C535.94 312.292 536.09 312.33 536.202 312.33C536.277 312.33 536.39 312.405 536.502 312.48C536.69 312.592 536.84 312.705 536.952 312.78C537.027 312.78 537.177 312.855 537.402 312.93C537.702 312.93 537.89 312.93 538.002 312.93C538.677 313.155 539.277 313.38 539.802 313.68C540.402 313.98 541.002 314.392 541.602 314.88C542.202 315.292 542.652 315.855 542.952 316.53C543.327 317.13 543.552 317.88 543.552 318.78C543.552 322.98 540.627 325.08 534.852 325.08C533.54 325.08 532.302 324.855 531.102 324.48C529.977 323.992 529.19 323.542 528.702 323.13L527.802 322.53L530.502 318.33C530.577 318.442 530.802 318.63 531.102 318.93C531.477 319.155 532.077 319.455 532.902 319.83C533.69 320.242 534.402 320.43 535.002 320.43C536.277 320.43 536.952 319.98 536.952 319.08C536.952 318.705 536.727 318.405 536.352 318.18C536.052 317.88 535.49 317.655 534.702 317.43C533.877 317.13 533.277 316.83 532.902 316.53C531.702 315.93 530.727 315.292 530.052 314.58C529.452 313.792 529.152 312.78 529.152 311.58C529.152 309.705 529.827 308.242 531.252 307.23C532.752 306.255 534.702 305.73 537.102 305.73Z" fill="#ECEBEB"/>
<path d="M577.175 306.18L568.475 314.88L578.075 324.48H569.975L562.625 317.13V324.48H556.325V293.88H562.625V312.63L569.075 306.18H577.175Z" fill="#ECEBEB"/>
<path d="M597.721 316.23H584.521C584.521 317.542 584.896 318.48 585.721 319.08C586.621 319.68 587.521 319.98 588.421 319.98C589.509 319.98 590.296 319.905 590.821 319.68C591.421 319.38 592.096 318.855 592.921 318.03L597.421 320.28C595.509 323.505 592.359 325.08 587.971 325.08C585.271 325.08 582.909 324.142 580.921 322.23C578.896 320.355 577.921 318.105 577.921 315.48C577.921 312.78 578.896 310.492 580.921 308.58C582.909 306.705 585.271 305.73 587.971 305.73C590.859 305.73 593.221 306.592 595.021 308.28C596.821 309.892 597.721 312.255 597.721 315.33C597.721 315.855 597.721 316.155 597.721 316.23ZM584.671 312.78H591.571C591.459 311.805 591.121 311.055 590.521 310.53C589.921 310.042 589.096 309.78 588.121 309.78C587.109 309.78 586.321 310.08 585.721 310.68C585.121 311.205 584.746 311.88 584.671 312.78Z" fill="#ECEBEB"/>
<path d="M461.801 350.02C463.489 351.82 464.351 354.07 464.351 356.77C464.351 359.47 463.489 361.795 461.801 363.67C460.076 365.583 457.939 366.52 455.351 366.52C452.951 366.52 450.926 365.62 449.351 363.82V365.92H443.051V335.32H449.351V349.42C450.926 347.92 452.951 347.17 455.351 347.17C457.939 347.17 460.076 348.145 461.801 350.02ZM456.551 359.92C457.339 359.133 457.751 358.12 457.751 356.92C457.751 355.645 457.339 354.595 456.551 353.77C455.726 352.983 454.676 352.57 453.401 352.57C452.276 352.57 451.301 352.983 450.401 353.77C449.576 354.595 449.201 355.57 449.201 356.77C449.201 358.083 449.576 359.133 450.401 359.92C451.189 360.745 452.201 361.12 453.401 361.12C454.676 361.12 455.726 360.745 456.551 359.92Z" fill="#ECEBEB"/>
<path d="M485.761 357.67H472.561C472.561 358.982 472.936 359.92 473.761 360.52C474.661 361.12 475.561 361.42 476.461 361.42C477.549 361.42 478.336 361.345 478.861 361.12C479.461 360.82 480.136 360.295 480.961 359.47L485.461 361.72C483.549 364.945 480.399 366.52 476.011 366.52C473.311 366.52 470.949 365.582 468.961 363.67C466.936 361.795 465.961 359.545 465.961 356.92C465.961 354.22 466.936 351.932 468.961 350.02C470.949 348.145 473.311 347.17 476.011 347.17C478.899 347.17 481.261 348.032 483.061 349.72C484.861 351.332 485.761 353.695 485.761 356.77C485.761 357.295 485.761 357.595 485.761 357.67ZM472.711 354.22H479.611C479.499 353.245 479.161 352.495 478.561 351.97C477.961 351.482 477.136 351.22 476.161 351.22C475.149 351.22 474.361 351.52 473.761 352.12C473.161 352.645 472.786 353.32 472.711 354.22Z" fill="#ECEBEB"/>
<path d="M488.73 365.92V347.62H495.03V350.32H495.18C495.18 350.245 495.218 350.132 495.33 350.02C495.405 349.832 495.63 349.57 495.93 349.27C496.305 348.895 496.718 348.52 497.13 348.22C497.505 347.92 498.03 347.695 498.63 347.47C499.305 347.282 500.018 347.17 500.73 347.17C501.405 347.17 502.08 347.282 502.68 347.47C503.355 347.695 503.88 347.882 504.18 348.07L504.63 348.22L502.08 353.62C501.255 352.945 500.168 352.57 498.78 352.57C497.955 352.57 497.318 352.795 496.83 353.17C496.305 353.47 495.93 353.882 495.63 354.37C495.405 354.782 495.255 355.195 495.18 355.57C495.068 355.87 495.03 356.132 495.03 356.32V365.92H488.73Z" fill="#ECEBEB"/>
<path d="M507.619 363.67C505.894 361.795 505.069 359.47 505.069 356.77C505.069 354.07 505.894 351.82 507.619 350.02C509.419 348.145 511.594 347.17 514.219 347.17C516.619 347.17 518.607 347.92 520.219 349.42V347.62H526.519V365.92H520.219V363.82C518.607 365.62 516.619 366.52 514.219 366.52C511.594 366.52 509.419 365.582 507.619 363.67ZM513.019 353.77C512.194 354.595 511.819 355.645 511.819 356.92C511.819 358.12 512.194 359.132 513.019 359.92C513.807 360.745 514.819 361.12 516.019 361.12C517.294 361.12 518.344 360.745 519.169 359.92C519.957 359.132 520.369 358.082 520.369 356.77C520.369 355.57 519.919 354.595 519.019 353.77C518.194 352.982 517.219 352.57 516.019 352.57C514.819 352.57 513.807 352.982 513.019 353.77Z" fill="#ECEBEB"/>
<path d="M529.93 370.42L535.03 367.87C536.005 369.445 537.655 370.27 539.98 370.27C541.067 370.27 542.08 369.895 542.98 369.22C543.955 368.507 544.48 367.42 544.48 365.92V364.57C543.355 365.882 541.367 366.52 538.48 366.52C535.855 366.52 533.68 365.582 531.88 363.67C530.155 361.795 529.33 359.47 529.33 356.77C529.33 354.07 530.155 351.82 531.88 350.02C533.68 348.145 535.855 347.17 538.48 347.17C540.767 347.17 542.717 347.882 544.33 349.27H544.48V347.62H550.78V366.37C550.78 369.37 549.767 371.657 547.78 373.27C545.755 374.845 543.167 375.67 539.98 375.67C534.767 375.67 531.43 373.907 529.93 370.42ZM537.28 353.77C536.455 354.595 536.08 355.645 536.08 356.92C536.08 358.12 536.455 359.132 537.28 359.92C538.067 360.745 539.08 361.12 540.28 361.12C541.555 361.12 542.605 360.745 543.43 359.92C544.217 359.132 544.63 358.082 544.63 356.77C544.63 355.57 544.18 354.595 543.28 353.77C542.455 352.982 541.48 352.57 540.28 352.57C539.08 352.57 538.067 352.982 537.28 353.77Z" fill="#ECEBEB"/>
<path d="M556.14 363.67C554.415 361.795 553.59 359.47 553.59 356.77C553.59 354.07 554.415 351.82 556.14 350.02C557.94 348.145 560.115 347.17 562.74 347.17C565.14 347.17 567.127 347.92 568.74 349.42V347.62H575.04V365.92H568.74V363.82C567.127 365.62 565.14 366.52 562.74 366.52C560.115 366.52 557.94 365.582 556.14 363.67ZM561.54 353.77C560.715 354.595 560.34 355.645 560.34 356.92C560.34 358.12 560.715 359.132 561.54 359.92C562.327 360.745 563.34 361.12 564.54 361.12C565.815 361.12 566.865 360.745 567.69 359.92C568.477 359.132 568.89 358.082 568.89 356.77C568.89 355.57 568.44 354.595 567.54 353.77C566.715 352.982 565.74 352.57 564.54 352.57C563.34 352.57 562.327 352.982 561.54 353.77Z" fill="#ECEBEB"/>
<path d="M579.2 365.92V347.62H585.5V349.57H585.65C587.225 347.995 588.95 347.17 590.75 347.17C592.138 347.17 593.375 347.47 594.5 348.07C595.7 348.595 596.6 349.382 597.2 350.47C599 348.295 600.988 347.17 603.2 347.17C605.188 347.17 606.875 347.732 608.3 348.82C609.688 349.945 610.4 351.632 610.4 353.92V365.92H604.1V355.57C604.1 354.67 603.8 353.92 603.2 353.32C602.675 352.645 601.888 352.27 600.8 352.27C599.9 352.27 599.188 352.57 598.7 353.17C598.175 353.695 597.95 354.295 597.95 354.97V365.92H591.65V355.57C591.65 354.67 591.35 353.92 590.75 353.32C590.225 352.645 589.475 352.27 588.5 352.27C587.488 352.27 586.738 352.57 586.25 353.17C585.725 353.77 585.5 354.482 585.5 355.27V365.92H579.2Z" fill="#ECEBEB"/>
<path d="M461.801 391.46C463.489 393.26 464.351 395.51 464.351 398.21C464.351 400.91 463.489 403.235 461.801 405.11C460.076 407.022 457.939 407.96 455.351 407.96C452.951 407.96 450.926 407.172 449.351 405.56V416.66H443.051V389.06H449.351V391.16C450.926 389.472 452.951 388.61 455.351 388.61C457.939 388.61 460.076 389.585 461.801 391.46ZM456.551 401.36C457.339 400.572 457.751 399.56 457.751 398.36C457.751 397.085 457.339 396.035 456.551 395.21C455.726 394.422 454.676 394.01 453.401 394.01C452.201 394.01 451.189 394.422 450.401 395.21C449.576 396.035 449.201 397.01 449.201 398.21C449.201 399.522 449.576 400.572 450.401 401.36C451.301 402.185 452.276 402.56 453.401 402.56C454.676 402.56 455.726 402.185 456.551 401.36Z" fill="#ECEBEB"/>
<path d="M467.911 379.01C468.699 378.223 469.599 377.81 470.611 377.81C471.586 377.81 472.449 378.223 473.161 379.01C473.949 379.723 474.361 380.585 474.361 381.56C474.361 382.573 473.949 383.473 473.161 384.26C472.449 384.973 471.586 385.31 470.611 385.31C469.599 385.31 468.699 384.973 467.911 384.26C467.199 383.473 466.861 382.573 466.861 381.56C466.861 380.585 467.199 379.723 467.911 379.01ZM467.311 389.06V407.36H473.611V389.06H467.311Z" fill="#ECEBEB"/>
<path d="M478.038 407.36V376.76H484.338V407.36H478.038Z" fill="#ECEBEB"/>
<path d="M489.188 379.01C489.975 378.223 490.875 377.81 491.888 377.81C492.863 377.81 493.725 378.223 494.438 379.01C495.225 379.723 495.638 380.585 495.638 381.56C495.638 382.573 495.225 383.473 494.438 384.26C493.725 384.973 492.863 385.31 491.888 385.31C490.875 385.31 489.975 384.973 489.188 384.26C488.475 383.473 488.138 382.573 488.138 381.56C488.138 380.585 488.475 379.723 489.188 379.01ZM488.588 389.06V407.36H494.888V389.06H488.588Z" fill="#ECEBEB"/>
<path d="M499.315 407.36V376.76H505.615V391.01H505.765C507.34 389.435 509.065 388.61 510.865 388.61C511.765 388.61 512.665 388.76 513.565 389.06C514.465 389.285 515.29 389.623 516.115 390.11C517.015 390.635 517.69 391.31 518.215 392.21C518.703 393.11 518.965 394.16 518.965 395.36V407.36H512.665V397.01C512.665 396.11 512.365 395.323 511.765 394.61C511.165 393.935 510.34 393.56 509.365 393.56C508.465 393.56 507.603 393.935 506.815 394.61C505.99 395.323 505.615 396.11 505.615 397.01V407.36H499.315Z" fill="#ECEBEB"/>
<path d="M523.994 405.11C522.269 403.235 521.444 400.91 521.444 398.21C521.444 395.51 522.269 393.26 523.994 391.46C525.794 389.585 527.969 388.61 530.594 388.61C532.994 388.61 534.981 389.36 536.594 390.86V389.06H542.894V407.36H536.594V405.26C534.981 407.06 532.994 407.96 530.594 407.96C527.969 407.96 525.794 407.022 523.994 405.11ZM529.394 395.21C528.569 396.035 528.194 397.085 528.194 398.36C528.194 399.56 528.569 400.572 529.394 401.36C530.181 402.185 531.194 402.56 532.394 402.56C533.669 402.56 534.719 402.185 535.544 401.36C536.331 400.572 536.744 399.522 536.744 398.21C536.744 397.01 536.294 396.035 535.394 395.21C534.569 394.422 533.594 394.01 532.394 394.01C531.194 394.01 530.181 394.422 529.394 395.21Z" fill="#ECEBEB"/>
<path d="M547.054 407.36V389.06H553.354V391.01H553.504C555.079 389.435 556.804 388.61 558.604 388.61C559.504 388.61 560.404 388.76 561.304 389.06C562.204 389.285 563.029 389.622 563.854 390.11C564.754 390.635 565.429 391.31 565.954 392.21C566.442 393.11 566.704 394.16 566.704 395.36V407.36H560.404V397.01C560.404 396.11 560.104 395.322 559.504 394.61C558.904 393.935 558.079 393.56 557.104 393.56C556.204 393.56 555.342 393.935 554.554 394.61C553.729 395.322 553.354 396.11 553.354 397.01V407.36H547.054Z" fill="#ECEBEB"/>
<path d="M461.801 432.9C463.489 434.7 464.351 436.95 464.351 439.65C464.351 442.35 463.489 444.675 461.801 446.55C460.076 448.463 457.939 449.4 455.351 449.4C452.951 449.4 450.926 448.613 449.351 447V458.1H443.051V430.5H449.351V432.6C450.926 430.913 452.951 430.05 455.351 430.05C457.939 430.05 460.076 431.025 461.801 432.9ZM456.551 442.8C457.339 442.013 457.751 441 457.751 439.8C457.751 438.525 457.339 437.475 456.551 436.65C455.726 435.863 454.676 435.45 453.401 435.45C452.201 435.45 451.189 435.863 450.401 436.65C449.576 437.475 449.201 438.45 449.201 439.65C449.201 440.963 449.576 442.013 450.401 442.8C451.301 443.625 452.276 444 453.401 444C454.676 444 455.726 443.625 456.551 442.8Z" fill="#ECEBEB"/>
<path d="M467.311 448.8V430.5H473.611V433.2H473.761C473.761 433.125 473.799 433.013 473.911 432.9C473.986 432.713 474.211 432.45 474.511 432.15C474.886 431.775 475.299 431.4 475.711 431.1C476.086 430.8 476.611 430.575 477.211 430.35C477.886 430.163 478.599 430.05 479.311 430.05C479.986 430.05 480.661 430.163 481.261 430.35C481.936 430.575 482.461 430.763 482.761 430.95L483.211 431.1L480.661 436.5C479.836 435.825 478.749 435.45 477.361 435.45C476.536 435.45 475.899 435.675 475.411 436.05C474.886 436.35 474.511 436.763 474.211 437.25C473.986 437.663 473.836 438.075 473.761 438.45C473.649 438.75 473.611 439.013 473.611 439.2V448.8H467.311Z" fill="#ECEBEB"/>
<path d="M486.65 446.7C484.625 444.9 483.65 442.613 483.65 439.8C483.65 436.913 484.7 434.55 486.8 432.75C488.975 430.95 491.638 430.05 494.75 430.05C497.75 430.05 500.3 430.95 502.4 432.75C504.5 434.55 505.55 436.875 505.55 439.65C505.55 442.463 504.5 444.825 502.4 446.7C500.375 448.5 497.825 449.4 494.75 449.4C491.45 449.4 488.75 448.5 486.65 446.7ZM491.6 436.65C490.775 437.475 490.4 438.525 490.4 439.8C490.4 441 490.775 442.013 491.6 442.8C492.388 443.625 493.4 444 494.6 444C495.875 444 496.925 443.625 497.75 442.8C498.538 442.013 498.95 440.963 498.95 439.65C498.95 438.45 498.5 437.475 497.6 436.65C496.775 435.863 495.8 435.45 494.6 435.45C493.4 435.45 492.388 435.863 491.6 436.65Z" fill="#ECEBEB"/>
<path d="M527.229 432.9C528.917 434.7 529.779 436.95 529.779 439.65C529.779 442.35 528.917 444.675 527.229 446.55C525.504 448.463 523.367 449.4 520.779 449.4C518.379 449.4 516.354 448.613 514.779 447V458.1H508.479V430.5H514.779V432.6C516.354 430.913 518.379 430.05 520.779 430.05C523.367 430.05 525.504 431.025 527.229 432.9ZM521.979 442.8C522.767 442.013 523.179 441 523.179 439.8C523.179 438.525 522.767 437.475 521.979 436.65C521.154 435.863 520.104 435.45 518.829 435.45C517.629 435.45 516.617 435.863 515.829 436.65C515.004 437.475 514.629 438.45 514.629 439.65C514.629 440.963 515.004 442.013 515.829 442.8C516.729 443.625 517.704 444 518.829 444C520.104 444 521.154 443.625 521.979 442.8Z" fill="#ECEBEB"/>
<path d="M551.19 440.55H537.99C537.99 441.863 538.365 442.8 539.19 443.4C540.09 444 540.99 444.3 541.89 444.3C542.977 444.3 543.765 444.225 544.29 444C544.89 443.7 545.565 443.175 546.39 442.35L550.89 444.6C548.977 447.825 545.827 449.4 541.44 449.4C538.74 449.4 536.377 448.463 534.39 446.55C532.365 444.675 531.39 442.425 531.39 439.8C531.39 437.1 532.365 434.813 534.39 432.9C536.377 431.025 538.74 430.05 541.44 430.05C544.327 430.05 546.69 430.913 548.49 432.6C550.29 434.213 551.19 436.575 551.19 439.65C551.19 440.175 551.19 440.475 551.19 440.55ZM538.14 437.1H545.04C544.927 436.125 544.59 435.375 543.99 434.85C543.39 434.363 542.565 434.1 541.59 434.1C540.577 434.1 539.79 434.4 539.19 435C538.59 435.525 538.215 436.2 538.14 437.1Z" fill="#ECEBEB"/>
<path d="M554.158 448.8V430.5H560.458V433.2H560.608C560.608 433.125 560.646 433.013 560.758 432.9C560.833 432.713 561.058 432.45 561.358 432.15C561.733 431.775 562.146 431.4 562.558 431.1C562.933 430.8 563.458 430.575 564.058 430.35C564.733 430.163 565.446 430.05 566.158 430.05C566.833 430.05 567.508 430.163 568.108 430.35C568.783 430.575 569.308 430.763 569.608 430.95L570.058 431.1L567.508 436.5C566.683 435.825 565.596 435.45 564.208 435.45C563.383 435.45 562.746 435.675 562.258 436.05C561.733 436.35 561.358 436.763 561.058 437.25C560.833 437.663 560.683 438.075 560.608 438.45C560.496 438.75 560.458 439.013 560.458 439.2V448.8H554.158Z" fill="#ECEBEB"/>
<path d="M572.897 430.5V423.75H579.197V430.5H583.097V435.3H579.197V441.15C579.197 442.875 579.685 443.7 580.697 443.7C580.885 443.7 581.072 443.663 581.297 443.55C581.597 443.475 581.822 443.363 582.047 443.25L582.197 443.1L583.847 448.2C582.422 448.987 580.885 449.4 579.197 449.4C577.997 449.4 576.947 449.175 576.047 448.8C575.222 448.312 574.585 447.713 574.097 447C573.685 446.325 573.385 445.613 573.197 444.9C572.972 444.113 572.897 443.25 572.897 442.35V435.3H570.347V430.5H572.897Z" fill="#ECEBEB"/>
<path d="M586.478 420.45C587.265 419.663 588.165 419.25 589.178 419.25C590.153 419.25 591.015 419.663 591.728 420.45C592.515 421.163 592.928 422.025 592.928 423C592.928 424.013 592.515 424.913 591.728 425.7C591.015 426.413 590.153 426.75 589.178 426.75C588.165 426.75 587.265 426.413 586.478 425.7C585.765 424.913 585.428 424.013 585.428 423C585.428 422.025 585.765 421.163 586.478 420.45ZM585.878 430.5V448.8H592.178V430.5H585.878Z" fill="#ECEBEB"/>
</g>
<defs>
<clipPath id="clip0_672_48538">
<rect width="720" height="720" rx="60" fill="white"/>
</clipPath>
</defs>
</svg>
