<svg width="720" height="720" fill="none" xmlns="http://www.w3.org/2000/svg"><g clip-path="url(#a)"><path d="M792-72H-72v864h864V-72z" fill="#fff"/><path d="M792-72H-72v864h864V-72z" fill="#1740C7"/><mask id="b" style="mask-type:luminance" maskUnits="userSpaceOnUse" x="0" y="0" width="360" height="720"><path d="M0 0h360v720H0V0z" fill="#fff"/></mask><g mask="url(#b)"><path d="M0 0h360v720H0V0z" fill="#FFDF2B"/></g><mask id="c" style="mask-type:luminance" maskUnits="userSpaceOnUse" x="0" y="583" width="137" height="137"><path d="M0 583h136.8v137H0V583z" fill="#fff"/></mask><g mask="url(#c)"><path d="M0 583h137v137H0V583z" fill="#1740C7"/></g><mask id="d" style="mask-type:luminance" maskUnits="userSpaceOnUse" x="180" y="0" width="180" height="180"><path d="M180 0h180v180H180V0z" fill="#fff"/></mask><g mask="url(#d)"><mask id="e" style="mask-type:luminance" maskUnits="userSpaceOnUse" x="180" y="0" width="180" height="180"><path d="M270 0c-49.687 0-90 40.313-90 90 0 49.688 40.313 90 90 90 49.688 0 90-40.312 90-90S319.688 0 270 0z" fill="#fff"/></mask><g mask="url(#e)"><path d="M180 0h180v180H180V0z" fill="#F08B33"/></g></g><path d="M441.584 212.2h10.5c2.775 0 5.1.825 6.9 2.4 1.8 1.5 2.7 3.675 2.7 6.45 0 2.1-.563 3.9-1.65 5.4-1.125 1.425-2.55 2.4-4.35 3l10.05 12.15h-8.55l-8.85-11.55v11.55h-6.75v-29.4zm6.75 13.05h2.25c.487 0 .975-.038 1.5-.15.6-.188 1.05-.375 1.35-.6.3-.3.525-.675.75-1.2.3-.488.45-1.088.45-1.8 0-.675-.15-1.275-.45-1.8-.225-.488-.45-.9-.75-1.2-.3-.3-.75-.488-1.35-.6-.525-.188-1.013-.3-1.5-.3h-2.25v7.65zm19.883 14.1c-1.726-1.875-2.55-4.2-2.55-6.9s.824-4.95 2.55-6.75c1.8-1.875 3.974-2.85 6.6-2.85 2.4 0 4.387.75 6 2.25v-1.8h6.3v18.3h-6.3v-2.1c-1.613 1.8-3.6 2.7-6 2.7-2.626 0-4.8-.938-6.6-2.85zm5.4-9.9c-.826.825-1.2 1.875-1.2 3.15 0 1.2.374 2.212 1.2 3 .787.825 1.8 1.2 3 1.2 1.274 0 2.325-.375 3.15-1.2.787-.788 1.2-1.838 1.2-3.15 0-1.2-.45-2.175-1.35-3-.826-.788-1.8-1.2-3-1.2s-2.213.412-3 1.2zm25.61-6.6c.975 0 1.987.15 3 .45 1.087.225 1.875.412 2.4.6l.75.3-2.1 4.2c-1.425-.788-2.775-1.2-4.05-1.2-.713 0-1.2.112-1.5.3-.3.112-.45.412-.45.9v.3c.075 0 .15.075.15.15.075.112.15.225.15.3.075 0 .187.075.3.15.187.112.337.15.45.15.075 0 .187.075.3.15.187.112.337.225.45.3.075 0 .225.075.45.15h.6c.675.225 1.275.45 1.8.75.6.3 1.2.712 1.8 1.2.6.412 1.05.975 1.35 1.65.375.6.6 1.35.6 2.25 0 4.2-2.925 6.3-8.7 6.3-1.313 0-2.55-.225-3.75-.6-1.125-.488-1.913-.938-2.4-1.35l-.9-.6 2.7-4.2c.075.112.3.3.6.6.375.225.975.525 1.8.9.787.412 1.5.6 2.1.6 1.275 0 1.95-.45 1.95-1.35 0-.375-.225-.675-.6-.9-.3-.3-.863-.525-1.65-.75-.825-.3-1.425-.6-1.8-.9-1.2-.6-2.175-1.238-2.85-1.95-.6-.788-.9-1.8-.9-3 0-1.875.675-3.338 2.1-4.35 1.5-.975 3.45-1.5 5.85-1.5zm10.726 16.5c-1.725-1.875-2.55-4.2-2.55-6.9s.825-4.95 2.55-6.75c1.8-1.875 3.975-2.85 6.6-2.85 2.4 0 4.387.75 6 2.25v-1.8h6.3v18.3h-6.3v-2.1c-1.613 1.8-3.6 2.7-6 2.7-2.625 0-4.8-.938-6.6-2.85zm5.4-9.9c-.825.825-1.2 1.875-1.2 3.15 0 1.2.375 2.212 1.2 3 .787.825 1.8 1.2 3 1.2 1.275 0 2.325-.375 3.15-1.2.787-.788 1.2-1.838 1.2-3.15 0-1.2-.45-2.175-1.35-3-.825-.788-1.8-1.2-3-1.2s-2.213.412-3 1.2zm38.51-6.15-8.7 8.7 9.6 9.6h-8.1l-7.35-7.35v7.35h-6.3V211h6.3v18.75l6.45-6.45h8.1zm3.296 16.05c-1.725-1.875-2.55-4.2-2.55-6.9s.825-4.95 2.55-6.75c1.8-1.875 3.975-2.85 6.6-2.85 2.4 0 4.388.75 6 2.25v-1.8h6.3v18.3h-6.3v-2.1c-1.612 1.8-3.6 2.7-6 2.7-2.625 0-4.8-.938-6.6-2.85zm5.4-9.9c-.825.825-1.2 1.875-1.2 3.15 0 1.2.375 2.212 1.2 3 .788.825 1.8 1.2 3 1.2 1.275 0 2.325-.375 3.15-1.2.788-.788 1.2-1.838 1.2-3.15 0-1.2-.45-2.175-1.35-3-.825-.788-1.8-1.2-3-1.2s-2.212.412-3 1.2zm17.661 12.15v-18.3h6.3v1.95h.15c1.575-1.575 3.3-2.4 5.1-2.4.9 0 1.8.15 2.7.45.9.225 1.725.562 2.55 1.05.9.525 1.575 1.2 2.1 2.1.487.9.75 1.95.75 3.15v12h-6.3v-10.35c0-.9-.3-1.688-.9-2.4-.6-.675-1.425-1.05-2.4-1.05-.9 0-1.763.375-2.55 1.05-.825.712-1.2 1.5-1.2 2.4v10.35h-6.3zm-120.186 33.19h-13.2c0 1.313.375 2.25 1.2 2.85.9.6 1.8.9 2.7.9 1.088 0 1.875-.075 2.4-.3.6-.3 1.275-.825 2.1-1.65l4.5 2.25c-1.912 3.225-5.062 4.8-9.45 4.8-2.7 0-5.062-.937-7.05-2.85-2.025-1.875-3-4.125-3-6.75 0-2.7.975-4.987 3-6.9 1.988-1.875 4.35-2.85 7.05-2.85 2.888 0 5.25.863 7.05 2.55 1.8 1.613 2.7 3.975 2.7 7.05v.9zm-13.05-3.45h6.9c-.112-.975-.45-1.725-1.05-2.25-.6-.487-1.425-.75-2.4-.75-1.012 0-1.8.3-2.4.9-.6.525-.975 1.2-1.05 2.1zm17.069-6.6v-3.75c.075-2.775.75-4.988 1.95-6.6 1.275-1.575 3.037-2.4 5.25-2.4.9 0 1.8.15 2.7.45.9.225 1.537.45 1.95.75l.6.45-2.25 4.35c-.6-.3-1.275-.45-1.95-.45-.825 0-1.35.262-1.65.75-.225.525-.3 1.462-.3 2.85v3.6h4.2v4.8h-4.2v13.5h-6.3v-13.5h-2.55v-4.8h2.55z" fill="#ECEBEB"/><path d="M476.923 254.69c.787-.788 1.687-1.2 2.7-1.2.975 0 1.837.412 2.55 1.2.787.712 1.2 1.575 1.2 2.55 0 1.012-.413 1.912-1.2 2.7-.713.712-1.575 1.05-2.55 1.05-1.013 0-1.913-.338-2.7-1.05-.713-.788-1.05-1.688-1.05-2.7 0-.975.337-1.838 1.05-2.55zm-.6 10.05v18.3h6.3v-18.3h-6.3zm18.677-.45c.975 0 1.987.15 3 .45 1.087.225 1.875.413 2.4.6l.75.3-2.1 4.2c-1.425-.787-2.775-1.2-4.05-1.2-.713 0-1.2.113-1.5.3-.3.113-.45.413-.45.9v.3c.075 0 .15.075.15.15.075.113.15.225.15.3.075 0 .187.075.3.15.187.113.337.15.45.15.075 0 .187.075.3.15.187.113.337.225.45.3.075 0 .225.075.45.15h.6c.675.225 1.275.45 1.8.75.6.3 1.2.713 1.8 1.2.6.413 1.05.975 1.35 1.65.375.6.6 1.35.6 2.25 0 4.2-2.925 6.3-8.7 6.3-1.313 0-2.55-.225-3.75-.6-1.125-.487-1.913-.937-2.4-1.35l-.9-.6 2.7-4.2c.075.113.3.3.6.6.375.225.975.525 1.8.9.787.413 1.5.6 2.1.6 1.275 0 1.95-.45 1.95-1.35 0-.375-.225-.675-.6-.9-.3-.3-.863-.525-1.65-.75-.825-.3-1.425-.6-1.8-.9-1.2-.6-2.175-1.237-2.85-1.95-.6-.787-.9-1.8-.9-3 0-1.875.675-3.337 2.1-4.35 1.5-.975 3.45-1.5 5.85-1.5zm10.126-9.6c.787-.788 1.687-1.2 2.7-1.2.975 0 1.837.412 2.55 1.2.787.712 1.2 1.575 1.2 2.55 0 1.012-.413 1.912-1.2 2.7-.713.712-1.575 1.05-2.55 1.05-1.013 0-1.913-.338-2.7-1.05-.713-.788-1.05-1.688-1.05-2.7 0-.975.337-1.838 1.05-2.55zm-.6 10.05v18.3h6.3v-18.3h-6.3zm29.177 10.05h-13.2c0 1.313.375 2.25 1.2 2.85.9.6 1.8.9 2.7.9 1.088 0 1.875-.075 2.4-.3.6-.3 1.275-.825 2.1-1.65l4.5 2.25c-1.912 3.225-5.062 4.8-9.45 4.8-2.7 0-5.062-.937-7.05-2.85-2.025-1.875-3-4.125-3-6.75 0-2.7.975-4.987 3-6.9 1.988-1.875 4.35-2.85 7.05-2.85 2.888 0 5.25.863 7.05 2.55 1.8 1.613 2.7 3.975 2.7 7.05v.9zm-13.05-3.45h6.9c-.112-.975-.45-1.725-1.05-2.25-.6-.487-1.425-.75-2.4-.75-1.012 0-1.8.3-2.4.9-.6.525-.975 1.2-1.05 2.1zm16.019 11.7v-18.3h6.3v1.95h.15c1.575-1.575 3.3-2.4 5.1-2.4.9 0 1.8.15 2.7.45a9.41 9.41 0 0 1 2.55 1.05c.9.525 1.575 1.2 2.1 2.1.487.9.75 1.95.75 3.15v12h-6.3v-10.35c0-.9-.3-1.687-.9-2.4-.6-.675-1.425-1.05-2.4-1.05-.9 0-1.763.375-2.55 1.05-.825.713-1.2 1.5-1.2 2.4v10.35h-6.3zm31.429-18.75c.975 0 1.987.15 3 .45 1.087.225 1.875.413 2.4.6l.75.3-2.1 4.2c-1.425-.787-2.775-1.2-4.05-1.2-.713 0-1.2.113-1.5.3-.3.113-.45.413-.45.9v.3c.075 0 .15.075.15.15.075.113.15.225.15.3.075 0 .187.075.3.15.187.113.337.15.45.15.075 0 .187.075.3.15.187.113.337.225.45.3.075 0 .225.075.45.15h.6c.675.225 1.275.45 1.8.75.6.3 1.2.713 1.8 1.2.6.413 1.05.975 1.35 1.65.375.6.6 1.35.6 2.25 0 4.2-2.925 6.3-8.7 6.3-1.313 0-2.55-.225-3.75-.6-1.125-.487-1.913-.937-2.4-1.35l-.9-.6 2.7-4.2c.075.113.3.3.6.6.375.225.975.525 1.8.9.787.413 1.5.6 2.1.6 1.275 0 1.95-.45 1.95-1.35 0-.375-.225-.675-.6-.9-.3-.3-.863-.525-1.65-.75-.825-.3-1.425-.6-1.8-.9-1.2-.6-2.175-1.237-2.85-1.95-.6-.787-.9-1.8-.9-3 0-1.875.675-3.337 2.1-4.35 1.5-.975 3.45-1.5 5.85-1.5zm10.126-9.6c.787-.788 1.687-1.2 2.7-1.2.975 0 1.837.412 2.55 1.2.787.712 1.2 1.575 1.2 2.55 0 1.012-.413 1.912-1.2 2.7-.713.712-1.575 1.05-2.55 1.05-1.013 0-1.913-.338-2.7-1.05-.713-.788-1.05-1.688-1.05-2.7 0-.975.337-1.838 1.05-2.55zm-.6 10.05v18.3h6.3v-18.3h-6.3zm-124.793 59.74h-4.35l-9.75-18.3h7.35l4.35 9.9 4.35-9.9h4.35l4.35 9.9 4.5-9.9h7.2l-9.75 18.3h-4.2l-4.2-9.45-4.2 9.45zm24.973-2.25c-1.725-1.875-2.55-4.2-2.55-6.9s.825-4.95 2.55-6.75c1.8-1.875 3.975-2.85 6.6-2.85 2.4 0 4.387.75 6 2.25v-1.8h6.3v18.3h-6.3v-2.1c-1.613 1.8-3.6 2.7-6 2.7-2.625 0-4.8-.938-6.6-2.85zm5.4-9.9c-.825.825-1.2 1.875-1.2 3.15 0 1.2.375 2.212 1.2 3 .787.825 1.8 1.2 3 1.2 1.275 0 2.325-.375 3.15-1.2.787-.788 1.2-1.838 1.2-3.15 0-1.2-.45-2.175-1.35-3-.825-.788-1.8-1.2-3-1.2s-2.213.412-3 1.2zm38.51-6.15-8.7 8.7 9.6 9.6h-8.1l-7.35-7.35v7.35h-6.3v-30.6h6.3v18.75l6.45-6.45h8.1zm3.146 0v-6.75h6.3v6.75h3.9v4.8h-3.9v5.85c0 1.725.488 2.55 1.5 2.55.188 0 .375-.038.6-.15.3-.075.525-.188.75-.3l.15-.15 1.65 5.1a9.442 9.442 0 0 1-4.65 1.2c-1.2 0-2.25-.225-3.15-.6a6.04 6.04 0 0 1-1.95-1.8 7.931 7.931 0 0 1-.9-2.1c-.225-.788-.3-1.65-.3-2.55v-7.05h-2.55v-4.8h2.55zm18.981 0v8.7c0 1.8.225 3.112.75 3.9.6.712 1.537 1.05 2.85 1.05 1.275 0 2.175-.338 2.7-1.05.6-.788.9-2.1.9-3.9v-8.7h6.3v10.2c0 3.112-.825 5.362-2.4 6.75-1.613 1.312-4.163 1.95-7.65 1.95-3.413 0-5.925-.638-7.5-1.95-1.5-1.388-2.25-3.638-2.25-6.75v-10.2h6.3zm28.198 16.05c-1.725-1.875-2.55-4.2-2.55-6.9s.825-4.95 2.55-6.75c1.8-1.875 3.975-2.85 6.6-2.85 2.4 0 4.388.75 6 2.25v-14.1h6.3v30.6h-6.3v-2.1c-1.612 1.8-3.6 2.7-6 2.7-2.625 0-4.8-.938-6.6-2.85zm5.4-9.9c-.825.825-1.2 1.875-1.2 3.15 0 1.2.375 2.212 1.2 3 .788.825 1.8 1.2 3 1.2 1.275 0 2.325-.375 3.15-1.2.788-.788 1.2-1.838 1.2-3.15 0-1.2-.45-2.175-1.35-3-.825-.788-1.8-1.2-3-1.2s-2.212.412-3 1.2zm18.861 9.9c-1.725-1.875-2.55-4.2-2.55-6.9s.825-4.95 2.55-6.75c1.8-1.875 3.975-2.85 6.6-2.85 2.4 0 4.387.75 6 2.25v-1.8h6.3v18.3h-6.3v-2.1c-1.613 1.8-3.6 2.7-6 2.7-2.625 0-4.8-.938-6.6-2.85zm5.4-9.9c-.825.825-1.2 1.875-1.2 3.15 0 1.2.375 2.212 1.2 3 .787.825 1.8 1.2 3 1.2 1.275 0 2.325-.375 3.15-1.2.787-.788 1.2-1.838 1.2-3.15 0-1.2-.45-2.175-1.35-3-.825-.788-1.8-1.2-3-1.2s-2.213.412-3 1.2zm17.66 12.15v-18.3h6.3v1.95h.15c1.575-1.575 3.3-2.4 5.1-2.4.9 0 1.8.15 2.7.45.9.225 1.725.562 2.55 1.05.9.525 1.575 1.2 2.1 2.1.487.9.75 1.95.75 3.15v12h-6.3v-10.35c0-.9-.3-1.688-.9-2.4-.6-.675-1.425-1.05-2.4-1.05-.9 0-1.763.375-2.55 1.05-.825.712-1.2 1.5-1.2 2.4v10.35h-6.3zm-159.029 25.54c1.687 1.8 2.55 4.05 2.55 6.75s-.863 5.025-2.55 6.9c-1.725 1.912-3.863 2.85-6.45 2.85-2.4 0-4.425-.9-6-2.7v2.1h-6.3v-30.6h6.3v14.1c1.575-1.5 3.6-2.25 6-2.25 2.587 0 4.725.975 6.45 2.85zm-5.25 9.9c.787-.788 1.2-1.8 1.2-3 0-1.275-.413-2.325-1.2-3.15-.825-.788-1.875-1.2-3.15-1.2-1.125 0-2.1.412-3 1.2-.825.825-1.2 1.8-1.2 3 0 1.312.375 2.362 1.2 3.15.787.825 1.8 1.2 3 1.2 1.275 0 2.325-.375 3.15-1.2zm11.36-22.35c.788-.788 1.688-1.2 2.7-1.2.975 0 1.838.412 2.55 1.2.788.712 1.2 1.575 1.2 2.55 0 1.012-.412 1.912-1.2 2.7-.712.712-1.575 1.05-2.55 1.05-1.012 0-1.912-.338-2.7-1.05-.712-.788-1.05-1.688-1.05-2.7 0-.975.338-1.838 1.05-2.55zm-.6 10.05v18.3h6.3v-18.3h-6.3zm11.927 16.05c-1.725-1.875-2.55-4.2-2.55-6.9s.825-4.95 2.55-6.75c1.8-1.875 3.975-2.85 6.6-2.85 2.4 0 4.388.75 6 2.25v-1.8h6.3v18.3h-6.3v-2.1c-1.612 1.8-3.6 2.7-6 2.7-2.625 0-4.8-.938-6.6-2.85zm5.4-9.9c-.825.825-1.2 1.875-1.2 3.15 0 1.2.375 2.212 1.2 3 .788.825 1.8 1.2 3 1.2 1.275 0 2.325-.375 3.15-1.2.788-.788 1.2-1.838 1.2-3.15 0-1.2-.45-2.175-1.35-3-.825-.788-1.8-1.2-3-1.2s-2.212.412-3 1.2zm31.461-6.15h7.35l-14.4 27.6h-7.2l6.3-12.15-8.7-15.45h7.35l4.95 9.45 4.35-9.45zm9.884 16.05c-1.725-1.875-2.55-4.2-2.55-6.9s.825-4.95 2.55-6.75c1.8-1.875 3.975-2.85 6.6-2.85 2.4 0 4.388.75 6 2.25v-1.8h6.3v18.3h-6.3v-2.1c-1.612 1.8-3.6 2.7-6 2.7-2.625 0-4.8-.938-6.6-2.85zm5.4-9.9c-.825.825-1.2 1.875-1.2 3.15 0 1.2.375 2.212 1.2 3 .788.825 1.8 1.2 3 1.2 1.275 0 2.325-.375 3.15-1.2.788-.788 1.2-1.838 1.2-3.15 0-1.2-.45-2.175-1.35-3-.825-.788-1.8-1.2-3-1.2s-2.212.412-3 1.2zm-87.132 51.34c-1.725-1.875-2.55-4.2-2.55-6.9s.825-4.95 2.55-6.75c1.8-1.875 3.975-2.85 6.6-2.85 2.4 0 4.388.75 6 2.25v-14.1h6.3v30.6h-6.3v-2.1c-1.612 1.8-3.6 2.7-6 2.7-2.625 0-4.8-.937-6.6-2.85zm5.4-9.9c-.825.825-1.2 1.875-1.2 3.15 0 1.2.375 2.213 1.2 3 .788.825 1.8 1.2 3 1.2 1.275 0 2.325-.375 3.15-1.2.788-.787 1.2-1.837 1.2-3.15 0-1.2-.45-2.175-1.35-3-.825-.787-1.8-1.2-3-1.2s-2.212.413-3 1.2zm18.86 9.9c-1.725-1.875-2.55-4.2-2.55-6.9s.825-4.95 2.55-6.75c1.8-1.875 3.975-2.85 6.6-2.85 2.4 0 4.388.75 6 2.25v-1.8h6.3v18.3h-6.3v-2.1c-1.612 1.8-3.6 2.7-6 2.7-2.625 0-4.8-.938-6.6-2.85zm5.4-9.9c-.825.825-1.2 1.875-1.2 3.15 0 1.2.375 2.212 1.2 3 .788.825 1.8 1.2 3 1.2 1.275 0 2.325-.375 3.15-1.2.788-.788 1.2-1.838 1.2-3.15 0-1.2-.45-2.175-1.35-3-.825-.788-1.8-1.2-3-1.2s-2.212.412-3 1.2zm17.661 12.15v-30.6h6.3v30.6h-6.3zm11.749-2.25c-1.725-1.875-2.55-4.2-2.55-6.9s.825-4.95 2.55-6.75c1.8-1.875 3.975-2.85 6.6-2.85 2.4 0 4.388.75 6 2.25v-1.8h6.3v18.3h-6.3v-2.1c-1.612 1.8-3.6 2.7-6 2.7-2.625 0-4.8-.938-6.6-2.85zm5.4-9.9c-.825.825-1.2 1.875-1.2 3.15 0 1.2.375 2.212 1.2 3 .788.825 1.8 1.2 3 1.2 1.275 0 2.325-.375 3.15-1.2.788-.788 1.2-1.838 1.2-3.15 0-1.2-.45-2.175-1.35-3-.825-.788-1.8-1.2-3-1.2s-2.212.412-3 1.2zm17.661 12.15v-18.3h6.3v1.95h.15c1.575-1.575 3.3-2.4 5.1-2.4 1.387 0 2.625.3 3.75.9 1.2.525 2.1 1.312 2.7 2.4 1.8-2.175 3.787-3.3 6-3.3 1.987 0 3.675.562 5.1 1.65 1.387 1.125 2.1 2.812 2.1 5.1v12h-6.3v-10.35c0-.9-.3-1.65-.9-2.25-.525-.675-1.313-1.05-2.4-1.05-.9 0-1.613.3-2.1.9a2.438 2.438 0 0 0-.75 1.8v10.95h-6.3v-10.35c0-.9-.3-1.65-.9-2.25-.525-.675-1.275-1.05-2.25-1.05-1.013 0-1.763.3-2.25.9-.525.6-.75 1.312-.75 2.1v10.65h-6.3zm-83.331 41.44v-18.3h6.3v1.95h.15c1.575-1.575 3.3-2.4 5.1-2.4 1.387 0 2.625.3 3.75.9 1.2.525 2.1 1.312 2.7 2.4 1.8-2.175 3.787-3.3 6-3.3 1.987 0 3.675.562 5.1 1.65 1.387 1.125 2.1 2.812 2.1 5.1v12h-6.3v-10.35c0-.9-.3-1.65-.9-2.25-.525-.675-1.313-1.05-2.4-1.05-.9 0-1.613.3-2.1.9a2.438 2.438 0 0 0-.75 1.8v10.95h-6.3v-10.35c0-.9-.3-1.65-.9-2.25-.525-.675-1.275-1.05-2.25-1.05-1.013 0-1.763.3-2.25.9-.525.6-.75 1.312-.75 2.1v10.65h-6.3zm53.437-8.25h-13.2c0 1.312.375 2.25 1.2 2.85.9.6 1.8.9 2.7.9 1.088 0 1.875-.075 2.4-.3.6-.3 1.275-.825 2.1-1.65l4.5 2.25c-1.912 3.225-5.062 4.8-9.45 4.8-2.7 0-5.062-.938-7.05-2.85-2.025-1.875-3-4.125-3-6.75 0-2.7.975-4.988 3-6.9 1.988-1.875 4.35-2.85 7.05-2.85 2.888 0 5.25.862 7.05 2.55 1.8 1.612 2.7 3.975 2.7 7.05v.9zm-13.05-3.45h6.9c-.112-.975-.45-1.725-1.05-2.25-.6-.488-1.425-.75-2.4-.75-1.012 0-1.8.3-2.4.9-.6.525-.975 1.2-1.05 2.1zm16.019 11.7v-18.3h6.3v1.95h.15c1.575-1.575 3.3-2.4 5.1-2.4.9 0 1.8.15 2.7.45.9.225 1.725.562 2.55 1.05.9.525 1.575 1.2 2.1 2.1.488.9.75 1.95.75 3.15v12h-6.3v-10.35c0-.9-.3-1.688-.9-2.4-.6-.675-1.425-1.05-2.4-1.05-.9 0-1.762.375-2.55 1.05-.825.712-1.2 1.5-1.2 2.4v10.35h-6.3zm33.229-13.65c-1.2 0-2.25.45-3.15 1.35-.825.9-1.2 1.95-1.2 3.15 0 1.312.375 2.4 1.2 3.3.9.825 1.95 1.2 3.15 1.2.6 0 1.125-.038 1.65-.15.488-.188.825-.338 1.05-.45l.3-.15 2.25 4.35c-.225.112-.45.262-.75.45-.3.112-1.012.3-2.1.6-1.012.375-2.1.6-3.3.6-2.7 0-5.1-.938-7.2-2.85-2.025-1.875-3-4.125-3-6.75 0-2.7.975-4.988 3-6.9 2.1-1.875 4.5-2.85 7.2-2.85 1.2 0 2.288.15 3.3.45.975.3 1.688.562 2.1.75l.75.45-2.25 4.35c-.825-.6-1.8-.9-3-.9zm8.891 11.4c-1.725-1.875-2.55-4.2-2.55-6.9s.825-4.95 2.55-6.75c1.8-1.875 3.975-2.85 6.6-2.85 2.4 0 4.387.75 6 2.25v-1.8h6.3v18.3h-6.3v-2.1c-1.613 1.8-3.6 2.7-6 2.7-2.625 0-4.8-.938-6.6-2.85zm5.4-9.9c-.825.825-1.2 1.875-1.2 3.15 0 1.2.375 2.212 1.2 3 .787.825 1.8 1.2 3 1.2 1.275 0 2.325-.375 3.15-1.2.787-.788 1.2-1.838 1.2-3.15 0-1.2-.45-2.175-1.35-3-.825-.788-1.8-1.2-3-1.2s-2.213.412-3 1.2zm17.66 12.15v-18.3h6.3v2.7h.15c0-.075.037-.188.15-.3.075-.188.3-.45.6-.75.375-.375.787-.75 1.2-1.05.375-.3.9-.525 1.5-.75a7.87 7.87 0 0 1 2.1-.3c.675 0 1.35.112 1.95.3.675.225 1.2.412 1.5.6l.45.15-2.55 5.4c-.825-.675-1.913-1.05-3.3-1.05-.825 0-1.463.225-1.95.6-.525.3-.9.712-1.2 1.2a4.308 4.308 0 0 0-.45 1.2c-.113.3-.15.562-.15.75v9.6h-6.3zm18.289-28.35c.787-.787 1.687-1.2 2.7-1.2.975 0 1.837.413 2.55 1.2.787.713 1.2 1.575 1.2 2.55 0 1.013-.413 1.913-1.2 2.7-.713.713-1.575 1.05-2.55 1.05-1.013 0-1.913-.337-2.7-1.05-.713-.787-1.05-1.687-1.05-2.7 0-.975.337-1.837 1.05-2.55zm-.6 10.05v18.3h6.3v-18.3h-6.3zm-120.525 43.84c1.687 1.8 2.55 4.05 2.55 6.75s-.863 5.025-2.55 6.9c-1.725 1.912-3.863 2.85-6.45 2.85-2.4 0-4.425-.788-6-2.4v11.1h-6.3v-27.6h6.3v2.1c1.575-1.688 3.6-2.55 6-2.55 2.587 0 4.725.975 6.45 2.85zm-5.25 9.9c.787-.788 1.2-1.8 1.2-3 0-1.275-.413-2.325-1.2-3.15-.825-.788-1.875-1.2-3.15-1.2-1.2 0-2.213.412-3 1.2-.825.825-1.2 1.8-1.2 3 0 1.312.375 2.362 1.2 3.15.9.825 1.875 1.2 3 1.2 1.275 0 2.325-.375 3.15-1.2zm10.76 6v-18.3h6.3v2.7h.15c0-.075.038-.188.15-.3.075-.188.3-.45.6-.75.375-.375.788-.75 1.2-1.05.375-.3.9-.525 1.5-.75a7.875 7.875 0 0 1 2.1-.3c.675 0 1.35.112 1.95.3.675.225 1.2.412 1.5.6l.45.15-2.55 5.4c-.825-.675-1.912-1.05-3.3-1.05-.825 0-1.462.225-1.95.6-.525.3-.9.712-1.2 1.2a4.308 4.308 0 0 0-.45 1.2 2.2 2.2 0 0 0-.15.75v9.6h-6.3zm19.339-2.1c-2.025-1.8-3-4.088-3-6.9 0-2.888 1.05-5.25 3.15-7.05 2.175-1.8 4.838-2.7 7.95-2.7 3 0 5.55.9 7.65 2.7 2.1 1.8 3.15 4.125 3.15 6.9 0 2.812-1.05 5.175-3.15 7.05-2.025 1.8-4.575 2.7-7.65 2.7-3.3 0-6-.9-8.1-2.7zm4.95-10.05c-.825.825-1.2 1.875-1.2 3.15 0 1.2.375 2.212 1.2 3 .788.825 1.8 1.2 3 1.2 1.275 0 2.325-.375 3.15-1.2.788-.788 1.2-1.838 1.2-3.15 0-1.2-.45-2.175-1.35-3-.825-.788-1.8-1.2-3-1.2s-2.212.412-3 1.2zm35.629-3.75c1.688 1.8 2.55 4.05 2.55 6.75s-.862 5.025-2.55 6.9c-1.725 1.912-3.862 2.85-6.45 2.85-2.4 0-4.425-.788-6-2.4v11.1h-6.3v-27.6h6.3v2.1c1.575-1.688 3.6-2.55 6-2.55 2.588 0 4.725.975 6.45 2.85zm-5.25 9.9c.788-.788 1.2-1.8 1.2-3 0-1.275-.412-2.325-1.2-3.15-.825-.788-1.875-1.2-3.15-1.2-1.2 0-2.212.412-3 1.2-.825.825-1.2 1.8-1.2 3 0 1.312.375 2.362 1.2 3.15.9.825 1.875 1.2 3 1.2 1.275 0 2.325-.375 3.15-1.2zm29.211-2.25h-13.2c0 1.312.375 2.25 1.2 2.85.9.6 1.8.9 2.7.9 1.087 0 1.875-.075 2.4-.3.6-.3 1.275-.825 2.1-1.65l4.5 2.25c-1.913 3.225-5.063 4.8-9.45 4.8-2.7 0-5.063-.938-7.05-2.85-2.025-1.875-3-4.125-3-6.75 0-2.7.975-4.988 3-6.9 1.987-1.875 4.35-2.85 7.05-2.85 2.887 0 5.25.862 7.05 2.55 1.8 1.612 2.7 3.975 2.7 7.05v.9zm-13.05-3.45h6.9c-.113-.975-.45-1.725-1.05-2.25-.6-.488-1.425-.75-2.4-.75-1.013 0-1.8.3-2.4.9-.6.525-.975 1.2-1.05 2.1zm16.018 11.7v-18.3h6.3v2.7h.15c0-.075.038-.188.15-.3.075-.188.3-.45.6-.75.375-.375.788-.75 1.2-1.05.375-.3.9-.525 1.5-.75a7.875 7.875 0 0 1 2.1-.3c.675 0 1.35.112 1.95.3.675.225 1.2.412 1.5.6l.45.15-2.55 5.4c-.825-.675-1.912-1.05-3.3-1.05-.825 0-1.462.225-1.95.6-.525.3-.9.712-1.2 1.2a4.308 4.308 0 0 0-.45 1.2 2.2 2.2 0 0 0-.15.75v9.6h-6.3zm18.739-18.3v-6.75h6.3v6.75h3.9v4.8h-3.9v5.85c0 1.725.488 2.55 1.5 2.55.188 0 .375-.038.6-.15.3-.075.525-.188.75-.3l.15-.15 1.65 5.1a9.442 9.442 0 0 1-4.65 1.2c-1.2 0-2.25-.225-3.15-.6a6.04 6.04 0 0 1-1.95-1.8 7.931 7.931 0 0 1-.9-2.1c-.225-.788-.3-1.65-.3-2.55v-7.05h-2.55v-4.8h2.55zm13.581-10.05c.787-.788 1.687-1.2 2.7-1.2.975 0 1.837.412 2.55 1.2.787.712 1.2 1.575 1.2 2.55 0 1.012-.413 1.912-1.2 2.7-.713.712-1.575 1.05-2.55 1.05-1.013 0-1.913-.338-2.7-1.05-.713-.788-1.05-1.688-1.05-2.7 0-.975.337-1.838 1.05-2.55zm-.6 10.05v18.3h6.3v-18.3h-6.3z" fill="#ECEBEB"/></g><defs><clipPath id="a"><rect width="720" height="720" rx="60" fill="#fff"/></clipPath></defs></svg>