<svg width="720" height="720" fill="none" xmlns="http://www.w3.org/2000/svg"><g clip-path="url(#a)"><path d="M792-72H-72v864h864V-72z" fill="#fff"/><path d="M792-72H-72v864h864V-72z" fill="#fff"/><mask id="b" style="mask-type:luminance" maskUnits="userSpaceOnUse" x="360" y="0" width="360" height="720"><path d="M360 0h360v720H360V0z" fill="#fff"/></mask><g mask="url(#b)"><path d="M360 0h360v720H360V0z" fill="#48C5B7"/></g><mask id="c" style="mask-type:luminance" maskUnits="userSpaceOnUse" x="360" y="0" width="360" height="720"><path d="M360 0h360v720H360V0z" fill="#fff"/></mask><g mask="url(#c)"><mask id="d" style="mask-type:luminance" maskUnits="userSpaceOnUse" x="360" y="0" width="360" height="720"><path d="M720 720H360V0l360 720z" fill="#fff"/></mask><g mask="url(#d)"><path d="M360 0h359.888v719.775H360V0z" fill="#FFDF2B"/></g></g><mask id="e" style="mask-type:luminance" maskUnits="userSpaceOnUse" x="0" y="0" width="360" height="720"><path d="M0 0h360v720H0V0z" fill="#fff"/></mask><g mask="url(#e)"><path d="M0 0h360v720H0V0z" fill="#1740C7"/></g><path d="M77.842 253.64h8.55c4.088 0 7.538 1.425 10.35 4.2 2.887 2.812 4.35 6.3 4.35 10.5s-1.463 7.725-4.35 10.5c-2.813 2.812-6.263 4.2-10.35 4.2h-8.55v-29.4zm6.75 23.4h1.05c2.4 0 4.35-.788 5.85-2.4 1.575-1.688 2.4-3.788 2.4-6.3 0-2.475-.825-4.538-2.4-6.15-1.5-1.688-3.45-2.55-5.85-2.55h-1.05v17.4zm37.914-2.25h-13.2c0 1.313.375 2.25 1.2 2.85.9.6 1.8.9 2.7.9 1.087 0 1.875-.075 2.4-.3.6-.3 1.275-.825 2.1-1.65l4.5 2.25c-1.913 3.225-5.063 4.8-9.45 4.8-2.7 0-5.063-.937-7.05-2.85-2.025-1.875-3-4.125-3-6.75 0-2.7.975-4.987 3-6.9 1.987-1.875 4.35-2.85 7.05-2.85 2.887 0 5.25.863 7.05 2.55 1.8 1.613 2.7 3.975 2.7 7.05v.9zm-13.05-3.45h6.9c-.113-.975-.45-1.725-1.05-2.25-.6-.487-1.425-.75-2.4-.75-1.013 0-1.8.3-2.4.9-.6.525-.975 1.2-1.05 2.1zm17.069-6.6v-6.75h6.3v6.75h3.9v4.8h-3.9v5.85c0 1.725.487 2.55 1.5 2.55.187 0 .375-.038.6-.15.3-.075.525-.188.75-.3l.15-.15 1.65 5.1a9.444 9.444 0 0 1-4.65 1.2c-1.2 0-2.25-.225-3.15-.6a6.03 6.03 0 0 1-1.95-1.8 7.866 7.866 0 0 1-.9-2.1c-.225-.788-.3-1.65-.3-2.55v-7.05h-2.55v-4.8h2.55zm14.18 16.05c-1.725-1.875-2.55-4.2-2.55-6.9s.825-4.95 2.55-6.75c1.8-1.875 3.975-2.85 6.6-2.85 2.4 0 4.388.75 6 2.25v-1.8h6.3v18.3h-6.3v-2.1c-1.612 1.8-3.6 2.7-6 2.7-2.625 0-4.8-.937-6.6-2.85zm5.4-9.9c-.825.825-1.2 1.875-1.2 3.15 0 1.2.375 2.213 1.2 3 .788.825 1.8 1.2 3 1.2 1.275 0 2.325-.375 3.15-1.2.788-.787 1.2-1.837 1.2-3.15 0-1.2-.45-2.175-1.35-3-.825-.787-1.8-1.2-3-1.2s-2.212.413-3 1.2zm18.261-16.2c.787-.788 1.687-1.2 2.7-1.2.975 0 1.837.412 2.55 1.2.787.712 1.2 1.575 1.2 2.55 0 1.012-.413 1.912-1.2 2.7-.713.712-1.575 1.05-2.55 1.05-1.013 0-1.913-.338-2.7-1.05-.713-.788-1.05-1.688-1.05-2.7 0-.975.337-1.838 1.05-2.55zm-.6 10.05v18.3h6.3v-18.3h-6.3zm10.727 18.3v-30.6h6.3v30.6h-6.3zm-77.901 25.54c1.688 1.8 2.55 4.05 2.55 6.75s-.862 5.025-2.55 6.9c-1.725 1.912-3.862 2.85-6.45 2.85-2.4 0-4.425-.788-6-2.4v11.1h-6.3v-27.6h6.3v2.1c1.575-1.688 3.6-2.55 6-2.55 2.588 0 4.725.975 6.45 2.85zm-5.25 9.9c.787-.788 1.2-1.8 1.2-3 0-1.275-.413-2.325-1.2-3.15-.825-.788-1.875-1.2-3.15-1.2-1.2 0-2.212.412-3 1.2-.825.825-1.2 1.8-1.2 3 0 1.312.375 2.362 1.2 3.15.9.825 1.875 1.2 3 1.2 1.275 0 2.325-.375 3.15-1.2zm10.76 6v-18.3h6.3v2.7h.15c0-.075.038-.188.15-.3.075-.188.3-.45.6-.75.375-.375.788-.75 1.2-1.05.375-.3.9-.525 1.5-.75a7.875 7.875 0 0 1 2.1-.3c.675 0 1.35.112 1.95.3.675.225 1.2.412 1.5.6l.45.15-2.55 5.4c-.825-.675-1.912-1.05-3.3-1.05-.825 0-1.462.225-1.95.6-.525.3-.9.712-1.2 1.2a4.308 4.308 0 0 0-.45 1.2 2.2 2.2 0 0 0-.15.75v9.6h-6.3zm19.339-2.1c-2.025-1.8-3-4.088-3-6.9 0-2.888 1.05-5.25 3.15-7.05 2.175-1.8 4.838-2.7 7.95-2.7 3 0 5.55.9 7.65 2.7 2.1 1.8 3.15 4.125 3.15 6.9 0 2.812-1.05 5.175-3.15 7.05-2.025 1.8-4.575 2.7-7.65 2.7-3.3 0-6-.9-8.1-2.7zm4.95-10.05c-.825.825-1.2 1.875-1.2 3.15 0 1.2.375 2.212 1.2 3 .788.825 1.8 1.2 3 1.2 1.275 0 2.325-.375 3.15-1.2.788-.788 1.2-1.838 1.2-3.15 0-1.2-.45-2.175-1.35-3-.825-.788-1.8-1.2-3-1.2s-2.212.412-3 1.2zm35.629-3.75c1.688 1.8 2.55 4.05 2.55 6.75s-.862 5.025-2.55 6.9c-1.725 1.912-3.862 2.85-6.45 2.85-2.4 0-4.425-.788-6-2.4v11.1h-6.3v-27.6h6.3v2.1c1.575-1.688 3.6-2.55 6-2.55 2.588 0 4.725.975 6.45 2.85zm-5.25 9.9c.788-.788 1.2-1.8 1.2-3 0-1.275-.412-2.325-1.2-3.15-.825-.788-1.875-1.2-3.15-1.2-1.2 0-2.212.412-3 1.2-.825.825-1.2 1.8-1.2 3 0 1.312.375 2.362 1.2 3.15.9.825 1.875 1.2 3 1.2 1.275 0 2.325-.375 3.15-1.2zm29.211-2.25h-13.2c0 1.312.375 2.25 1.2 2.85.9.6 1.8.9 2.7.9 1.087 0 1.875-.075 2.4-.3.6-.3 1.275-.825 2.1-1.65l4.5 2.25c-1.913 3.225-5.063 4.8-9.45 4.8-2.7 0-5.063-.938-7.05-2.85-2.025-1.875-3-4.125-3-6.75 0-2.7.975-4.988 3-6.9 1.987-1.875 4.35-2.85 7.05-2.85 2.887 0 5.25.862 7.05 2.55 1.8 1.612 2.7 3.975 2.7 7.05v.9zm-13.05-3.45h6.9c-.113-.975-.45-1.725-1.05-2.25-.6-.488-1.425-.75-2.4-.75-1.013 0-1.8.3-2.4.9-.6.525-.975 1.2-1.05 2.1zm16.018 11.7v-18.3h6.3v2.7h.15c0-.075.038-.188.15-.3.075-.188.3-.45.6-.75.375-.375.788-.75 1.2-1.05.375-.3.9-.525 1.5-.75a7.875 7.875 0 0 1 2.1-.3c.675 0 1.35.112 1.95.3.675.225 1.2.412 1.5.6l.45.15-2.55 5.4c-.825-.675-1.912-1.05-3.3-1.05-.825 0-1.462.225-1.95.6-.525.3-.9.712-1.2 1.2a4.308 4.308 0 0 0-.45 1.2 2.2 2.2 0 0 0-.15.75v9.6h-6.3zm18.739-18.3v-6.75h6.3v6.75h3.9v4.8h-3.9v5.85c0 1.725.488 2.55 1.5 2.55.188 0 .375-.038.6-.15.3-.075.525-.188.75-.3l.15-.15 1.65 5.1a9.442 9.442 0 0 1-4.65 1.2c-1.2 0-2.25-.225-3.15-.6a6.04 6.04 0 0 1-1.95-1.8 7.931 7.931 0 0 1-.9-2.1c-.225-.788-.3-1.65-.3-2.55v-7.05h-2.55v-4.8h2.55zm13.581-10.05c.787-.788 1.687-1.2 2.7-1.2.975 0 1.837.412 2.55 1.2.787.712 1.2 1.575 1.2 2.55 0 1.012-.413 1.912-1.2 2.7-.713.712-1.575 1.05-2.55 1.05-1.013 0-1.913-.338-2.7-1.05-.713-.788-1.05-1.688-1.05-2.7 0-.975.337-1.838 1.05-2.55zm-.6 10.05v18.3h6.3v-18.3h-6.3zM91.642 347.62h7.35l-14.4 27.6h-7.2l6.3-12.15-8.7-15.45h7.35l4.95 9.45 4.35-9.45zm9.884 16.05c-1.725-1.875-2.55-4.2-2.55-6.9s.825-4.95 2.55-6.75c1.8-1.875 3.975-2.85 6.6-2.85 2.4 0 4.388.75 6 2.25v-1.8h6.3v18.3h-6.3v-2.1c-1.612 1.8-3.6 2.7-6 2.7-2.625 0-4.8-.938-6.6-2.85zm5.4-9.9c-.825.825-1.2 1.875-1.2 3.15 0 1.2.375 2.212 1.2 3 .788.825 1.8 1.2 3 1.2 1.275 0 2.325-.375 3.15-1.2.788-.788 1.2-1.838 1.2-3.15 0-1.2-.45-2.175-1.35-3-.825-.788-1.8-1.2-3-1.2s-2.212.412-3 1.2zm17.661 12.15v-18.3h6.3v1.95h.15c1.575-1.575 3.3-2.4 5.1-2.4.9 0 1.8.15 2.7.45.9.225 1.725.562 2.55 1.05.9.525 1.575 1.2 2.1 2.1.487.9.75 1.95.75 3.15v12h-6.3v-10.35c0-.9-.3-1.688-.9-2.4-.6-.675-1.425-1.05-2.4-1.05-.9 0-1.763.375-2.55 1.05-.825.712-1.2 1.5-1.2 2.4v10.35h-6.3zm22.729 4.5 5.1-2.55c.975 1.575 2.625 2.4 4.95 2.4 1.087 0 2.1-.375 3-1.05.975-.713 1.5-1.8 1.5-3.3v-1.35c-1.125 1.312-3.113 1.95-6 1.95-2.625 0-4.8-.938-6.6-2.85-1.725-1.875-2.55-4.2-2.55-6.9s.825-4.95 2.55-6.75c1.8-1.875 3.975-2.85 6.6-2.85 2.287 0 4.237.712 5.85 2.1h.15v-1.65h6.3v18.75c0 3-1.013 5.287-3 6.9-2.025 1.575-4.613 2.4-7.8 2.4-5.213 0-8.55-1.763-10.05-5.25zm7.35-16.65c-.825.825-1.2 1.875-1.2 3.15 0 1.2.375 2.212 1.2 3 .787.825 1.8 1.2 3 1.2 1.275 0 2.325-.375 3.15-1.2.787-.788 1.2-1.838 1.2-3.15 0-1.2-.45-2.175-1.35-3-.825-.788-1.8-1.2-3-1.2s-2.213.412-3 1.2zm-76.824 63.59v-30.6h6.3v30.6h-6.3zm29-8.25h-13.2c0 1.312.375 2.25 1.2 2.85.9.6 1.8.9 2.7.9 1.087 0 1.875-.075 2.4-.3.6-.3 1.275-.825 2.1-1.65l4.5 2.25c-1.913 3.225-5.063 4.8-9.45 4.8-2.7 0-5.063-.938-7.05-2.85-2.025-1.875-3-4.125-3-6.75 0-2.7.975-4.988 3-6.9 1.987-1.875 4.35-2.85 7.05-2.85 2.887 0 5.25.862 7.05 2.55 1.8 1.612 2.7 3.975 2.7 7.05v.9zm-13.05-3.45h6.9c-.113-.975-.45-1.725-1.05-2.25-.6-.488-1.425-.75-2.4-.75-1.013 0-1.8.3-2.4.9-.6.525-.975 1.2-1.05 2.1zm16.018 11.7v-18.3h6.3v1.95h.15c1.575-1.575 3.3-2.4 5.1-2.4.9 0 1.8.15 2.7.45.9.225 1.725.562 2.55 1.05.9.525 1.575 1.2 2.1 2.1.488.9.75 1.95.75 3.15v12h-6.3v-10.35c0-.9-.3-1.688-.9-2.4-.6-.675-1.425-1.05-2.4-1.05-.9 0-1.762.375-2.55 1.05-.825.712-1.2 1.5-1.2 2.4v10.35h-6.3zm22.729 4.5 5.1-2.55c.975 1.575 2.625 2.4 4.95 2.4 1.088 0 2.1-.375 3-1.05.975-.713 1.5-1.8 1.5-3.3v-1.35c-1.125 1.312-3.112 1.95-6 1.95-2.625 0-4.8-.938-6.6-2.85-1.725-1.875-2.55-4.2-2.55-6.9s.825-4.95 2.55-6.75c1.8-1.875 3.975-2.85 6.6-2.85 2.288 0 4.238.712 5.85 2.1h.15v-1.65h6.3v18.75c0 3-1.012 5.287-3 6.9-2.025 1.575-4.612 2.4-7.8 2.4-5.212 0-8.55-1.763-10.05-5.25zm7.35-16.65c-.825.825-1.2 1.875-1.2 3.15 0 1.2.375 2.212 1.2 3 .788.825 1.8 1.2 3 1.2 1.275 0 2.325-.375 3.15-1.2.788-.788 1.2-1.838 1.2-3.15 0-1.2-.45-2.175-1.35-3-.825-.788-1.8-1.2-3-1.2s-2.212.412-3 1.2zm38.511-6.15-8.701 8.7 9.601 9.6h-8.1l-7.351-7.35v7.35h-6.3v-30.6h6.3v18.75l6.451-6.45h8.1zm3.296 16.05c-1.725-1.875-2.55-4.2-2.55-6.9s.825-4.95 2.55-6.75c1.8-1.875 3.975-2.85 6.6-2.85 2.4 0 4.387.75 6 2.25v-1.8h6.3v18.3h-6.3v-2.1c-1.613 1.8-3.6 2.7-6 2.7-2.625 0-4.8-.938-6.6-2.85zm5.4-9.9c-.825.825-1.2 1.875-1.2 3.15 0 1.2.375 2.212 1.2 3 .787.825 1.8 1.2 3 1.2 1.275 0 2.325-.375 3.15-1.2.787-.788 1.2-1.838 1.2-3.15 0-1.2-.45-2.175-1.35-3-.825-.788-1.8-1.2-3-1.2s-2.213.412-3 1.2zm36.41-3.75c1.687 1.8 2.55 4.05 2.55 6.75s-.863 5.025-2.55 6.9c-1.725 1.912-3.863 2.85-6.45 2.85-2.4 0-4.425-.788-6-2.4v11.1h-6.3v-27.6h6.3v2.1c1.575-1.688 3.6-2.55 6-2.55 2.587 0 4.725.975 6.45 2.85zm-5.25 9.9c.787-.788 1.2-1.8 1.2-3 0-1.275-.413-2.325-1.2-3.15-.825-.788-1.875-1.2-3.15-1.2-1.2 0-2.213.412-3 1.2-.825.825-1.2 1.8-1.2 3 0 1.312.375 2.362 1.2 3.15.9.825 1.875 1.2 3 1.2 1.275 0 2.325-.375 3.15-1.2zM79.042 456.55c-1.725-1.875-2.55-4.2-2.55-6.9s.825-4.95 2.55-6.75c1.8-1.875 3.975-2.85 6.6-2.85 2.4 0 4.388.75 6 2.25v-14.1h6.3v30.6h-6.3v-2.1c-1.612 1.8-3.6 2.7-6 2.7-2.625 0-4.8-.938-6.6-2.85zm5.4-9.9c-.825.825-1.2 1.875-1.2 3.15 0 1.2.375 2.212 1.2 3 .788.825 1.8 1.2 3 1.2 1.275 0 2.325-.375 3.15-1.2.787-.788 1.2-1.838 1.2-3.15 0-1.2-.45-2.175-1.35-3-.825-.788-1.8-1.2-3-1.2s-2.212.412-3 1.2zm18.86 9.9c-1.725-1.875-2.55-4.2-2.55-6.9s.825-4.95 2.55-6.75c1.8-1.875 3.975-2.85 6.6-2.85 2.4 0 4.388.75 6 2.25v-1.8h6.3v18.3h-6.3v-2.1c-1.612 1.8-3.6 2.7-6 2.7-2.625 0-4.8-.937-6.6-2.85zm5.4-9.9c-.825.825-1.2 1.875-1.2 3.15 0 1.2.375 2.213 1.2 3 .788.825 1.8 1.2 3 1.2 1.275 0 2.325-.375 3.15-1.2.788-.787 1.2-1.837 1.2-3.15 0-1.2-.45-2.175-1.35-3-.825-.787-1.8-1.2-3-1.2s-2.212.413-3 1.2zm17.661 12.15v-18.3h6.3v1.95h.15c1.575-1.575 3.3-2.4 5.1-2.4.9 0 1.8.15 2.7.45a9.41 9.41 0 0 1 2.55 1.05c.9.525 1.575 1.2 2.1 2.1.487.9.75 1.95.75 3.15v12h-6.3v-10.35c0-.9-.3-1.687-.9-2.4-.6-.675-1.425-1.05-2.4-1.05-.9 0-1.763.375-2.55 1.05-.825.713-1.2 1.5-1.2 2.4v10.35h-6.3zm34.376-2.25c-1.725-1.875-2.55-4.2-2.55-6.9s.825-4.95 2.55-6.75c1.8-1.875 3.975-2.85 6.6-2.85 2.4 0 4.387.75 6 2.25v-1.8h6.3v18.3h-6.3v-2.1c-1.613 1.8-3.6 2.7-6 2.7-2.625 0-4.8-.937-6.6-2.85zm5.4-9.9c-.825.825-1.2 1.875-1.2 3.15 0 1.2.375 2.213 1.2 3 .787.825 1.8 1.2 3 1.2 1.275 0 2.325-.375 3.15-1.2.787-.787 1.2-1.837 1.2-3.15 0-1.2-.45-2.175-1.35-3-.825-.787-1.8-1.2-3-1.2s-2.213.413-3 1.2zm38.51-6.15-8.7 8.7 9.6 9.6h-8.1l-7.35-7.35v7.35h-6.3v-30.6h6.3v18.75l6.45-6.45h8.1zm8.096 0v8.7c0 1.8.225 3.113.75 3.9.6.713 1.538 1.05 2.85 1.05 1.275 0 2.175-.337 2.7-1.05.6-.787.9-2.1.9-3.9v-8.7h6.3v10.2c0 3.113-.825 5.363-2.4 6.75-1.612 1.312-4.162 1.95-7.65 1.95-3.412 0-5.925-.638-7.5-1.95-1.5-1.387-2.25-3.637-2.25-6.75v-10.2h6.3zm17.301 18.3v-18.3h6.3v2.7h.15c0-.075.038-.187.15-.3.075-.187.3-.45.6-.75.375-.375.788-.75 1.2-1.05.375-.3.9-.525 1.5-.75a7.916 7.916 0 0 1 2.1-.3c.675 0 1.35.113 1.95.3.675.225 1.2.413 1.5.6l.45.15-2.55 5.4c-.825-.675-1.912-1.05-3.3-1.05-.825 0-1.462.225-1.95.6-.525.3-.9.713-1.2 1.2a4.32 4.32 0 0 0-.45 1.2c-.112.3-.15.563-.15.75v9.6h-6.3zm18.889-2.25c-1.725-1.875-2.55-4.2-2.55-6.9s.825-4.95 2.55-6.75c1.8-1.875 3.975-2.85 6.6-2.85 2.4 0 4.388.75 6 2.25v-1.8h6.3v18.3h-6.3v-2.1c-1.612 1.8-3.6 2.7-6 2.7-2.625 0-4.8-.937-6.6-2.85zm5.4-9.9c-.825.825-1.2 1.875-1.2 3.15 0 1.2.375 2.213 1.2 3 .788.825 1.8 1.2 3 1.2 1.275 0 2.325-.375 3.15-1.2.788-.787 1.2-1.837 1.2-3.15 0-1.2-.45-2.175-1.35-3-.825-.787-1.8-1.2-3-1.2s-2.212.413-3 1.2zm18.711-6.15v-6.75h6.3v6.75h3.9v4.8h-3.9v5.85c0 1.725.487 2.55 1.5 2.55.187 0 .375-.037.6-.15.3-.075.525-.187.75-.3l.15-.15 1.65 5.1a9.444 9.444 0 0 1-4.65 1.2c-1.2 0-2.25-.225-3.15-.6a6.019 6.019 0 0 1-1.95-1.8 7.853 7.853 0 0 1-.9-2.1c-.225-.787-.3-1.65-.3-2.55v-7.05h-2.55v-4.8h2.55z" fill="#ECEBEB"/></g><defs><clipPath id="a"><rect width="720" height="720" rx="60" fill="#fff"/></clipPath></defs></svg>