<svg width="720" height="720" fill="none" xmlns="http://www.w3.org/2000/svg"><g clip-path="url(#a)"><path d="M792-72H-72v864h864V-72z" fill="#fff"/><path d="M792-72H-72v864h864V-72z" fill="#fff"/><path d="M792-72H-72v864h864V-72z" fill="#1740C7"/><mask id="b" style="mask-type:luminance" maskUnits="userSpaceOnUse" x="180" y="0" width="361" height="360"><path d="M180.525 0h360v360h-360V0z" fill="#fff"/></mask><g mask="url(#b)"><mask id="c" style="mask-type:luminance" maskUnits="userSpaceOnUse" x="180" y="0" width="361" height="360"><path d="M360.525 0c-99.412 0-180 80.588-180 180 0 99.413 80.588 180 180 180 99.413 0 180-80.587 180-180 0-99.412-80.587-180-180-180z" fill="#fff"/></mask><g mask="url(#c)"><path d="M180.525 0h360v360h-360V0z" fill="#48C5B7"/></g></g><mask id="d" style="mask-type:luminance" maskUnits="userSpaceOnUse" x="0" y="0" width="359" height="360"><path d="M0 0h359v360H0V0z" fill="#fff"/></mask><g mask="url(#d)"><path d="M0 0h359v360H0V0z" fill="#1740C7"/></g><mask id="e" style="mask-type:luminance" maskUnits="userSpaceOnUse" x="359" y="360" width="361" height="360"><path d="M359.213 360h360v360h-360V360z" fill="#fff"/></mask><g mask="url(#e)"><path d="M359.213 360h360v360h-360V360z" fill="#1740C7"/></g><mask id="f" style="mask-type:luminance" maskUnits="userSpaceOnUse" x="0" y="0" width="359" height="360"><path d="M0 0h359v360H0V0z" fill="#fff"/></mask><g mask="url(#f)"><path d="M362.625 151.27V-18.375c-210.419 0-381 170.581-381 381H151.27c0-116.704 94.651-211.355 211.355-211.355z" fill="#F08B33"/></g><mask id="g" style="mask-type:luminance" maskUnits="userSpaceOnUse" x="118" y="118" width="241" height="242"><path d="M118 118.95h241V360H118V118.95z" fill="#fff"/></mask><g mask="url(#g)"><path d="M359 226.339V119c-133.09 0-241 107.91-241 241h107.301c0-73.829 59.87-133.661 133.699-133.661z" fill="#FFDF2B"/></g><path d="M54.197 439.45v-6.3h22.35v6.3h-7.65v25.35h-7.2v-25.35h-7.5zM98.983 455.95h-14.25c0 1.312.45 2.325 1.35 3 .9.712 1.838 1.05 2.85 1.05 1.088 0 1.95-.15 2.55-.45.675-.3 1.425-.9 2.25-1.8l4.95 2.55c-2.025 3.412-5.4 5.1-10.2 5.1-3 0-5.55-.975-7.65-3-2.1-2.1-3.15-4.538-3.15-7.35 0-2.888 1.05-5.325 3.15-7.35 2.1-2.1 4.65-3.15 7.65-3.15 3.075 0 5.588.9 7.5 2.7 1.988 1.8 3 4.35 3 7.65v1.05zm-14.1-3.75h7.5c-.112-1.088-.525-1.875-1.2-2.4-.6-.6-1.462-.9-2.55-.9-1.125 0-2.025.3-2.7.9-.6.6-.975 1.425-1.05 2.4zM102.189 464.8v-19.65h6.9v1.95c1.8-1.688 3.675-2.55 5.7-2.55 1.387 0 2.7.3 3.9.9 1.275.6 2.287 1.5 3 2.7 1.987-2.4 4.125-3.6 6.45-3.6 2.1 0 3.9.6 5.4 1.8 1.5 1.125 2.25 2.925 2.25 5.4v13.05h-6.75v-11.1c0-1.088-.3-1.988-.9-2.7-.525-.675-1.35-1.05-2.55-1.05-1.013 0-1.763.3-2.25.9-.525.6-.825 1.35-.9 2.25v11.7h-6.75v-11.1c0-1.088-.3-1.988-.9-2.7-.6-.675-1.463-1.05-2.55-1.05-1.125 0-1.913.375-2.4 1.05-.525.6-.75 1.35-.75 2.25v11.55h-6.9zM146.463 445.15v9.3c0 2.025.3 3.412.9 4.2.6.825 1.575 1.2 3 1.2 1.388 0 2.4-.375 3-1.2.6-.788.9-2.175.9-4.2v-9.3h6.75v10.95c0 3.3-.862 5.7-2.55 7.2-1.725 1.425-4.425 2.1-8.1 2.1-3.712 0-6.412-.675-8.1-2.1-1.725-1.5-2.55-3.9-2.55-7.2v-10.95h6.75zM187.704 445.15l-9.3 9.3 10.35 10.35h-8.85l-7.8-7.8v7.8h-6.9v-33h6.9v20.1l6.75-6.75h8.85zM191.36 462.4c-1.8-1.988-2.7-4.425-2.7-7.35 0-3 .9-5.475 2.7-7.5 1.875-1.988 4.238-3 7.05-3 2.588 0 4.725.825 6.45 2.4v-1.8h6.75v19.65h-6.6v-2.25h-.15c-1.725 1.912-3.862 2.85-6.45 2.85-2.812 0-5.175-.975-7.05-3zm5.85-10.8c-.9.9-1.35 2.062-1.35 3.45 0 1.312.375 2.4 1.2 3.3.9.825 2.025 1.2 3.45 1.2 1.275 0 2.325-.375 3.15-1.2.9-.9 1.35-2.025 1.35-3.45 0-1.275-.45-2.4-1.35-3.3-.825-.9-1.875-1.35-3.15-1.35-1.312 0-2.4.45-3.3 1.35zM216.238 464.8v-19.65h6.9v1.95c1.8-1.688 3.675-2.55 5.7-2.55.975 0 1.95.15 2.85.45.975.225 1.875.6 2.7 1.2.9.525 1.575 1.275 2.1 2.25.6.9.9 2.025.9 3.3v13.05h-6.75v-11.1c0-.975-.375-1.875-1.05-2.7-.6-.788-1.425-1.2-2.4-1.2-1.125 0-2.063.412-2.85 1.2-.825.825-1.2 1.725-1.2 2.7v11.1h-6.9zM76.397 489.15c1.875 2.025 2.85 4.462 2.85 7.35 0 2.925-.975 5.4-2.85 7.5-1.8 2.025-4.125 3-6.9 3-2.625 0-4.763-.825-6.45-2.55v12h-6.9v-29.7h6.75V489h.15c1.687-1.875 3.825-2.85 6.45-2.85 2.775 0 5.1 1.012 6.9 3zm-5.7 10.8c.9-.9 1.35-1.988 1.35-3.3 0-1.388-.45-2.55-1.35-3.45-.825-.9-1.913-1.35-3.3-1.35-1.313 0-2.4.45-3.3 1.35-.825.9-1.2 2.025-1.2 3.3 0 1.425.375 2.55 1.2 3.45.9.825 1.987 1.2 3.3 1.2 1.275 0 2.4-.375 3.3-1.2zM82.374 506.4v-19.65h6.9v2.85l.3-.3c.075-.188.338-.488.75-.9.375-.375.788-.75 1.2-1.05.375-.3.938-.525 1.65-.75a5.16 5.16 0 0 1 2.1-.45c.788 0 1.538.112 2.25.3.675.225 1.2.412 1.5.6l.6.3-2.85 5.7c-.825-.675-1.95-1.05-3.45-1.05-.9 0-1.65.225-2.25.6-.525.3-.9.75-1.2 1.35-.225.525-.375.975-.45 1.35-.112.3-.15.562-.15.75v10.35h-6.9zM103.448 504.15c-2.213-1.988-3.3-4.5-3.3-7.5 0-3.075 1.087-5.588 3.3-7.5 2.287-1.988 5.137-3 8.55-3 3.3 0 6.037 1.012 8.25 3 2.287 1.912 3.45 4.425 3.45 7.5 0 3-1.125 5.512-3.3 7.5-2.213 1.912-5.025 2.85-8.4 2.85-3.525 0-6.375-.938-8.55-2.85zm5.25-10.95c-.9.9-1.35 2.062-1.35 3.45 0 1.312.375 2.4 1.2 3.3.9.825 2.025 1.2 3.45 1.2 1.275 0 2.325-.375 3.15-1.2.9-.9 1.35-2.025 1.35-3.45 0-1.275-.45-2.4-1.35-3.3-.825-.9-1.875-1.35-3.15-1.35-1.313 0-2.4.45-3.3 1.35zM147.13 489.15c1.875 2.025 2.85 4.462 2.85 7.35 0 2.925-.975 5.4-2.85 7.5-1.8 2.025-4.125 3-6.9 3-2.625 0-4.762-.825-6.45-2.55v12h-6.9v-29.7h6.75V489h.15c1.688-1.875 3.825-2.85 6.45-2.85 2.775 0 5.1 1.012 6.9 3zm-5.7 10.8c.9-.9 1.35-1.988 1.35-3.3 0-1.388-.45-2.55-1.35-3.45-.825-.9-1.912-1.35-3.3-1.35-1.312 0-2.4.45-3.3 1.35-.825.9-1.2 2.025-1.2 3.3 0 1.425.375 2.55 1.2 3.45.9.825 1.988 1.2 3.3 1.2 1.275 0 2.4-.375 3.3-1.2zM173.058 497.55h-14.25c0 1.312.45 2.325 1.35 3 .9.712 1.837 1.05 2.85 1.05 1.087 0 1.95-.15 2.55-.45.675-.3 1.425-.9 2.25-1.8l4.95 2.55c-2.025 3.412-5.4 5.1-10.2 5.1-3 0-5.55-.975-7.65-3-2.1-2.1-3.15-4.538-3.15-7.35 0-2.888 1.05-5.325 3.15-7.35 2.1-2.1 4.65-3.15 7.65-3.15 3.075 0 5.587.9 7.5 2.7 1.987 1.8 3 4.35 3 7.65v1.05zm-14.1-3.75h7.5c-.113-1.088-.525-1.875-1.2-2.4-.6-.6-1.463-.9-2.55-.9-1.125 0-2.025.3-2.7.9-.6.6-.975 1.425-1.05 2.4zM176.263 506.4v-19.65h6.9v2.85l.3-.3c.075-.188.337-.488.75-.9.375-.375.787-.75 1.2-1.05.375-.3.937-.525 1.65-.75.675-.3 1.387-.45 2.1-.45.787 0 1.537.112 2.25.3.675.225 1.2.412 1.5.6l.6.3-2.85 5.7c-.825-.675-1.95-1.05-3.45-1.05-.9 0-1.65.225-2.25.6-.525.3-.9.75-1.2 1.35-.225.525-.375.975-.45 1.35-.113.3-.15.562-.15.75v10.35h-6.9zM196.586 486.75v-7.35h6.75v7.35h4.2v5.1h-4.2v6.3c0 1.8.525 2.7 1.65 2.7a2.2 2.2 0 0 0 .75-.15c.3-.075.488-.188.6-.3l.3-.15 1.65 5.55c-1.425.787-3.075 1.2-4.95 1.2-1.312 0-2.4-.225-3.3-.6-.9-.488-1.612-1.088-2.1-1.8a7.124 7.124 0 0 1-1.05-2.4c-.225-.9-.3-1.8-.3-2.7v-7.65h-2.85v-5.1h2.85zM211.304 475.8c.788-.788 1.725-1.2 2.85-1.2 1.088 0 2.025.412 2.85 1.2.788.712 1.2 1.612 1.2 2.7 0 1.125-.412 2.062-1.2 2.85-.825.825-1.762 1.2-2.85 1.2-1.125 0-2.062-.375-2.85-1.2-.825-.788-1.2-1.725-1.2-2.85 0-1.088.375-1.988 1.2-2.7zm-.75 10.95v19.65h6.9v-19.65h-6.9zM56.897 527.4c.787-.788 1.725-1.2 2.85-1.2 1.087 0 2.025.412 2.85 1.2.787.712 1.2 1.612 1.2 2.7 0 1.125-.413 2.062-1.2 2.85-.825.825-1.763 1.2-2.85 1.2-1.125 0-2.063-.375-2.85-1.2-.825-.788-1.2-1.725-1.2-2.85 0-1.088.375-1.988 1.2-2.7zm-.75 10.95V558h6.9v-19.65h-6.9zM67.744 558v-19.65h6.9v1.95c1.8-1.687 3.675-2.55 5.7-2.55 1.387 0 2.7.3 3.9.9 1.275.6 2.287 1.5 3 2.7 1.987-2.4 4.125-3.6 6.45-3.6 2.1 0 3.9.6 5.4 1.8 1.5 1.125 2.25 2.925 2.25 5.4V558h-6.75v-11.1c0-1.087-.3-1.987-.9-2.7-.525-.675-1.35-1.05-2.55-1.05-1.013 0-1.763.3-2.25.9-.525.6-.825 1.35-.9 2.25V558h-6.75v-11.1c0-1.087-.3-1.987-.9-2.7-.6-.675-1.463-1.05-2.55-1.05-1.125 0-1.913.375-2.4 1.05-.525.6-.75 1.35-.75 2.25V558h-6.9zM125.818 540.75c1.875 2.025 2.85 4.463 2.85 7.35 0 2.925-.975 5.4-2.85 7.5-1.8 2.025-4.125 3-6.9 3-2.625 0-4.763-.825-6.45-2.55v12h-6.9v-29.7h6.75v2.25h.15c1.687-1.875 3.825-2.85 6.45-2.85 2.775 0 5.1 1.013 6.9 3zm-5.7 10.8c.9-.9 1.35-1.987 1.35-3.3 0-1.387-.45-2.55-1.35-3.45-.825-.9-1.913-1.35-3.3-1.35-1.313 0-2.4.45-3.3 1.35-.825.9-1.2 2.025-1.2 3.3 0 1.425.375 2.55 1.2 3.45.9.825 1.987 1.2 3.3 1.2 1.275 0 2.4-.375 3.3-1.2zM132.545 527.4c.788-.788 1.725-1.2 2.85-1.2 1.088 0 2.025.412 2.85 1.2.788.712 1.2 1.612 1.2 2.7 0 1.125-.412 2.062-1.2 2.85-.825.825-1.762 1.2-2.85 1.2-1.125 0-2.062-.375-2.85-1.2-.825-.788-1.2-1.725-1.2-2.85 0-1.088.375-1.988 1.2-2.7zm-.75 10.95V558h6.9v-19.65h-6.9zM144.742 555.6c-1.8-1.987-2.7-4.425-2.7-7.35 0-3 .9-5.475 2.7-7.5 1.875-1.987 4.238-3 7.05-3 2.588 0 4.725.825 6.45 2.4v-1.8h6.75V558h-6.6v-2.25h-.15c-1.725 1.913-3.862 2.85-6.45 2.85-2.812 0-5.175-.975-7.05-3zm5.85-10.8c-.9.9-1.35 2.063-1.35 3.45 0 1.313.375 2.4 1.2 3.3.9.825 2.025 1.2 3.45 1.2 1.275 0 2.325-.375 3.15-1.2.9-.9 1.35-2.025 1.35-3.45 0-1.275-.45-2.4-1.35-3.3-.825-.9-1.875-1.35-3.15-1.35-1.312 0-2.4.45-3.3 1.35zM169.62 558v-19.65h6.9v1.95c1.8-1.687 3.675-2.55 5.7-2.55.975 0 1.95.15 2.85.45.975.225 1.875.6 2.7 1.2.9.525 1.575 1.275 2.1 2.25.6.9.9 2.025.9 3.3V558h-6.75v-11.1c0-.975-.375-1.875-1.05-2.7-.6-.787-1.425-1.2-2.4-1.2-1.125 0-2.063.413-2.85 1.2-.825.825-1.2 1.725-1.2 2.7V558h-6.9zM195.002 558v-19.65h6.9v1.95c1.8-1.687 3.675-2.55 5.7-2.55 1.388 0 2.7.3 3.9.9 1.275.6 2.288 1.5 3 2.7 1.988-2.4 4.125-3.6 6.45-3.6 2.1 0 3.9.6 5.4 1.8 1.5 1.125 2.25 2.925 2.25 5.4V558h-6.75v-11.1c0-1.087-.3-1.987-.9-2.7-.525-.675-1.35-1.05-2.55-1.05-1.012 0-1.762.3-2.25.9-.525.6-.825 1.35-.9 2.25V558h-6.75v-11.1c0-1.087-.3-1.987-.9-2.7-.6-.675-1.462-1.05-2.55-1.05-1.125 0-1.912.375-2.4 1.05-.525.6-.75 1.35-.75 2.25V558h-6.9zM239.277 538.35v9.3c0 2.025.3 3.413.9 4.2.6.825 1.575 1.2 3 1.2 1.387 0 2.4-.375 3-1.2.6-.787.9-2.175.9-4.2v-9.3h6.75v10.95c0 3.3-.863 5.7-2.55 7.2-1.725 1.425-4.425 2.1-8.1 2.1-3.713 0-6.413-.675-8.1-2.1-1.725-1.5-2.55-3.9-2.55-7.2v-10.95h6.75zM57.497 597.2c-1.8-1.987-2.7-4.425-2.7-7.35 0-3 .9-5.475 2.7-7.5 1.875-1.987 4.237-3 7.05-3 2.587 0 4.725.825 6.45 2.4V566.6h6.75v33h-6.6v-2.25h-.15c-1.725 1.913-3.863 2.85-6.45 2.85-2.813 0-5.175-.975-7.05-3zm5.85-10.8c-.9.9-1.35 2.063-1.35 3.45 0 1.313.375 2.4 1.2 3.3.9.825 2.025 1.2 3.45 1.2 1.275 0 2.325-.375 3.15-1.2.9-.9 1.35-2.025 1.35-3.45 0-1.275-.45-2.4-1.35-3.3-.825-.9-1.875-1.35-3.15-1.35-1.313 0-2.4.45-3.3 1.35zM102.324 590.75h-14.25c0 1.313.45 2.325 1.35 3 .9.713 1.838 1.05 2.85 1.05 1.088 0 1.95-.15 2.55-.45.675-.3 1.425-.9 2.25-1.8l4.95 2.55c-2.025 3.413-5.4 5.1-10.2 5.1-3 0-5.55-.975-7.65-3-2.1-2.1-3.15-4.537-3.15-7.35 0-2.887 1.05-5.325 3.15-7.35 2.1-2.1 4.65-3.15 7.65-3.15 3.075 0 5.588.9 7.5 2.7 1.988 1.8 3 4.35 3 7.65v1.05zm-14.1-3.75h7.5c-.112-1.087-.525-1.875-1.2-2.4-.6-.6-1.462-.9-2.55-.9-1.125 0-2.025.3-2.7.9-.6.6-.975 1.425-1.05 2.4zM105.53 599.6v-19.65h6.9v1.95c1.8-1.687 3.675-2.55 5.7-2.55.975 0 1.95.15 2.85.45.975.225 1.875.6 2.7 1.2.9.525 1.575 1.275 2.1 2.25.6.9.9 2.025.9 3.3v13.05h-6.75v-11.1c0-.975-.375-1.875-1.05-2.7-.6-.787-1.425-1.2-2.4-1.2-1.125 0-2.063.413-2.85 1.2-.825.825-1.2 1.725-1.2 2.7v11.1h-6.9zM130.012 604.4l5.7-2.7c.975 1.688 2.738 2.55 5.25 2.55 1.2 0 2.288-.412 3.3-1.2.975-.712 1.5-1.875 1.5-3.45v-1.35c-1.2 1.313-3.375 1.95-6.45 1.95-2.812 0-5.175-.975-7.05-3-1.8-1.987-2.7-4.425-2.7-7.35 0-3 .9-5.475 2.7-7.5 1.875-1.987 4.238-3 7.05-3 2.588 0 4.688.75 6.3 2.25h.15v-1.65h6.75v20.25c0 3.188-1.05 5.625-3.15 7.35-2.1 1.688-4.912 2.55-8.4 2.55-5.625 0-9.262-1.912-10.95-5.7zm8.1-18c-.9.9-1.35 2.063-1.35 3.45 0 1.313.375 2.4 1.2 3.3.9.825 2.025 1.2 3.45 1.2 1.275 0 2.325-.375 3.15-1.2.9-.9 1.35-2.025 1.35-3.45 0-1.275-.45-2.4-1.35-3.3-.825-.9-1.875-1.35-3.15-1.35-1.312 0-2.4.45-3.3 1.35zM158.49 597.2c-1.8-1.987-2.7-4.425-2.7-7.35 0-3 .9-5.475 2.7-7.5 1.875-1.987 4.237-3 7.05-3 2.587 0 4.725.825 6.45 2.4v-1.8h6.75v19.65h-6.6v-2.25h-.15c-1.725 1.913-3.863 2.85-6.45 2.85-2.813 0-5.175-.975-7.05-3zm5.85-10.8c-.9.9-1.35 2.063-1.35 3.45 0 1.313.375 2.4 1.2 3.3.9.825 2.025 1.2 3.45 1.2 1.275 0 2.325-.375 3.15-1.2.9-.9 1.35-2.025 1.35-3.45 0-1.275-.45-2.4-1.35-3.3-.825-.9-1.875-1.35-3.15-1.35-1.313 0-2.4.45-3.3 1.35zM183.367 599.6v-19.65h6.9v1.95c1.8-1.687 3.675-2.55 5.7-2.55.975 0 1.95.15 2.85.45.975.225 1.875.6 2.7 1.2.9.525 1.575 1.275 2.1 2.25.6.9.9 2.025.9 3.3v13.05h-6.75v-11.1c0-.975-.375-1.875-1.05-2.7-.6-.787-1.425-1.2-2.4-1.2-1.125 0-2.062.413-2.85 1.2-.825.825-1.2 1.725-1.2 2.7v11.1h-6.9zM56.147 651.2v-19.65h6.9v1.95c1.8-1.688 3.675-2.55 5.7-2.55 1.387 0 2.7.3 3.9.9 1.275.6 2.287 1.5 3 2.7 1.987-2.4 4.125-3.6 6.45-3.6 2.1 0 3.9.6 5.4 1.8 1.5 1.125 2.25 2.925 2.25 5.4v13.05h-6.75v-11.1c0-1.088-.3-1.988-.9-2.7-.525-.675-1.35-1.05-2.55-1.05-1.013 0-1.763.3-2.25.9-.525.6-.825 1.35-.9 2.25v11.7h-6.75v-11.1c0-1.088-.3-1.988-.9-2.7-.6-.675-1.463-1.05-2.55-1.05-1.125 0-1.913.375-2.4 1.05-.525.6-.75 1.35-.75 2.25v11.55h-6.9zM100.421 631.55v9.3c0 2.025.3 3.413.9 4.2.6.825 1.575 1.2 3 1.2 1.388 0 2.4-.375 3-1.2.6-.787.9-2.175.9-4.2v-9.3h6.75v10.95c0 3.3-.862 5.7-2.55 7.2-1.725 1.425-4.425 2.1-8.1 2.1-3.712 0-6.412-.675-8.1-2.1-1.725-1.5-2.55-3.9-2.55-7.2v-10.95h6.75zM120.512 648.8c-1.8-1.988-2.7-4.425-2.7-7.35 0-3 .9-5.475 2.7-7.5 1.875-1.988 4.237-3 7.05-3 2.587 0 4.725.825 6.45 2.4V618.2h6.75v33h-6.6v-2.25h-.15c-1.725 1.912-3.863 2.85-6.45 2.85-2.813 0-5.175-.975-7.05-3zm5.85-10.8c-.9.9-1.35 2.062-1.35 3.45 0 1.312.375 2.4 1.2 3.3.9.825 2.025 1.2 3.45 1.2 1.275 0 2.325-.375 3.15-1.2.9-.9 1.35-2.025 1.35-3.45 0-1.275-.45-2.4-1.35-3.3-.825-.9-1.875-1.35-3.15-1.35-1.313 0-2.4.45-3.3 1.35zM146.739 648.8c-1.8-1.988-2.7-4.425-2.7-7.35 0-3 .9-5.475 2.7-7.5 1.875-1.988 4.238-3 7.05-3 2.588 0 4.725.825 6.45 2.4v-1.8h6.75v19.65h-6.6v-2.25h-.15c-1.725 1.912-3.862 2.85-6.45 2.85-2.812 0-5.175-.975-7.05-3zm5.85-10.8c-.9.9-1.35 2.062-1.35 3.45 0 1.312.375 2.4 1.2 3.3.9.825 2.025 1.2 3.45 1.2 1.275 0 2.325-.375 3.15-1.2.9-.9 1.35-2.025 1.35-3.45 0-1.275-.45-2.4-1.35-3.3-.825-.9-1.875-1.35-3.15-1.35-1.312 0-2.4.45-3.3 1.35zM171.617 651.2v-33h6.9v15.3c1.8-1.688 3.675-2.55 5.7-2.55.975 0 1.95.15 2.85.45.975.225 1.875.6 2.7 1.2.9.525 1.575 1.275 2.1 2.25.6.9.9 2.025.9 3.3v13.05h-6.75v-11.1c0-.975-.375-1.875-1.05-2.7-.6-.788-1.425-1.2-2.4-1.2-1.125 0-2.063.412-2.85 1.2-.825.825-1.2 1.725-1.2 2.7v11.1h-6.9z" fill="#ECEBEB"/><mask id="h" style="mask-type:luminance" maskUnits="userSpaceOnUse" x="359" y="360" width="123" height="123"><path d="M359 360h122.4v122.4H359V360z" fill="#fff"/></mask><g mask="url(#h)"><path d="M359 360h122v122H359V360z" fill="#F08B33"/></g><mask id="i" style="mask-type:luminance" maskUnits="userSpaceOnUse" x="600" y="600" width="120" height="120"><path d="M600.938 600H720v120H600.938V600z" fill="#fff"/></mask><g mask="url(#i)"><path d="M600.938 600h122.4v122.4h-122.4V600z" fill="#F08B33"/></g><mask id="j" style="mask-type:luminance" maskUnits="userSpaceOnUse" x="480" y="480" width="123" height="123"><path d="M480.075 480h122.4v122.4h-122.4V480z" fill="#fff"/></mask><g mask="url(#j)"><path d="M480.075 480h122.4v122.4h-122.4V480z" fill="#48C5B7"/></g><mask id="k" style="mask-type:luminance" maskUnits="userSpaceOnUse" x="359" y="600" width="123" height="120"><path d="M359.213 600h122.4v120h-122.4V600z" fill="#fff"/></mask><g mask="url(#k)"><path d="M359.213 600h122.4v122.4h-122.4V600z" fill="#48C5B7"/></g><mask id="l" style="mask-type:luminance" maskUnits="userSpaceOnUse" x="540" y="0" width="180" height="361"><path d="M540 0h180v361H540V0z" fill="#fff"/></mask><g mask="url(#l)"><mask id="m" style="mask-type:luminance" maskUnits="userSpaceOnUse" x="540" y="0" width="360" height="360"><path d="M719.85 359.651c-99 0-179.85-80.771-179.85-179.975C540 80.772 620.85 0 719.85 0c99.3 0 179.888 80.772 179.888 179.676C900 278.88 819.15 359.651 719.85 359.651zm0-260.71c-44.4 0-80.812 36.378-80.812 80.735 0 44.394 36.412 80.771 80.812 80.771 44.438 0 80.85-36.377 80.85-80.771 0-44.357-36.15-80.734-80.85-80.734z" fill="#fff"/></mask><g mask="url(#m)"><path d="M540 0h361.35v361H540V0z" fill="#FFDF2B"/></g></g></g><defs><clipPath id="a"><rect width="720" height="720" rx="60" fill="#fff"/></clipPath></defs></svg>