<svg width="720" height="720" viewBox="0 0 720 720" fill="none" xmlns="http://www.w3.org/2000/svg">
<g clip-path="url(#clip0_672_48891)">
<path d="M792 -72H-72V792H792V-72Z" fill="white"/>
<path d="M792 -72H-72V792H792V-72Z" fill="#1740C7"/>
<mask id="mask0_672_48891" style="mask-type:luminance" maskUnits="userSpaceOnUse" x="0" y="0" width="360" height="720">
<path d="M0 0H360V720H0V0Z" fill="white"/>
</mask>
<g mask="url(#mask0_672_48891)">
<path d="M0 0H360V720H0V0Z" fill="#FFDF2B"/>
</g>
<mask id="mask1_672_48891" style="mask-type:luminance" maskUnits="userSpaceOnUse" x="0" y="583" width="137" height="137">
<path d="M0 583H136.8V720H0V583Z" fill="white"/>
</mask>
<g mask="url(#mask1_672_48891)">
<path d="M0 583H137V720H0V583Z" fill="#1740C7"/>
</g>
<mask id="mask2_672_48891" style="mask-type:luminance" maskUnits="userSpaceOnUse" x="180" y="0" width="180" height="180">
<path d="M180 0H360V180H180V0Z" fill="white"/>
</mask>
<g mask="url(#mask2_672_48891)">
<mask id="mask3_672_48891" style="mask-type:luminance" maskUnits="userSpaceOnUse" x="180" y="0" width="180" height="180">
<path d="M270 0C220.313 0 180 40.3125 180 90C180 139.688 220.313 180 270 180C319.688 180 360 139.688 360 90C360 40.3125 319.688 0 270 0Z" fill="white"/>
</mask>
<g mask="url(#mask3_672_48891)">
<path d="M180 0H360V180H180V0Z" fill="#F08B33"/>
</g>
</g>
<path d="M441.584 212.2H452.084C454.859 212.2 457.184 213.025 458.984 214.6C460.784 216.1 461.684 218.275 461.684 221.05C461.684 223.15 461.121 224.95 460.034 226.45C458.909 227.875 457.484 228.85 455.684 229.45L465.734 241.6H457.184L448.334 230.05V241.6H441.584V212.2ZM448.334 225.25H449.084C449.684 225.25 450.171 225.25 450.584 225.25C451.071 225.25 451.559 225.212 452.084 225.1C452.684 224.912 453.134 224.725 453.434 224.5C453.734 224.2 453.959 223.825 454.184 223.3C454.484 222.812 454.634 222.212 454.634 221.5C454.634 220.825 454.484 220.225 454.184 219.7C453.959 219.212 453.734 218.8 453.434 218.5C453.134 218.2 452.684 218.012 452.084 217.9C451.559 217.712 451.071 217.6 450.584 217.6C450.171 217.6 449.684 217.6 449.084 217.6H448.334V225.25Z" fill="#ECEBEB"/>
<path d="M468.217 239.35C466.491 237.475 465.667 235.15 465.667 232.45C465.667 229.75 466.491 227.5 468.217 225.7C470.017 223.825 472.191 222.85 474.817 222.85C477.217 222.85 479.204 223.6 480.817 225.1V223.3H487.117V241.6H480.817V239.5C479.204 241.3 477.217 242.2 474.817 242.2C472.191 242.2 470.017 241.262 468.217 239.35ZM473.617 229.45C472.791 230.275 472.417 231.325 472.417 232.6C472.417 233.8 472.791 234.812 473.617 235.6C474.404 236.425 475.417 236.8 476.617 236.8C477.891 236.8 478.942 236.425 479.767 235.6C480.554 234.812 480.967 233.762 480.967 232.45C480.967 231.25 480.517 230.275 479.617 229.45C478.791 228.662 477.817 228.25 476.617 228.25C475.417 228.25 474.404 228.662 473.617 229.45Z" fill="#ECEBEB"/>
<path d="M499.227 222.85C500.202 222.85 501.214 223 502.227 223.3C503.314 223.525 504.102 223.712 504.627 223.9L505.377 224.2L503.277 228.4C501.852 227.612 500.502 227.2 499.227 227.2C498.514 227.2 498.027 227.312 497.727 227.5C497.427 227.612 497.277 227.912 497.277 228.4C497.277 228.512 497.277 228.625 497.277 228.7C497.352 228.7 497.427 228.775 497.427 228.85C497.502 228.962 497.577 229.075 497.577 229.15C497.652 229.15 497.764 229.225 497.877 229.3C498.064 229.412 498.214 229.45 498.327 229.45C498.402 229.45 498.514 229.525 498.627 229.6C498.814 229.712 498.964 229.825 499.077 229.9C499.152 229.9 499.302 229.975 499.527 230.05C499.827 230.05 500.014 230.05 500.127 230.05C500.802 230.275 501.402 230.5 501.927 230.8C502.527 231.1 503.127 231.512 503.727 232C504.327 232.412 504.777 232.975 505.077 233.65C505.452 234.25 505.677 235 505.677 235.9C505.677 240.1 502.752 242.2 496.977 242.2C495.664 242.2 494.427 241.975 493.227 241.6C492.102 241.112 491.314 240.662 490.827 240.25L489.927 239.65L492.627 235.45C492.702 235.562 492.927 235.75 493.227 236.05C493.602 236.275 494.202 236.575 495.027 236.95C495.814 237.362 496.527 237.55 497.127 237.55C498.402 237.55 499.077 237.1 499.077 236.2C499.077 235.825 498.852 235.525 498.477 235.3C498.177 235 497.614 234.775 496.827 234.55C496.002 234.25 495.402 233.95 495.027 233.65C493.827 233.05 492.852 232.412 492.177 231.7C491.577 230.912 491.277 229.9 491.277 228.7C491.277 226.825 491.952 225.362 493.377 224.35C494.877 223.375 496.827 222.85 499.227 222.85Z" fill="#ECEBEB"/>
<path d="M509.953 239.35C508.228 237.475 507.403 235.15 507.403 232.45C507.403 229.75 508.228 227.5 509.953 225.7C511.753 223.825 513.928 222.85 516.553 222.85C518.953 222.85 520.94 223.6 522.553 225.1V223.3H528.853V241.6H522.553V239.5C520.94 241.3 518.953 242.2 516.553 242.2C513.928 242.2 511.753 241.262 509.953 239.35ZM515.353 229.45C514.528 230.275 514.153 231.325 514.153 232.6C514.153 233.8 514.528 234.812 515.353 235.6C516.14 236.425 517.153 236.8 518.353 236.8C519.628 236.8 520.678 236.425 521.503 235.6C522.29 234.812 522.703 233.762 522.703 232.45C522.703 231.25 522.253 230.275 521.353 229.45C520.528 228.662 519.553 228.25 518.353 228.25C517.153 228.25 516.14 228.662 515.353 229.45Z" fill="#ECEBEB"/>
<path d="M553.863 223.3L545.163 232L554.763 241.6H546.663L539.313 234.25V241.6H533.013V211H539.313V229.75L545.763 223.3H553.863Z" fill="#ECEBEB"/>
<path d="M557.159 239.35C555.434 237.475 554.609 235.15 554.609 232.45C554.609 229.75 555.434 227.5 557.159 225.7C558.959 223.825 561.134 222.85 563.759 222.85C566.159 222.85 568.147 223.6 569.759 225.1V223.3H576.059V241.6H569.759V239.5C568.147 241.3 566.159 242.2 563.759 242.2C561.134 242.2 558.959 241.262 557.159 239.35ZM562.559 229.45C561.734 230.275 561.359 231.325 561.359 232.6C561.359 233.8 561.734 234.812 562.559 235.6C563.347 236.425 564.359 236.8 565.559 236.8C566.834 236.8 567.884 236.425 568.709 235.6C569.497 234.812 569.909 233.762 569.909 232.45C569.909 231.25 569.459 230.275 568.559 229.45C567.734 228.662 566.759 228.25 565.559 228.25C564.359 228.25 563.347 228.662 562.559 229.45Z" fill="#ECEBEB"/>
<path d="M580.22 241.6V223.3H586.52V225.25H586.67C588.245 223.675 589.97 222.85 591.77 222.85C592.67 222.85 593.57 223 594.47 223.3C595.37 223.525 596.195 223.862 597.02 224.35C597.92 224.875 598.595 225.55 599.12 226.45C599.607 227.35 599.87 228.4 599.87 229.6V241.6H593.57V231.25C593.57 230.35 593.27 229.562 592.67 228.85C592.07 228.175 591.245 227.8 590.27 227.8C589.37 227.8 588.507 228.175 587.72 228.85C586.895 229.562 586.52 230.35 586.52 231.25V241.6H580.22Z" fill="#ECEBEB"/>
<path d="M460.034 274.79H446.834C446.834 276.103 447.209 277.04 448.034 277.64C448.934 278.24 449.834 278.54 450.734 278.54C451.822 278.54 452.609 278.465 453.134 278.24C453.734 277.94 454.409 277.415 455.234 276.59L459.734 278.84C457.822 282.065 454.672 283.64 450.284 283.64C447.584 283.64 445.222 282.703 443.234 280.79C441.209 278.915 440.234 276.665 440.234 274.04C440.234 271.34 441.209 269.053 443.234 267.14C445.222 265.265 447.584 264.29 450.284 264.29C453.172 264.29 455.534 265.153 457.334 266.84C459.134 268.453 460.034 270.815 460.034 273.89C460.034 274.415 460.034 274.715 460.034 274.79ZM446.984 271.34H453.884C453.772 270.365 453.434 269.615 452.834 269.09C452.234 268.603 451.409 268.34 450.434 268.34C449.422 268.34 448.634 268.64 448.034 269.24C447.434 269.765 447.059 270.44 446.984 271.34Z" fill="#ECEBEB"/>
<path d="M464.053 264.74V260.99C464.128 258.215 464.803 256.002 466.003 254.39C467.278 252.815 469.04 251.99 471.253 251.99C472.153 251.99 473.053 252.14 473.953 252.44C474.853 252.665 475.49 252.89 475.903 253.19L476.503 253.64L474.253 257.99C473.653 257.69 472.978 257.54 472.303 257.54C471.478 257.54 470.953 257.802 470.653 258.29C470.428 258.815 470.353 259.752 470.353 261.14V264.74H474.553V269.54H470.353V283.04H464.053V269.54H461.503V264.74H464.053Z" fill="#ECEBEB"/>
<path d="M476.923 254.69C477.71 253.902 478.61 253.49 479.623 253.49C480.598 253.49 481.46 253.902 482.173 254.69C482.96 255.402 483.373 256.265 483.373 257.24C483.373 258.252 482.96 259.152 482.173 259.94C481.46 260.652 480.598 260.99 479.623 260.99C478.61 260.99 477.71 260.652 476.923 259.94C476.21 259.152 475.873 258.252 475.873 257.24C475.873 256.265 476.21 255.402 476.923 254.69ZM476.323 264.74V283.04H482.623V264.74H476.323Z" fill="#ECEBEB"/>
<path d="M495 264.29C495.975 264.29 496.987 264.44 498 264.74C499.087 264.965 499.875 265.153 500.4 265.34L501.15 265.64L499.05 269.84C497.625 269.053 496.275 268.64 495 268.64C494.287 268.64 493.8 268.753 493.5 268.94C493.2 269.053 493.05 269.353 493.05 269.84C493.05 269.953 493.05 270.065 493.05 270.14C493.125 270.14 493.2 270.215 493.2 270.29C493.275 270.403 493.35 270.515 493.35 270.59C493.425 270.59 493.537 270.665 493.65 270.74C493.837 270.853 493.987 270.89 494.1 270.89C494.175 270.89 494.287 270.965 494.4 271.04C494.587 271.153 494.737 271.265 494.85 271.34C494.925 271.34 495.075 271.415 495.3 271.49C495.6 271.49 495.787 271.49 495.9 271.49C496.575 271.715 497.175 271.94 497.7 272.24C498.3 272.54 498.9 272.953 499.5 273.44C500.1 273.853 500.55 274.415 500.85 275.09C501.225 275.69 501.45 276.44 501.45 277.34C501.45 281.54 498.525 283.64 492.75 283.64C491.437 283.64 490.2 283.415 489 283.04C487.875 282.553 487.087 282.103 486.6 281.69L485.7 281.09L488.4 276.89C488.475 277.003 488.7 277.19 489 277.49C489.375 277.715 489.975 278.015 490.8 278.39C491.587 278.803 492.3 278.99 492.9 278.99C494.175 278.99 494.85 278.54 494.85 277.64C494.85 277.265 494.625 276.965 494.25 276.74C493.95 276.44 493.387 276.215 492.6 275.99C491.775 275.69 491.175 275.39 490.8 275.09C489.6 274.49 488.625 273.853 487.95 273.14C487.35 272.353 487.05 271.34 487.05 270.14C487.05 268.265 487.725 266.803 489.15 265.79C490.65 264.815 492.6 264.29 495 264.29Z" fill="#ECEBEB"/>
<path d="M505.126 254.69C505.913 253.902 506.813 253.49 507.826 253.49C508.801 253.49 509.663 253.902 510.376 254.69C511.163 255.402 511.576 256.265 511.576 257.24C511.576 258.252 511.163 259.152 510.376 259.94C509.663 260.652 508.801 260.99 507.826 260.99C506.813 260.99 505.913 260.652 505.126 259.94C504.413 259.152 504.076 258.252 504.076 257.24C504.076 256.265 504.413 255.402 505.126 254.69ZM504.526 264.74V283.04H510.826V264.74H504.526Z" fill="#ECEBEB"/>
<path d="M533.703 274.79H520.503C520.503 276.103 520.878 277.04 521.703 277.64C522.603 278.24 523.503 278.54 524.403 278.54C525.491 278.54 526.278 278.465 526.803 278.24C527.403 277.94 528.078 277.415 528.903 276.59L533.403 278.84C531.491 282.065 528.341 283.64 523.953 283.64C521.253 283.64 518.891 282.703 516.903 280.79C514.878 278.915 513.903 276.665 513.903 274.04C513.903 271.34 514.878 269.053 516.903 267.14C518.891 265.265 521.253 264.29 523.953 264.29C526.841 264.29 529.203 265.153 531.003 266.84C532.803 268.453 533.703 270.815 533.703 273.89C533.703 274.415 533.703 274.715 533.703 274.79ZM520.653 271.34H527.553C527.441 270.365 527.103 269.615 526.503 269.09C525.903 268.603 525.078 268.34 524.103 268.34C523.091 268.34 522.303 268.64 521.703 269.24C521.103 269.765 520.728 270.44 520.653 271.34Z" fill="#ECEBEB"/>
<path d="M536.672 283.04V264.74H542.972V266.69H543.122C544.697 265.115 546.422 264.29 548.222 264.29C549.122 264.29 550.022 264.44 550.922 264.74C551.822 264.965 552.647 265.303 553.472 265.79C554.372 266.315 555.047 266.99 555.572 267.89C556.059 268.79 556.322 269.84 556.322 271.04V283.04H550.022V272.69C550.022 271.79 549.722 271.003 549.122 270.29C548.522 269.615 547.697 269.24 546.722 269.24C545.822 269.24 544.959 269.615 544.172 270.29C543.347 271.003 542.972 271.79 542.972 272.69V283.04H536.672Z" fill="#ECEBEB"/>
<path d="M568.101 264.29C569.076 264.29 570.088 264.44 571.101 264.74C572.188 264.965 572.976 265.153 573.501 265.34L574.251 265.64L572.151 269.84C570.726 269.053 569.376 268.64 568.101 268.64C567.388 268.64 566.901 268.753 566.601 268.94C566.301 269.053 566.151 269.353 566.151 269.84C566.151 269.953 566.151 270.065 566.151 270.14C566.226 270.14 566.301 270.215 566.301 270.29C566.376 270.403 566.451 270.515 566.451 270.59C566.526 270.59 566.638 270.665 566.751 270.74C566.938 270.853 567.088 270.89 567.201 270.89C567.276 270.89 567.388 270.965 567.501 271.04C567.688 271.153 567.838 271.265 567.951 271.34C568.026 271.34 568.176 271.415 568.401 271.49C568.701 271.49 568.888 271.49 569.001 271.49C569.676 271.715 570.276 271.94 570.801 272.24C571.401 272.54 572.001 272.953 572.601 273.44C573.201 273.853 573.651 274.415 573.951 275.09C574.326 275.69 574.551 276.44 574.551 277.34C574.551 281.54 571.626 283.64 565.851 283.64C564.538 283.64 563.301 283.415 562.101 283.04C560.976 282.553 560.188 282.103 559.701 281.69L558.801 281.09L561.501 276.89C561.576 277.003 561.801 277.19 562.101 277.49C562.476 277.715 563.076 278.015 563.901 278.39C564.688 278.803 565.401 278.99 566.001 278.99C567.276 278.99 567.951 278.54 567.951 277.64C567.951 277.265 567.726 276.965 567.351 276.74C567.051 276.44 566.488 276.215 565.701 275.99C564.876 275.69 564.276 275.39 563.901 275.09C562.701 274.49 561.726 273.853 561.051 273.14C560.451 272.353 560.151 271.34 560.151 270.14C560.151 268.265 560.826 266.803 562.251 265.79C563.751 264.815 565.701 264.29 568.101 264.29Z" fill="#ECEBEB"/>
<path d="M578.227 254.69C579.014 253.902 579.914 253.49 580.927 253.49C581.902 253.49 582.764 253.902 583.477 254.69C584.264 255.402 584.677 256.265 584.677 257.24C584.677 258.252 584.264 259.152 583.477 259.94C582.764 260.652 581.902 260.99 580.927 260.99C579.914 260.99 579.014 260.652 578.227 259.94C577.514 259.152 577.177 258.252 577.177 257.24C577.177 256.265 577.514 255.402 578.227 254.69ZM577.627 264.74V283.04H583.927V264.74H577.627Z" fill="#ECEBEB"/>
<path d="M452.834 324.48H448.484L438.734 306.18H446.084L450.434 316.08L454.784 306.18H459.134L463.484 316.08L467.984 306.18H475.184L465.434 324.48H461.234L457.034 315.03L452.834 324.48Z" fill="#ECEBEB"/>
<path d="M477.807 322.23C476.082 320.355 475.257 318.03 475.257 315.33C475.257 312.63 476.082 310.38 477.807 308.58C479.607 306.705 481.782 305.73 484.407 305.73C486.807 305.73 488.794 306.48 490.407 307.98V306.18H496.707V324.48H490.407V322.38C488.794 324.18 486.807 325.08 484.407 325.08C481.782 325.08 479.607 324.142 477.807 322.23ZM483.207 312.33C482.382 313.155 482.007 314.205 482.007 315.48C482.007 316.68 482.382 317.692 483.207 318.48C483.994 319.305 485.007 319.68 486.207 319.68C487.482 319.68 488.532 319.305 489.357 318.48C490.144 317.692 490.557 316.642 490.557 315.33C490.557 314.13 490.107 313.155 489.207 312.33C488.382 311.542 487.407 311.13 486.207 311.13C485.007 311.13 483.994 311.542 483.207 312.33Z" fill="#ECEBEB"/>
<path d="M521.717 306.18L513.017 314.88L522.617 324.48H514.517L507.167 317.13V324.48H500.867V293.88H507.167V312.63L513.617 306.18H521.717Z" fill="#ECEBEB"/>
<path d="M524.863 306.18V299.43H531.163V306.18H535.063V310.98H531.163V316.83C531.163 318.555 531.651 319.38 532.663 319.38C532.851 319.38 533.038 319.342 533.263 319.23C533.563 319.155 533.788 319.042 534.013 318.93L534.163 318.78L535.813 323.88C534.388 324.667 532.851 325.08 531.163 325.08C529.963 325.08 528.913 324.855 528.013 324.48C527.188 323.992 526.551 323.392 526.063 322.68C525.651 322.005 525.351 321.292 525.163 320.58C524.938 319.792 524.863 318.93 524.863 318.03V310.98H522.313V306.18H524.863Z" fill="#ECEBEB"/>
<path d="M543.844 306.18V314.88C543.844 316.68 544.069 317.992 544.594 318.78C545.194 319.492 546.131 319.83 547.444 319.83C548.719 319.83 549.619 319.492 550.144 318.78C550.744 317.992 551.044 316.68 551.044 314.88V306.18H557.344V316.38C557.344 319.492 556.519 321.742 554.944 323.13C553.331 324.442 550.781 325.08 547.294 325.08C543.881 325.08 541.369 324.442 539.794 323.13C538.294 321.742 537.544 319.492 537.544 316.38V306.18H543.844Z" fill="#ECEBEB"/>
<path d="M572.042 322.23C570.317 320.355 569.492 318.03 569.492 315.33C569.492 312.63 570.317 310.38 572.042 308.58C573.842 306.705 576.017 305.73 578.642 305.73C581.042 305.73 583.03 306.48 584.642 307.98V293.88H590.942V324.48H584.642V322.38C583.03 324.18 581.042 325.08 578.642 325.08C576.017 325.08 573.842 324.142 572.042 322.23ZM577.442 312.33C576.617 313.155 576.242 314.205 576.242 315.48C576.242 316.68 576.617 317.692 577.442 318.48C578.23 319.305 579.242 319.68 580.442 319.68C581.717 319.68 582.767 319.305 583.592 318.48C584.38 317.692 584.792 316.642 584.792 315.33C584.792 314.13 584.342 313.155 583.442 312.33C582.617 311.542 581.642 311.13 580.442 311.13C579.242 311.13 578.23 311.542 577.442 312.33Z" fill="#ECEBEB"/>
<path d="M596.303 322.23C594.578 320.355 593.753 318.03 593.753 315.33C593.753 312.63 594.578 310.38 596.303 308.58C598.103 306.705 600.278 305.73 602.903 305.73C605.303 305.73 607.29 306.48 608.903 307.98V306.18H615.203V324.48H608.903V322.38C607.29 324.18 605.303 325.08 602.903 325.08C600.278 325.08 598.103 324.142 596.303 322.23ZM601.703 312.33C600.878 313.155 600.503 314.205 600.503 315.48C600.503 316.68 600.878 317.692 601.703 318.48C602.49 319.305 603.503 319.68 604.703 319.68C605.978 319.68 607.028 319.305 607.853 318.48C608.64 317.692 609.053 316.642 609.053 315.33C609.053 314.13 608.603 313.155 607.703 312.33C606.878 311.542 605.903 311.13 604.703 311.13C603.503 311.13 602.49 311.542 601.703 312.33Z" fill="#ECEBEB"/>
<path d="M619.363 324.48V306.18H625.663V308.13H625.813C627.388 306.555 629.113 305.73 630.913 305.73C631.813 305.73 632.713 305.88 633.613 306.18C634.513 306.405 635.338 306.742 636.163 307.23C637.063 307.755 637.738 308.43 638.263 309.33C638.75 310.23 639.013 311.28 639.013 312.48V324.48H632.713V314.13C632.713 313.23 632.413 312.442 631.813 311.73C631.213 311.055 630.388 310.68 629.413 310.68C628.513 310.68 627.65 311.055 626.863 311.73C626.038 312.442 625.663 313.23 625.663 314.13V324.48H619.363Z" fill="#ECEBEB"/>
<path d="M460.334 350.02C462.021 351.82 462.884 354.07 462.884 356.77C462.884 359.47 462.021 361.795 460.334 363.67C458.609 365.582 456.471 366.52 453.884 366.52C451.484 366.52 449.459 365.62 447.884 363.82V365.92H441.584V335.32H447.884V349.42C449.459 347.92 451.484 347.17 453.884 347.17C456.471 347.17 458.609 348.145 460.334 350.02ZM455.084 359.92C455.871 359.132 456.284 358.12 456.284 356.92C456.284 355.645 455.871 354.595 455.084 353.77C454.259 352.982 453.209 352.57 451.934 352.57C450.809 352.57 449.834 352.982 448.934 353.77C448.109 354.595 447.734 355.57 447.734 356.77C447.734 358.082 448.109 359.132 448.934 359.92C449.721 360.745 450.734 361.12 451.934 361.12C453.209 361.12 454.259 360.745 455.084 359.92Z" fill="#ECEBEB"/>
<path d="M466.444 337.57C467.232 336.782 468.132 336.37 469.144 336.37C470.119 336.37 470.982 336.782 471.694 337.57C472.482 338.282 472.894 339.145 472.894 340.12C472.894 341.132 472.482 342.032 471.694 342.82C470.982 343.532 470.119 343.87 469.144 343.87C468.132 343.87 467.232 343.532 466.444 342.82C465.732 342.032 465.394 341.132 465.394 340.12C465.394 339.145 465.732 338.282 466.444 337.57ZM465.844 347.62V365.92H472.144V347.62H465.844Z" fill="#ECEBEB"/>
<path d="M477.771 363.67C476.046 361.795 475.221 359.47 475.221 356.77C475.221 354.07 476.046 351.82 477.771 350.02C479.571 348.145 481.746 347.17 484.371 347.17C486.771 347.17 488.759 347.92 490.371 349.42V347.62H496.671V365.92H490.371V363.82C488.759 365.62 486.771 366.52 484.371 366.52C481.746 366.52 479.571 365.582 477.771 363.67ZM483.171 353.77C482.346 354.595 481.971 355.645 481.971 356.92C481.971 358.12 482.346 359.132 483.171 359.92C483.959 360.745 484.971 361.12 486.171 361.12C487.446 361.12 488.496 360.745 489.321 359.92C490.109 359.132 490.521 358.082 490.521 356.77C490.521 355.57 490.071 354.595 489.171 353.77C488.346 352.982 487.371 352.57 486.171 352.57C484.971 352.57 483.959 352.982 483.171 353.77Z" fill="#ECEBEB"/>
<path d="M514.632 347.62H521.982L507.582 375.22H500.382L506.682 363.07L497.982 347.62H505.332L510.282 357.07L514.632 347.62Z" fill="#ECEBEB"/>
<path d="M524.516 363.67C522.791 361.795 521.966 359.47 521.966 356.77C521.966 354.07 522.791 351.82 524.516 350.02C526.316 348.145 528.491 347.17 531.116 347.17C533.516 347.17 535.504 347.92 537.116 349.42V347.62H543.416V365.92H537.116V363.82C535.504 365.62 533.516 366.52 531.116 366.52C528.491 366.52 526.316 365.582 524.516 363.67ZM529.916 353.77C529.091 354.595 528.716 355.645 528.716 356.92C528.716 358.12 529.091 359.132 529.916 359.92C530.704 360.745 531.716 361.12 532.916 361.12C534.191 361.12 535.241 360.745 536.066 359.92C536.854 359.132 537.266 358.082 537.266 356.77C537.266 355.57 536.816 354.595 535.916 353.77C535.091 352.982 534.116 352.57 532.916 352.57C531.716 352.57 530.704 352.982 529.916 353.77Z" fill="#ECEBEB"/>
<path d="M442.784 405.11C441.059 403.235 440.234 400.91 440.234 398.21C440.234 395.51 441.059 393.26 442.784 391.46C444.584 389.585 446.759 388.61 449.384 388.61C451.784 388.61 453.772 389.36 455.384 390.86V376.76H461.684V407.36H455.384V405.26C453.772 407.06 451.784 407.96 449.384 407.96C446.759 407.96 444.584 407.023 442.784 405.11ZM448.184 395.21C447.359 396.035 446.984 397.085 446.984 398.36C446.984 399.56 447.359 400.573 448.184 401.36C448.972 402.185 449.984 402.56 451.184 402.56C452.459 402.56 453.509 402.185 454.334 401.36C455.122 400.573 455.534 399.523 455.534 398.21C455.534 397.01 455.084 396.035 454.184 395.21C453.359 394.423 452.384 394.01 451.184 394.01C449.984 394.01 448.972 394.423 448.184 395.21Z" fill="#ECEBEB"/>
<path d="M467.044 405.11C465.319 403.235 464.494 400.91 464.494 398.21C464.494 395.51 465.319 393.26 467.044 391.46C468.844 389.585 471.019 388.61 473.644 388.61C476.044 388.61 478.032 389.36 479.644 390.86V389.06H485.944V407.36H479.644V405.26C478.032 407.06 476.044 407.96 473.644 407.96C471.019 407.96 468.844 407.022 467.044 405.11ZM472.444 395.21C471.619 396.035 471.244 397.085 471.244 398.36C471.244 399.56 471.619 400.572 472.444 401.36C473.232 402.185 474.244 402.56 475.444 402.56C476.719 402.56 477.769 402.185 478.594 401.36C479.382 400.572 479.794 399.522 479.794 398.21C479.794 397.01 479.344 396.035 478.444 395.21C477.619 394.422 476.644 394.01 475.444 394.01C474.244 394.01 473.232 394.422 472.444 395.21Z" fill="#ECEBEB"/>
<path d="M490.105 407.36V376.76H496.405V407.36H490.105Z" fill="#ECEBEB"/>
<path d="M501.854 405.11C500.129 403.235 499.304 400.91 499.304 398.21C499.304 395.51 500.129 393.26 501.854 391.46C503.654 389.585 505.829 388.61 508.454 388.61C510.854 388.61 512.842 389.36 514.454 390.86V389.06H520.754V407.36H514.454V405.26C512.842 407.06 510.854 407.96 508.454 407.96C505.829 407.96 503.654 407.022 501.854 405.11ZM507.254 395.21C506.429 396.035 506.054 397.085 506.054 398.36C506.054 399.56 506.429 400.572 507.254 401.36C508.042 402.185 509.054 402.56 510.254 402.56C511.529 402.56 512.579 402.185 513.404 401.36C514.192 400.572 514.604 399.522 514.604 398.21C514.604 397.01 514.154 396.035 513.254 395.21C512.429 394.422 511.454 394.01 510.254 394.01C509.054 394.01 508.042 394.422 507.254 395.21Z" fill="#ECEBEB"/>
<path d="M524.915 407.36V389.06H531.215V391.01H531.365C532.94 389.435 534.665 388.61 536.465 388.61C537.852 388.61 539.09 388.91 540.215 389.51C541.415 390.035 542.315 390.822 542.915 391.91C544.715 389.735 546.702 388.61 548.915 388.61C550.902 388.61 552.59 389.172 554.015 390.26C555.402 391.385 556.115 393.072 556.115 395.36V407.36H549.815V397.01C549.815 396.11 549.515 395.36 548.915 394.76C548.39 394.085 547.602 393.71 546.515 393.71C545.615 393.71 544.902 394.01 544.415 394.61C543.89 395.135 543.665 395.735 543.665 396.41V407.36H537.365V397.01C537.365 396.11 537.065 395.36 536.465 394.76C535.94 394.085 535.19 393.71 534.215 393.71C533.202 393.71 532.452 394.01 531.965 394.61C531.44 395.21 531.215 395.922 531.215 396.71V407.36H524.915Z" fill="#ECEBEB"/>
<path d="M441.584 448.8V430.5H447.884V432.45H448.034C449.609 430.875 451.334 430.05 453.134 430.05C454.521 430.05 455.759 430.35 456.884 430.95C458.084 431.475 458.984 432.262 459.584 433.35C461.384 431.175 463.371 430.05 465.584 430.05C467.571 430.05 469.259 430.612 470.684 431.7C472.071 432.825 472.784 434.512 472.784 436.8V448.8H466.484V438.45C466.484 437.55 466.184 436.8 465.584 436.2C465.059 435.525 464.271 435.15 463.184 435.15C462.284 435.15 461.571 435.45 461.084 436.05C460.559 436.575 460.334 437.175 460.334 437.85V448.8H454.034V438.45C454.034 437.55 453.734 436.8 453.134 436.2C452.609 435.525 451.859 435.15 450.884 435.15C449.871 435.15 449.121 435.45 448.634 436.05C448.109 436.65 447.884 437.362 447.884 438.15V448.8H441.584Z" fill="#ECEBEB"/>
<path d="M495.021 440.55H481.821C481.821 441.862 482.196 442.8 483.021 443.4C483.921 444 484.821 444.3 485.721 444.3C486.809 444.3 487.596 444.225 488.121 444C488.721 443.7 489.396 443.175 490.221 442.35L494.721 444.6C492.809 447.825 489.659 449.4 485.271 449.4C482.571 449.4 480.209 448.462 478.221 446.55C476.196 444.675 475.221 442.425 475.221 439.8C475.221 437.1 476.196 434.812 478.221 432.9C480.209 431.025 482.571 430.05 485.271 430.05C488.159 430.05 490.521 430.912 492.321 432.6C494.121 434.212 495.021 436.575 495.021 439.65C495.021 440.175 495.021 440.475 495.021 440.55ZM481.971 437.1H488.871C488.759 436.125 488.421 435.375 487.821 434.85C487.221 434.362 486.396 434.1 485.421 434.1C484.409 434.1 483.621 434.4 483.021 435C482.421 435.525 482.046 436.2 481.971 437.1Z" fill="#ECEBEB"/>
<path d="M497.99 448.8V430.5H504.29V432.45H504.44C506.015 430.875 507.74 430.05 509.54 430.05C510.44 430.05 511.34 430.2 512.24 430.5C513.14 430.725 513.965 431.062 514.79 431.55C515.69 432.075 516.365 432.75 516.89 433.65C517.378 434.55 517.64 435.6 517.64 436.8V448.8H511.34V438.45C511.34 437.55 511.04 436.762 510.44 436.05C509.84 435.375 509.015 435 508.04 435C507.14 435 506.278 435.375 505.49 436.05C504.665 436.762 504.29 437.55 504.29 438.45V448.8H497.99Z" fill="#ECEBEB"/>
<path d="M531.219 435.15C530.019 435.15 528.969 435.6 528.069 436.5C527.244 437.4 526.869 438.45 526.869 439.65C526.869 440.962 527.244 442.05 528.069 442.95C528.969 443.775 530.019 444.15 531.219 444.15C531.819 444.15 532.344 444.112 532.869 444C533.357 443.812 533.694 443.662 533.919 443.55L534.219 443.4L536.469 447.75C536.244 447.862 536.019 448.012 535.719 448.2C535.419 448.312 534.707 448.5 533.619 448.8C532.607 449.175 531.519 449.4 530.319 449.4C527.619 449.4 525.219 448.462 523.119 446.55C521.094 444.675 520.119 442.425 520.119 439.8C520.119 437.1 521.094 434.812 523.119 432.9C525.219 431.025 527.619 430.05 530.319 430.05C531.519 430.05 532.607 430.2 533.619 430.5C534.594 430.8 535.307 431.062 535.719 431.25L536.469 431.7L534.219 436.05C533.394 435.45 532.419 435.15 531.219 435.15Z" fill="#ECEBEB"/>
<path d="M540.11 446.55C538.385 444.675 537.56 442.35 537.56 439.65C537.56 436.95 538.385 434.7 540.11 432.9C541.91 431.025 544.085 430.05 546.71 430.05C549.11 430.05 551.097 430.8 552.71 432.3V430.5H559.01V448.8H552.71V446.7C551.097 448.5 549.11 449.4 546.71 449.4C544.085 449.4 541.91 448.462 540.11 446.55ZM545.51 436.65C544.685 437.475 544.31 438.525 544.31 439.8C544.31 441 544.685 442.012 545.51 442.8C546.297 443.625 547.31 444 548.51 444C549.785 444 550.835 443.625 551.66 442.8C552.447 442.012 552.86 440.962 552.86 439.65C552.86 438.45 552.41 437.475 551.51 436.65C550.685 435.862 549.71 435.45 548.51 435.45C547.31 435.45 546.297 435.862 545.51 436.65Z" fill="#ECEBEB"/>
<path d="M563.17 448.8V430.5H569.47V433.2H569.62C569.62 433.125 569.657 433.012 569.77 432.9C569.845 432.712 570.07 432.45 570.37 432.15C570.745 431.775 571.157 431.4 571.57 431.1C571.945 430.8 572.47 430.575 573.07 430.35C573.745 430.162 574.457 430.05 575.17 430.05C575.845 430.05 576.52 430.162 577.12 430.35C577.795 430.575 578.32 430.762 578.62 430.95L579.07 431.1L576.52 436.5C575.695 435.825 574.607 435.45 573.22 435.45C572.395 435.45 571.757 435.675 571.27 436.05C570.745 436.35 570.37 436.762 570.07 437.25C569.845 437.662 569.695 438.075 569.62 438.45C569.507 438.75 569.47 439.012 569.47 439.2V448.8H563.17Z" fill="#ECEBEB"/>
<path d="M581.459 420.45C582.246 419.663 583.146 419.25 584.159 419.25C585.134 419.25 585.996 419.663 586.709 420.45C587.496 421.163 587.909 422.025 587.909 423C587.909 424.013 587.496 424.913 586.709 425.7C585.996 426.413 585.134 426.75 584.159 426.75C583.146 426.75 582.246 426.413 581.459 425.7C580.746 424.913 580.409 424.013 580.409 423C580.409 422.025 580.746 421.163 581.459 420.45ZM580.859 430.5V448.8H587.159V430.5H580.859Z" fill="#ECEBEB"/>
<path d="M460.334 474.34C462.021 476.14 462.884 478.39 462.884 481.09C462.884 483.79 462.021 486.115 460.334 487.99C458.609 489.902 456.471 490.84 453.884 490.84C451.484 490.84 449.459 490.052 447.884 488.44V499.54H441.584V471.94H447.884V474.04C449.459 472.352 451.484 471.49 453.884 471.49C456.471 471.49 458.609 472.465 460.334 474.34ZM455.084 484.24C455.871 483.452 456.284 482.44 456.284 481.24C456.284 479.965 455.871 478.915 455.084 478.09C454.259 477.302 453.209 476.89 451.934 476.89C450.734 476.89 449.721 477.302 448.934 478.09C448.109 478.915 447.734 479.89 447.734 481.09C447.734 482.402 448.109 483.452 448.934 484.24C449.834 485.065 450.809 485.44 451.934 485.44C453.209 485.44 454.259 485.065 455.084 484.24Z" fill="#ECEBEB"/>
<path d="M465.844 490.24V471.94H472.144V474.64H472.294C472.294 474.565 472.332 474.452 472.444 474.34C472.519 474.152 472.744 473.89 473.044 473.59C473.419 473.215 473.832 472.84 474.244 472.54C474.619 472.24 475.144 472.015 475.744 471.79C476.419 471.602 477.132 471.49 477.844 471.49C478.519 471.49 479.194 471.602 479.794 471.79C480.469 472.015 480.994 472.202 481.294 472.39L481.744 472.54L479.194 477.94C478.369 477.265 477.282 476.89 475.894 476.89C475.069 476.89 474.432 477.115 473.944 477.49C473.419 477.79 473.044 478.202 472.744 478.69C472.519 479.102 472.369 479.515 472.294 479.89C472.182 480.19 472.144 480.452 472.144 480.64V490.24H465.844Z" fill="#ECEBEB"/>
<path d="M485.183 488.14C483.158 486.34 482.183 484.052 482.183 481.24C482.183 478.352 483.233 475.99 485.333 474.19C487.508 472.39 490.171 471.49 493.283 471.49C496.283 471.49 498.833 472.39 500.933 474.19C503.033 475.99 504.083 478.315 504.083 481.09C504.083 483.902 503.033 486.265 500.933 488.14C498.908 489.94 496.358 490.84 493.283 490.84C489.983 490.84 487.283 489.94 485.183 488.14ZM490.133 478.09C489.308 478.915 488.933 479.965 488.933 481.24C488.933 482.44 489.308 483.452 490.133 484.24C490.921 485.065 491.933 485.44 493.133 485.44C494.408 485.44 495.458 485.065 496.283 484.24C497.071 483.452 497.483 482.402 497.483 481.09C497.483 479.89 497.033 478.915 496.133 478.09C495.308 477.302 494.333 476.89 493.133 476.89C491.933 476.89 490.921 477.302 490.133 478.09Z" fill="#ECEBEB"/>
<path d="M525.762 474.34C527.45 476.14 528.312 478.39 528.312 481.09C528.312 483.79 527.45 486.115 525.762 487.99C524.037 489.902 521.9 490.84 519.312 490.84C516.912 490.84 514.887 490.052 513.312 488.44V499.54H507.012V471.94H513.312V474.04C514.887 472.352 516.912 471.49 519.312 471.49C521.9 471.49 524.037 472.465 525.762 474.34ZM520.512 484.24C521.3 483.452 521.712 482.44 521.712 481.24C521.712 479.965 521.3 478.915 520.512 478.09C519.687 477.302 518.637 476.89 517.362 476.89C516.162 476.89 515.15 477.302 514.362 478.09C513.537 478.915 513.162 479.89 513.162 481.09C513.162 482.402 513.537 483.452 514.362 484.24C515.262 485.065 516.237 485.44 517.362 485.44C518.637 485.44 519.687 485.065 520.512 484.24Z" fill="#ECEBEB"/>
<path d="M549.723 481.99H536.523C536.523 483.302 536.898 484.24 537.723 484.84C538.623 485.44 539.523 485.74 540.423 485.74C541.51 485.74 542.298 485.665 542.823 485.44C543.423 485.14 544.098 484.615 544.923 483.79L549.423 486.04C547.51 489.265 544.36 490.84 539.973 490.84C537.273 490.84 534.91 489.902 532.923 487.99C530.898 486.115 529.923 483.865 529.923 481.24C529.923 478.54 530.898 476.252 532.923 474.34C534.91 472.465 537.273 471.49 539.973 471.49C542.86 471.49 545.223 472.352 547.023 474.04C548.823 475.652 549.723 478.015 549.723 481.09C549.723 481.615 549.723 481.915 549.723 481.99ZM536.673 478.54H543.573C543.46 477.565 543.123 476.815 542.523 476.29C541.923 475.802 541.098 475.54 540.123 475.54C539.11 475.54 538.323 475.84 537.723 476.44C537.123 476.965 536.748 477.64 536.673 478.54Z" fill="#ECEBEB"/>
<path d="M552.691 490.24V471.94H558.991V474.64H559.141C559.141 474.565 559.179 474.452 559.291 474.34C559.366 474.152 559.591 473.89 559.891 473.59C560.266 473.215 560.679 472.84 561.091 472.54C561.466 472.24 561.991 472.015 562.591 471.79C563.266 471.602 563.979 471.49 564.691 471.49C565.366 471.49 566.041 471.602 566.641 471.79C567.316 472.015 567.841 472.202 568.141 472.39L568.591 472.54L566.041 477.94C565.216 477.265 564.129 476.89 562.741 476.89C561.916 476.89 561.279 477.115 560.791 477.49C560.266 477.79 559.891 478.202 559.591 478.69C559.366 479.102 559.216 479.515 559.141 479.89C559.029 480.19 558.991 480.452 558.991 480.64V490.24H552.691Z" fill="#ECEBEB"/>
<path d="M571.43 471.94V465.19H577.73V471.94H581.63V476.74H577.73V482.59C577.73 484.315 578.218 485.14 579.23 485.14C579.418 485.14 579.605 485.102 579.83 484.99C580.13 484.915 580.355 484.802 580.58 484.69L580.73 484.54L582.38 489.64C580.955 490.427 579.418 490.84 577.73 490.84C576.53 490.84 575.48 490.615 574.58 490.24C573.755 489.752 573.118 489.152 572.63 488.44C572.218 487.765 571.918 487.052 571.73 486.34C571.505 485.552 571.43 484.69 571.43 483.79V476.74H568.88V471.94H571.43Z" fill="#ECEBEB"/>
<path d="M585.011 461.89C585.798 461.102 586.698 460.69 587.711 460.69C588.686 460.69 589.548 461.102 590.261 461.89C591.048 462.602 591.461 463.465 591.461 464.44C591.461 465.452 591.048 466.352 590.261 467.14C589.548 467.852 588.686 468.19 587.711 468.19C586.698 468.19 585.798 467.852 585.011 467.14C584.298 466.352 583.961 465.452 583.961 464.44C583.961 463.465 584.298 462.602 585.011 461.89ZM584.411 471.94V490.24H590.711V471.94H584.411Z" fill="#ECEBEB"/>
</g>
<defs>
<clipPath id="clip0_672_48891">
<rect width="720" height="720" rx="60" fill="white"/>
</clipPath>
</defs>
</svg>
